<?xml version="1.0" encoding="utf-8"?>
<!-- Generator: Adobe Illustrator 15.0.0, SVG Export Plug-In . SVG Version: 6.00 Build 0)  -->
<!DOCTYPE svg PUBLIC "-//W3C//DTD SVG 1.1//EN" "http://www.w3.org/Graphics/SVG/1.1/DTD/svg11.dtd">
<svg version="1.1" xmlns="http://www.w3.org/2000/svg" xmlns:xlink="http://www.w3.org/1999/xlink" x="0px" y="0px" width="588px"
	 height="289px" viewBox="0 0 588 289" enable-background="new 0 0 588 289" xml:space="preserve">
<g id="Layer_2" display="none">
	<rect x="-4" display="inline" fill="#141213" width="597" height="292"/>
</g>
<g id="Layer_1">
	<g>
		<g>
			<path fill="#F58220" d="M110.74,244.662H99.423v-27.649c0-9.259-2.443-15.946-7.33-20.062c-3.515-3-8.102-4.5-13.76-4.5
				c-6.001,0-11.017,1.929-15.046,5.787c-4.03,3.858-6.044,9.088-6.044,15.689c0,7.116,2.4,12.603,7.201,16.461
				c3.944,3.172,8.659,4.758,14.146,4.758c3.086,0,5.937-0.579,8.552-1.736c2.615-1.158,5.166-2.894,7.652-5.208v11.831
				c-4.973,3.944-10.931,5.916-17.875,5.916c-8.831,0-16.246-2.873-22.248-8.616c-6.001-5.744-9.002-13.289-9.002-22.634
				c0-9.773,3.194-17.725,9.581-23.855c6.387-6.13,14.21-9.195,23.469-9.195c9.002,0,16.332,2.701,21.991,8.102
				c6.687,6.345,10.031,15.561,10.031,27.649V244.662L110.74,244.662z M181.599,181.777c0,7.03-2.101,13.246-6.301,18.647
				c-2.401,3.172-7.159,7.544-14.274,13.117l-25.077,19.804h45.653v11.317h-49.49c-4.115,0-7.18-0.922-9.152-2.765
				c-1.972-1.843-2.958-4.094-2.958-6.751c0-1.972,0.429-3.644,1.286-5.016c0.6-1.028,2.572-2.786,5.916-5.272l30.093-23.534
				c3.858-3,6.602-5.573,8.23-7.716c2.658-3.515,3.986-7.416,3.986-11.703c0-4.715-1.415-8.659-4.244-11.831
				c-3.172-3.601-7.673-5.401-13.503-5.401c-5.572,0-10.009,1.736-13.31,5.208c-3.301,3.473-4.951,7.781-4.951,12.925
				c0,5.229,1.929,9.516,5.787,12.86c3.258,2.829,7.073,4.501,11.446,5.016l-10.545,8.359c-5.916-2.144-10.524-5.551-13.824-10.224
				c-3.301-4.672-4.951-10.009-4.951-16.01c0-9.002,3.215-16.247,9.645-21.733c6.001-5.144,13.203-7.716,21.604-7.716
				c8.316,0,15.218,2.701,20.705,8.102C178.855,166.859,181.599,173.632,181.599,181.777z"/>
			<path fill="#808285" d="M256.83,209.94c0,10.717-2.894,19.397-8.681,26.042c-5.787,6.645-13.567,9.967-23.341,9.967
				c-10.116,0-18.218-3.43-24.305-10.288c-5.487-6.259-8.23-13.76-8.23-22.505c0-6.259,1.5-11.853,4.501-16.782
				c3-4.93,7.073-8.724,12.217-11.381c2.229-1.115,4.694-1.95,7.395-2.508c2.701-0.557,5.423-0.836,8.166-0.836
				c2.315,0,4.844,0.322,7.587,0.965c2.744,0.643,5.658,1.779,8.745,3.408v11.831c-1.972-1.286-4.244-2.443-6.815-3.472
				c-3.258-1.286-6.344-1.929-9.259-1.929c-2.144,0-4.158,0.214-6.044,0.643c-1.886,0.428-3.729,1.2-5.53,2.314
				c-2.658,1.629-4.886,4.029-6.687,7.202c-1.8,3.172-2.701,6.858-2.701,11.06c0,6.258,1.972,11.403,5.916,15.432
				c3.943,4.029,9.044,6.044,15.303,6.044c1.629,0,3.236-0.171,4.823-0.514c1.586-0.343,3.064-0.9,4.437-1.672
				c4.543-2.486,7.716-6.43,9.516-11.832c1.115-3.429,1.672-7.158,1.672-11.188v-55.298h11.317V209.94L256.83,209.94z
				 M327.688,217.27c-0.6,6.516-2.744,12.131-6.43,16.847c-2.4,3.086-5.444,5.659-9.13,7.716c-2.315,1.372-4.93,2.401-7.845,3.086
				c-2.915,0.686-5.83,1.029-8.745,1.029c-4.973,0-9.773-1.115-14.403-3.344c-5.401-2.658-9.688-6.494-12.86-11.51
				c-3.172-5.015-4.758-10.781-4.758-17.297c0-9.173,3.065-16.825,9.195-22.955c6.13-6.13,13.739-9.195,22.827-9.195
				c6.344,0,12.174,1.629,17.489,4.887c5.316,3.258,9.431,8.145,12.346,14.66l-41.666,23.148l-4.63-9.002l30.478-16.976
				c-2.058-2.229-4.33-3.772-6.816-4.629c-2.486-0.857-4.972-1.286-7.458-1.286c-6.001,0-10.867,1.993-14.596,5.979
				s-5.594,9.109-5.594,15.368c0,4.201,0.857,7.888,2.572,11.06c1.714,3.172,3.944,5.615,6.687,7.33
				c1.543,0.943,3.258,1.672,5.144,2.186s3.815,0.771,5.787,0.771c2.315,0,4.394-0.193,6.237-0.579
				c1.844-0.386,3.666-1.093,5.466-2.122c2.744-1.629,4.972-3.922,6.687-6.88c1.715-2.958,2.572-6.194,2.572-9.709L327.688,217.27
				L327.688,217.27z M384.915,227.43c0,1.886-0.236,3.687-0.707,5.401c-0.471,1.715-1.179,3.258-2.122,4.629
				c-2.143,3.001-5.015,5.059-8.616,6.173c-2.315,0.686-5.272,1.029-8.873,1.029h-30.221V233.86h29.578
				c2.915,0,4.801-0.129,5.658-0.386c2.486-0.686,3.729-2.272,3.729-4.758c0-1.886-0.686-3.43-2.058-4.63
				c-1.029-0.857-2.658-1.672-4.887-2.443c-5.659-1.715-11.274-3.472-16.847-5.272c-5.83-2.144-9.816-4.651-11.96-7.523
				c-2.143-2.872-3.215-5.937-3.215-9.195c0-1.543,0.129-3.086,0.386-4.629c0.257-1.543,1.029-3.172,2.315-4.887
				c2.229-3,5.315-5.058,9.259-6.173c2.486-0.686,5.787-1.029,9.902-1.029h25.848v10.802h-29.063c-2.143,0-3.858,0.407-5.144,1.222
				s-1.929,1.993-1.929,3.537c0,1.801,0.729,3.301,2.186,4.501c0.943,0.771,2.443,1.5,4.501,2.186
				c5.487,1.715,11.017,3.387,16.589,5.016c6.001,2.143,10.117,4.672,12.346,7.587S384.915,223.915,384.915,227.43L384.915,227.43z
				 M407.034,169.174c0,1.715-0.472,3.172-1.415,4.373c-1.286,1.629-3.087,2.443-5.401,2.443c-2.315,0-4.03-0.708-5.144-2.122
				s-1.672-2.979-1.672-4.694s0.472-3.172,1.415-4.373c1.286-1.628,3.086-2.443,5.401-2.443c2.314,0,4.029,0.707,5.144,2.122
				C406.477,165.895,407.034,167.459,407.034,169.174L407.034,169.174z M405.876,244.662H394.56v-61.728h11.316V244.662
				L405.876,244.662z M480.593,238.618c0,5.916-0.515,10.717-1.543,14.403c-1.372,4.801-3.9,9.002-7.587,12.603
				c-2.486,2.401-5.315,4.287-8.487,5.659c-4.201,1.8-9.045,2.7-14.532,2.7c-2.572,0-5.465-0.236-8.68-0.707
				c-3.215-0.472-7.137-1.436-11.767-2.894l2.7-10.288c3.515,0.943,6.666,1.693,9.452,2.25c2.786,0.558,5.337,0.836,7.652,0.836
				c6.687,0,11.788-1.543,15.303-4.63c4.115-3.601,6.173-9.345,6.173-17.232V220.1c0-5.744-0.472-10.16-1.415-13.246
				c-1.8-5.83-5.273-9.988-10.417-12.474c-2.744-1.286-5.702-1.929-8.874-1.929c-6.087,0-11.188,2.015-15.303,6.044
				s-6.173,9.302-6.173,15.818c0,6.001,1.757,10.974,5.272,14.917s8.316,5.916,14.403,5.916c7.03,0,12.988-2.315,17.875-6.944
				v11.831c-5.144,3.944-10.76,5.916-16.847,5.916c-8.402,0-15.604-2.444-21.605-7.331c-7.116-5.744-10.674-13.846-10.674-24.305
				c0-9.517,3.237-17.339,9.709-23.469c6.473-6.13,14.253-9.195,23.341-9.195c4.373,0,8.445,0.686,12.217,2.058
				c5.658,2.058,10.116,5.573,13.374,10.545c4.287,6.516,6.43,15.132,6.43,25.849V238.618L480.593,238.618z M543.607,244.662H532.29
				v-33.05c0-3.687-0.386-6.687-1.157-9.002c-1.286-3.772-3.644-6.602-7.073-8.488c-1.972-1.114-4.244-1.671-6.815-1.671
				c-1.115,0-2.272,0.128-3.472,0.386s-2.315,0.686-3.344,1.286c-3.515,1.886-5.873,4.673-7.073,8.359
				c-0.772,2.314-1.158,5.358-1.158,9.13v33.05h-11.316v-33.05c0-5.487,0.686-10.116,2.058-13.889
				c1.886-5.23,5.272-9.345,10.159-12.346c4.115-2.486,8.831-3.729,14.146-3.729s10.031,1.243,14.146,3.729
				c4.801,3,8.188,7.116,10.159,12.346c1.372,3.687,2.058,8.316,2.058,13.889V244.662z"/>
		</g>
		<linearGradient id="SVGID_1_" gradientUnits="userSpaceOnUse" x1="150.4775" y1="147.8843" x2="480.3609" y2="14.6027">
			<stop  offset="0" style="stop-color:#ED1C24"/>
			<stop  offset="0.1128" style="stop-color:#EF4123"/>
			<stop  offset="0.5497" style="stop-color:#F78F1E"/>
			<stop  offset="0.855" style="stop-color:#FDBA12"/>
			<stop  offset="1" style="stop-color:#FFCB05"/>
		</linearGradient>
		<path fill-rule="evenodd" clip-rule="evenodd" fill="url(#SVGID_1_)" d="M148.933,116.943c4.615-1.944,9.935,0.221,11.88,4.838
			c1.944,4.615-0.223,9.936-4.838,11.88c-4.615,1.944-9.936-0.223-11.88-4.838C142.15,124.206,144.317,118.887,148.933,116.943
			L148.933,116.943z M158.633,91.234c-6.462,2.722-9.495,10.168-6.773,16.631c2.722,6.462,10.169,9.495,16.631,6.772
			c6.462-2.722,9.495-10.168,6.772-16.631S165.095,88.512,158.633,91.234L158.633,91.234z M177.038,61.098
			c8.309-3.5,17.882,0.4,21.382,8.708c3.5,8.309-0.398,17.882-8.708,21.382c-8.308,3.5-17.882-0.398-21.382-8.708
			C164.831,74.172,168.73,64.597,177.038,61.098L177.038,61.098z M210.167,34.413c-10.156,4.278-14.921,15.98-10.643,26.136
			c4.277,10.154,15.978,14.919,26.134,10.642c10.155-4.277,14.92-15.979,10.643-26.133S220.321,30.136,210.167,34.413
			L210.167,34.413z M258.756,34.923c12.002-5.055,25.831,0.577,30.886,12.579c5.056,12.001-0.577,25.83-12.579,30.885
			c-12.001,5.055-25.831-0.575-30.886-12.577C241.122,53.808,246.754,39.979,258.756,34.923L258.756,34.923z M304.839,56.176
			c-13.849,5.833-20.346,21.79-14.513,35.637c5.833,13.847,21.789,20.347,35.637,14.513c13.847-5.833,20.344-21.79,14.512-35.637
			C334.642,56.842,318.687,50.343,304.839,56.176L304.839,56.176z M481.87,45.559c-4.615,1.944-9.935-0.222-11.879-4.838
			c-1.944-4.615,0.222-9.936,4.838-11.879c4.615-1.944,9.936,0.222,11.88,4.838C488.652,38.296,486.485,43.615,481.87,45.559
			L481.87,45.559z M472.17,71.268c6.462-2.722,9.495-10.169,6.773-16.631c-2.722-6.462-10.169-9.495-16.631-6.773
			c-6.462,2.722-9.495,10.169-6.773,16.631C458.261,70.957,465.708,73.99,472.17,71.268L472.17,71.268z M453.765,101.404
			c-8.309,3.5-17.883-0.4-21.382-8.708c-3.5-8.309,0.398-17.882,8.708-21.382c8.308-3.5,17.882,0.398,21.382,8.708
			C465.972,88.33,462.072,97.905,453.765,101.404L453.765,101.404z M420.636,128.088c10.156-4.278,14.92-15.98,10.643-26.135
			c-4.277-10.154-15.979-14.92-26.135-10.642c-10.155,4.277-14.919,15.979-10.643,26.133
			C398.78,127.599,410.481,132.366,420.636,128.088L420.636,128.088z M372.046,127.578c-12.001,5.056-25.831-0.576-30.886-12.578
			s0.577-25.83,12.579-30.885c12.002-5.056,25.831,0.575,30.886,12.577C389.68,108.693,384.048,122.522,372.046,127.578z"/>
		<linearGradient id="SVGID_2_" gradientUnits="userSpaceOnUse" x1="150.4775" y1="147.8843" x2="480.3609" y2="14.6027">
			<stop  offset="0" style="stop-color:#ED1C24"/>
			<stop  offset="0.1128" style="stop-color:#EF4123"/>
			<stop  offset="0.5497" style="stop-color:#F78F1E"/>
			<stop  offset="0.855" style="stop-color:#FDBA12"/>
			<stop  offset="1" style="stop-color:#FFCB05"/>
		</linearGradient>
		<path fill-rule="evenodd" clip-rule="evenodd" fill="url(#SVGID_2_)" d="M148.933,116.943c4.615-1.944,9.935,0.221,11.88,4.838
			c1.944,4.615-0.223,9.936-4.838,11.88c-4.615,1.944-9.936-0.223-11.88-4.838C142.15,124.206,144.317,118.887,148.933,116.943
			L148.933,116.943z M158.633,91.234c-6.462,2.722-9.495,10.168-6.773,16.631c2.722,6.462,10.169,9.495,16.631,6.772
			c6.462-2.722,9.495-10.168,6.772-16.631S165.095,88.512,158.633,91.234L158.633,91.234z M177.038,61.098
			c8.309-3.5,17.882,0.4,21.382,8.708c3.5,8.309-0.398,17.882-8.708,21.382c-8.308,3.5-17.882-0.398-21.382-8.708
			C164.831,74.172,168.73,64.597,177.038,61.098L177.038,61.098z M210.167,34.413c-10.156,4.278-14.921,15.98-10.643,26.136
			c4.277,10.154,15.978,14.919,26.134,10.642c10.155-4.277,14.92-15.979,10.643-26.133S220.321,30.136,210.167,34.413
			L210.167,34.413z M258.756,34.923c12.002-5.055,25.831,0.577,30.886,12.579c5.056,12.001-0.577,25.83-12.579,30.885
			c-12.001,5.055-25.831-0.575-30.886-12.577C241.122,53.808,246.754,39.979,258.756,34.923L258.756,34.923z M304.839,56.176
			c-13.849,5.833-20.346,21.79-14.513,35.637c5.833,13.847,21.789,20.347,35.637,14.513c13.847-5.833,20.344-21.79,14.512-35.637
			C334.642,56.842,318.687,50.343,304.839,56.176L304.839,56.176z M481.87,45.559c-4.615,1.944-9.935-0.222-11.879-4.838
			c-1.944-4.615,0.222-9.936,4.838-11.879c4.615-1.944,9.936,0.222,11.88,4.838C488.652,38.296,486.485,43.615,481.87,45.559
			L481.87,45.559z M472.17,71.268c6.462-2.722,9.495-10.169,6.773-16.631c-2.722-6.462-10.169-9.495-16.631-6.773
			c-6.462,2.722-9.495,10.169-6.773,16.631C458.261,70.957,465.708,73.99,472.17,71.268L472.17,71.268z M453.765,101.404
			c-8.309,3.5-17.883-0.4-21.382-8.708c-3.5-8.309,0.398-17.882,8.708-21.382c8.308-3.5,17.882,0.398,21.382,8.708
			C465.972,88.33,462.072,97.905,453.765,101.404L453.765,101.404z M420.636,128.088c10.156-4.278,14.92-15.98,10.643-26.135
			c-4.277-10.154-15.979-14.92-26.135-10.642c-10.155,4.277-14.919,15.979-10.643,26.133
			C398.78,127.599,410.481,132.366,420.636,128.088L420.636,128.088z M372.046,127.578c-12.001,5.056-25.831-0.576-30.886-12.578
			s0.577-25.83,12.579-30.885c12.002-5.056,25.831,0.575,30.886,12.577C389.68,108.693,384.048,122.522,372.046,127.578z"/>
	</g>
</g>
</svg>
