
		<svg xmlns="http://www.w3.org/2000/svg" xmlns:xlink="http://www.w3.org/1999/xlink" version="1.1" width="3076.3156816056103" height="428.94790653564814">
			
			<g transform="scale(3.81578408028052) translate(10, 10)">
				<defs id="SvgjsDefs1070"/><g id="SvgjsG1071" featureKey="root" fill="#fff" transform="matrix(1,0,0,1,NaN,NaN)"/><g id="SvgjsG1072" featureKey="symbol1" fill="#fff" transform="matrix(0.872711140720277,0,0,0.872711140720277,1.3539553759770637,2.462205328108947)"><title>80</title><g data-name="Group"><path data-name="Compound Path" d="M81.8,9.8h0c-15,1-28,6.2-38.7,15.4a2.8,2.8,0,0,1-1.6.7c-7.4.6-15.9,4.7-21.6,10.4A32.2,32.2,0,0,0,14,44.2a3,3,0,0,0,4,4.1,24.9,24.9,0,0,1,8.3-2.5c-1.5,2.9-3.1,6.2-3.9,8V54a3,3,0,0,0,.6,3.4l.9.9L10.2,85.9a3,3,0,0,0,4,4L41.7,76.2l.8.8a3,3,0,0,0,3.4.6l8.3-4.1A25.8,25.8,0,0,1,51.7,82a3,3,0,0,0,4,4,29.1,29.1,0,0,0,8-5.8c5.8-5.8,9.9-14.4,10.4-21.9a2.7,2.7,0,0,1,.7-1.6C84,46.1,89.1,33.1,90.1,18.2a7.9,7.9,0,0,0-8.4-8.4ZM19.5,80.5l8.8-17.7,8.9,8.9Zm45.3-31h0a10.1,10.1,0,1,1,3-7.1A10,10,0,0,1,64.8,49.5Z"/></g></g><g id="SvgjsG1073" featureKey="text1" fill="#fff" transform="matrix(4.8276055190880705,0,0,4.8276055190880705,99.43275775571598,-14.138018387513565)"><path d="M14.78 18.86 c0.1 0.22 0.06 0.46 -0.06 0.66 c-0.14 0.2 -0.36 0.32 -0.58 0.32 l-13.32 0 c-0.24 0 -0.46 -0.12 -0.58 -0.32 c-0.14 -0.2 -0.16 -0.44 -0.06 -0.66 l0.62 -1.46 c0.1 -0.26 0.36 -0.44 0.64 -0.44 l9.32 0 l-0.6 -1.44 l-2.68 -6.4 l-2.68 6.4 c-0.1 0.26 -0.36 0.42 -0.64 0.42 l-1.68 0 c-0.24 0 -0.46 -0.12 -0.6 -0.32 c-0.12 -0.18 -0.14 -0.44 -0.06 -0.66 l4.06 -9.52 c0.1 -0.28 0.36 -0.44 0.64 -0.44 l1.92 0 c0.28 0 0.52 0.16 0.64 0.44 z M26.259999999999998 12.42 c1.12 0.72 1.74 1.78 1.74 3.06 c0 1.48 -0.58 2.62 -1.7 3.42 c-1.04 0.72 -2.48 1.1 -4.26 1.1 c-2.02 0 -3.6 -0.44 -4.7 -1.32 c-1.02 -0.82 -1.6 -1.98 -1.74 -3.44 c-0.02 -0.2 0.04 -0.4 0.18 -0.54 s0.32 -0.22 0.52 -0.22 l1.56 0 c0.38 0 0.68 0.28 0.7 0.64 c0.04 0.68 0.34 1.16 0.98 1.54 c0.6 0.34 1.46 0.52 2.52 0.52 c3.04 0 3.04 -1.2 3.04 -1.64 c0 -0.32 -0.12 -0.52 -0.38 -0.7 c-0.38 -0.26 -0.88 -0.48 -1.48 -0.66 c-0.66 -0.2 -1.38 -0.38 -2.14 -0.56 c-0.82 -0.18 -1.6 -0.42 -2.3 -0.7 c-0.76 -0.32 -1.42 -0.72 -1.92 -1.24 c-0.58 -0.58 -0.88 -1.36 -0.88 -2.3 c0 -1.3 0.5 -2.38 1.5 -3.2 c0.96 -0.78 2.36 -1.18 4.2 -1.18 s3.3 0.44 4.36 1.32 c0.98 0.8 1.52 1.86 1.58 3.14 c0.02 0.18 -0.06 0.38 -0.18 0.52 c-0.14 0.12 -0.32 0.2 -0.5 0.2 l-1.56 0 c-0.34 0 -0.64 -0.26 -0.68 -0.6 c-0.06 -0.52 -0.3 -1.24 -1.62 -1.6 c-0.4 -0.12 -0.92 -0.18 -1.52 -0.18 s-1.1 0.06 -1.48 0.2 c-0.38 0.12 -0.66 0.26 -0.84 0.42 c-0.16 0.14 -0.26 0.28 -0.3 0.42 c-0.06 0.2 -0.1 0.42 -0.1 0.64 c0 0.04 0 0.16 0.18 0.34 c0.2 0.18 0.46 0.36 0.8 0.48 c0.4 0.18 0.86 0.32 1.38 0.44 c0.54 0.14 1.1 0.28 1.68 0.42 s1.16 0.3 1.72 0.48 c0.6 0.2 1.16 0.46 1.64 0.78 z  M40.46 5 c0.38 0 0.68 0.32 0.68 0.7 l0 1.44 c0 0.38 -0.3 0.7 -0.68 0.7 l-3.94 0 l0 11.14 c0 0.38 -0.32 0.7 -0.7 0.7 l-1.5 0 c-0.4 0 -0.7 -0.32 -0.7 -0.7 l0 -11.14 l-3.94 0 c-0.38 0 -0.7 -0.32 -0.7 -0.7 l0 -1.44 c0 -0.38 0.32 -0.7 0.7 -0.7 l10.78 0 z M52.46 14.02 l2.98 4.58 c0.14 0.22 0.14 0.5 0.02 0.72 s-0.36 0.36 -0.6 0.36 l-1.8 0 c-0.24 0 -0.46 -0.12 -0.58 -0.32 l-3 -4.78 l-3.54 0 l0 4.4 c0 0.38 -0.32 0.7 -0.7 0.7 l-1.5 0 c-0.38 0 -0.7 -0.32 -0.7 -0.7 l0 -13.28 c0 -0.38 0.32 -0.7 0.7 -0.7 l6.36 0 c1.52 0 2.78 0.44 3.72 1.3 c0.96 0.88 1.44 2.06 1.44 3.56 c0 1.92 -0.86 3.32 -2.48 4.02 c-0.1 0.06 -0.22 0.1 -0.32 0.14 z M45.94 7.82 l0 3.94 l3.9 0 c1.16 0 1.92 -0.32 2.34 -0.98 c0.12 -0.22 0.2 -0.54 0.2 -0.92 c0 -0.66 -0.2 -1.12 -0.62 -1.48 c-0.46 -0.38 -1.06 -0.56 -1.84 -0.56 l-3.98 0 z M64.46000000000001 5 c2.16 0 3.98 0.74 5.38 2.2 c1.36 1.42 2.06 3.2 2.06 5.3 s-0.7 3.88 -2.06 5.3 c-1.4 1.46 -3.22 2.2 -5.38 2.2 s-3.98 -0.74 -5.38 -2.2 c-1.36 -1.42 -2.06 -3.2 -2.06 -5.3 s0.7 -3.88 2.06 -5.3 c1.4 -1.46 3.22 -2.2 5.38 -2.2 z M64.46000000000001 17.14 c1.4 0 2.48 -0.44 3.32 -1.32 c0.82 -0.86 1.22 -1.96 1.22 -3.32 s-0.4 -2.44 -1.22 -3.32 c-0.84 -0.88 -1.92 -1.32 -3.32 -1.32 s-2.48 0.44 -3.32 1.32 c-0.82 0.88 -1.22 1.96 -1.22 3.32 s0.4 2.46 1.22 3.32 c0.84 0.88 1.92 1.32 3.32 1.32 z M78.82000000000001 8.22 c-0.52 0.22 -0.98 0.54 -1.34 0.96 c-0.76 0.84 -1.12 1.94 -1.12 3.32 s0.36 2.48 1.12 3.34 c0.78 0.88 1.9 1.3 3.44 1.3 c0.82 0 1.5 -0.2 2.1 -0.6 c0.62 -0.42 1.06 -0.94 1.36 -1.64 c0.1 -0.26 0.36 -0.42 0.64 -0.42 l1.58 0 c0.22 0 0.44 0.1 0.56 0.28 c0.14 0.2 0.18 0.42 0.1 0.64 c-0.5 1.4 -1.32 2.5 -2.44 3.3 c-1.2 0.86 -2.62 1.3 -4.24 1.3 c-2.14 0 -3.9 -0.74 -5.24 -2.22 c-1.24 -1.4 -1.88 -3.18 -1.88 -5.28 s0.64 -3.88 1.88 -5.28 c1.34 -1.48 3.1 -2.22 5.24 -2.22 c1.62 0 3.04 0.44 4.24 1.3 c1.12 0.8 1.94 1.92 2.44 3.3 c0.08 0.22 0.04 0.46 -0.1 0.64 c-0.12 0.18 -0.34 0.28 -0.56 0.28 l-1.58 0 c-0.28 0 -0.54 -0.16 -0.64 -0.42 c-0.3 -0.7 -0.74 -1.22 -1.36 -1.64 c-0.6 -0.4 -1.28 -0.6 -2.1 -0.6 c-0.86 0 -1.56 0.12 -2.1 0.36 z M96.92000000000002 5.42 l5.6 13.22 c0.06 0.1 0.1 0.22 0.1 0.34 c0 0.38 -0.3 0.7 -0.7 0.7 l0 0 l-1.66 0 c-0.28 0 -0.54 -0.16 -0.64 -0.42 l-1.46 -3.44 l-5.66 0 l-1.44 3.44 c-0.1 0.26 -0.36 0.42 -0.64 0.42 l-1.66 0 c-0.24 0 -0.46 -0.12 -0.58 -0.32 c-0.14 -0.18 -0.16 -0.44 -0.06 -0.64 l5.64 -13.3 c0.1 -0.26 0.36 -0.42 0.64 -0.42 l1.88 0 c0.28 0 0.54 0.16 0.64 0.42 z M95.34000000000002 9.06 l-1.66 3.98 l3.32 0 z M114.04000000000002 12.42 c1.12 0.72 1.74 1.78 1.74 3.06 c0 1.48 -0.58 2.62 -1.7 3.42 c-1.04 0.72 -2.48 1.1 -4.26 1.1 c-2.02 0 -3.6 -0.44 -4.7 -1.32 c-1.02 -0.82 -1.6 -1.98 -1.74 -3.44 c-0.02 -0.2 0.04 -0.4 0.18 -0.54 s0.32 -0.22 0.52 -0.22 l1.56 0 c0.38 0 0.68 0.28 0.7 0.64 c0.04 0.68 0.34 1.16 0.98 1.54 c0.6 0.34 1.46 0.52 2.52 0.52 c3.04 0 3.04 -1.2 3.04 -1.64 c0 -0.32 -0.12 -0.52 -0.38 -0.7 c-0.38 -0.26 -0.88 -0.48 -1.48 -0.66 c-0.66 -0.2 -1.38 -0.38 -2.14 -0.56 c-0.82 -0.18 -1.6 -0.42 -2.3 -0.7 c-0.76 -0.32 -1.42 -0.72 -1.92 -1.24 c-0.58 -0.58 -0.88 -1.36 -0.88 -2.3 c0 -1.3 0.5 -2.38 1.5 -3.2 c0.96 -0.78 2.36 -1.18 4.2 -1.18 s3.3 0.44 4.36 1.32 c0.98 0.8 1.52 1.86 1.58 3.14 c0.02 0.18 -0.06 0.38 -0.18 0.52 c-0.14 0.12 -0.32 0.2 -0.5 0.2 l-1.56 0 c-0.34 0 -0.64 -0.26 -0.68 -0.6 c-0.06 -0.52 -0.3 -1.24 -1.62 -1.6 c-0.4 -0.12 -0.92 -0.18 -1.52 -0.18 s-1.1 0.06 -1.48 0.2 c-0.38 0.12 -0.66 0.26 -0.84 0.42 c-0.16 0.14 -0.26 0.28 -0.3 0.42 c-0.06 0.2 -0.1 0.42 -0.1 0.64 c0 0.04 0 0.16 0.18 0.34 c0.2 0.18 0.46 0.36 0.8 0.48 c0.4 0.18 0.86 0.32 1.38 0.44 c0.54 0.14 1.1 0.28 1.68 0.42 s1.16 0.3 1.72 0.48 c0.6 0.2 1.16 0.46 1.64 0.78 z  M128.24 5 c0.38 0 0.68 0.32 0.68 0.7 l0 1.44 c0 0.38 -0.3 0.7 -0.68 0.7 l-3.94 0 l0 11.14 c0 0.38 -0.32 0.7 -0.7 0.7 l-1.5 0 c-0.4 0 -0.7 -0.32 -0.7 -0.7 l0 -11.14 l-3.94 0 c-0.38 0 -0.7 -0.32 -0.7 -0.7 l0 -1.44 c0 -0.38 0.32 -0.7 0.7 -0.7 l10.78 0 z M140.52 12.42 c1.12 0.72 1.74 1.78 1.74 3.06 c0 1.48 -0.58 2.62 -1.7 3.42 c-1.04 0.72 -2.48 1.1 -4.26 1.1 c-2.02 0 -3.6 -0.44 -4.7 -1.32 c-1.02 -0.82 -1.6 -1.98 -1.74 -3.44 c-0.02 -0.2 0.04 -0.4 0.18 -0.54 s0.32 -0.22 0.52 -0.22 l1.56 0 c0.38 0 0.68 0.28 0.7 0.64 c0.04 0.68 0.34 1.16 0.98 1.54 c0.6 0.34 1.46 0.52 2.52 0.52 c3.04 0 3.04 -1.2 3.04 -1.64 c0 -0.32 -0.12 -0.52 -0.38 -0.7 c-0.38 -0.26 -0.88 -0.48 -1.48 -0.66 c-0.66 -0.2 -1.38 -0.38 -2.14 -0.56 c-0.82 -0.18 -1.6 -0.42 -2.3 -0.7 c-0.76 -0.32 -1.42 -0.72 -1.92 -1.24 c-0.58 -0.58 -0.88 -1.36 -0.88 -2.3 c0 -1.3 0.5 -2.38 1.5 -3.2 c0.96 -0.78 2.36 -1.18 4.2 -1.18 s3.3 0.44 4.36 1.32 c0.98 0.8 1.52 1.86 1.58 3.14 c0.02 0.18 -0.06 0.38 -0.18 0.52 c-0.14 0.12 -0.32 0.2 -0.5 0.2 l-1.56 0 c-0.34 0 -0.64 -0.26 -0.68 -0.6 c-0.06 -0.52 -0.3 -1.24 -1.62 -1.6 c-0.4 -0.12 -0.92 -0.18 -1.52 -0.18 s-1.1 0.06 -1.48 0.2 c-0.38 0.12 -0.66 0.26 -0.84 0.42 c-0.16 0.14 -0.26 0.28 -0.3 0.42 c-0.06 0.2 -0.1 0.42 -0.1 0.64 c0 0.04 0 0.16 0.18 0.34 c0.2 0.18 0.46 0.36 0.8 0.48 c0.4 0.18 0.86 0.32 1.38 0.44 c0.54 0.14 1.1 0.28 1.68 0.42 s1.16 0.3 1.72 0.48 c0.6 0.2 1.16 0.46 1.64 0.78 z "/></g>
			</g>
		</svg>
	