<?xml version="1.0" encoding="utf-8"?>
<!-- Generator: Adobe Illustrator 18.1.1, SVG Export Plug-In . SVG Version: 6.00 Build 0)  -->
<svg version="1.1" id="Layer_1" xmlns="http://www.w3.org/2000/svg" xmlns:xlink="http://www.w3.org/1999/xlink" x="0px" y="0px"
	 viewBox="0 0 500 250" enable-background="new 0 0 500 250" xml:space="preserve">
<g>
	<g>
		<g>
			<path fill="#FFFFFF" d="M193.3,88.4c4.5-2.3,9.2-3.5,13.9-3.5c4.7,0,8.8,0.7,12.2,2.2c3.4,1.5,6.4,3.6,9,6.3
				c5.6,6.1,8.4,13.8,8.4,23.2c0,10.2-3.1,18.5-9.2,24.7c-5.9,6-13.2,9-21.9,9c-7.7,0-14-2-19-6c-5.6-4.5-8.4-10.8-8.4-18.7V59.2
				h14.9V88.4z M193.3,125.4c0,7.1,4.4,10.7,13.3,10.7c4.3,0,8-1.9,10.9-5.7c3-3.9,4.5-8.7,4.5-14.5c0-5.8-1.6-10.2-4.7-13.2
				c-2.8-2.6-6.6-3.9-11.4-3.9c-2.9,0-6,1-9.5,2.9c-1.1,0.6-2.1,1.3-3,2V125.4z"/>
		</g>
		<g>
			<path fill="#FFFFFF" d="M261.4,142.7c0,3.5,0.1,5.7,0.2,6.8h-15.1V86.1h14.9v4.7c3.4-3.9,7-5.9,10.8-5.9c3.8,0,6.8,0.5,8.9,1.4
				l-1.1,16.3l-0.2,0.2c-1.4-2.5-4.3-3.8-8.8-3.8c-1.7,0-3.4,0.6-5.2,1.7c-1.8,1.2-3.2,2.7-4.5,4.6V142.7z"/>
		</g>
		<g>
			<path fill="#FFFFFF" d="M286.1,118.1c0-4.4,0.8-8.7,2.3-12.8c1.5-4.1,3.7-7.6,6.5-10.6c6.2-6.6,14.2-9.8,24.1-9.8
				c9.8,0,17.6,3.1,23.4,9.3c5.5,5.9,8.3,13.6,8.3,23c0,9.4-2.9,17.2-8.6,23.4c-6,6.6-14,9.8-24,9.8c-10.3,0-18.3-3.2-24.1-9.6
				C288.8,134.8,286.1,127.3,286.1,118.1z M300.8,117.7c0,2.5,0.4,5,1.3,7.4c0.8,2.4,2.1,4.4,3.6,6.1c3.4,3.7,7.8,5.5,13.2,5.5
				c5.1,0,9-1.8,11.9-5.4c2.8-3.5,4.2-8,4.2-13.6c0-5.7-1.5-10.2-4.4-13.7c-3.1-3.7-7.4-5.6-12.8-5.6c-5.5,0-9.8,2-12.9,5.9
				C302.3,108.1,300.8,112.5,300.8,117.7z"/>
		</g>
		<g>
			<path fill="#FFFFFF" d="M358.2,118.1c0-4.4,0.8-8.7,2.3-12.8c1.5-4.1,3.7-7.6,6.5-10.6c6.2-6.6,14.2-9.8,24.1-9.8
				c9.8,0,17.6,3.1,23.4,9.3c5.5,5.9,8.3,13.6,8.3,23c0,9.4-2.9,17.2-8.6,23.4c-6,6.6-14,9.8-24,9.8c-10.3,0-18.3-3.2-24.1-9.6
				C360.8,134.8,358.2,127.3,358.2,118.1z M372.9,117.7c0,2.5,0.4,5,1.3,7.4c0.8,2.4,2.1,4.4,3.6,6.1c3.4,3.7,7.8,5.5,13.2,5.5
				c5.1,0,9-1.8,11.9-5.4c2.8-3.5,4.2-8,4.2-13.6c0-5.7-1.5-10.2-4.4-13.7c-3.1-3.7-7.4-5.6-12.8-5.6c-5.5,0-9.8,2-12.9,5.9
				C374.3,108.1,372.9,112.5,372.9,117.7z"/>
		</g>
		<g>
			<path fill="#FFFFFF" d="M447.2,141.4c0,3.5,0.1,6.1,0.4,8h-15.3V62.7h14.9v53.1l27.7-29.8h18L469,111.2l13.6,18.6
				c3,4.7,5.2,8.1,6.7,10.3l4,5.6c1.2,1.6,2.2,2.8,3,3.6h-9.6c-3.6,0-6.6,0.3-9.2,0.9l-18.9-27.7l-11.5,12.3V141.4z"/>
		</g>
		<g>
			<path fill="#FFFFFF" d="M180.1,164.1c2.3-0.3,5-0.6,7.9-0.6c5.4,0,9.2,1.2,11.7,3.6c2.6,2.4,4.1,5.7,4.1,10.4
				c0,4.7-1.5,8.6-4.2,11.2c-2.7,2.7-7.2,4.2-12.8,4.2c-2.7,0-4.9-0.1-6.8-0.3V164.1z M183.8,189.7c0.9,0.2,2.3,0.2,3.8,0.2
				c8,0,12.3-4.5,12.3-12.3c0-6.8-3.8-11.1-11.7-11.1c-1.9,0-3.4,0.2-4.4,0.4V189.7z"/>
			<path fill="#FFFFFF" d="M210.8,182.9c0.1,5.1,3.3,7.2,7.1,7.2c2.7,0,4.3-0.5,5.7-1.1l0.6,2.7c-1.3,0.6-3.6,1.3-6.9,1.3
				c-6.4,0-10.2-4.2-10.2-10.5c0-6.3,3.7-11.2,9.7-11.2c6.8,0,8.6,6,8.6,9.8c0,0.8-0.1,1.4-0.1,1.8H210.8z M221.8,180.2
				c0-2.4-1-6.1-5.2-6.1c-3.8,0-5.5,3.5-5.8,6.1H221.8z"/>
			<path fill="#FFFFFF" d="M229.6,188.8c1.1,0.7,3.1,1.5,5,1.5c2.7,0,4-1.4,4-3.1c0-1.8-1.1-2.8-3.9-3.8c-3.7-1.3-5.5-3.4-5.5-5.9
				c0-3.3,2.7-6.1,7.2-6.1c2.1,0,3.9,0.6,5.1,1.3l-0.9,2.7c-0.8-0.5-2.3-1.2-4.2-1.2c-2.2,0-3.5,1.3-3.5,2.8c0,1.7,1.2,2.5,3.9,3.5
				c3.6,1.4,5.4,3.2,5.4,6.3c0,3.6-2.8,6.2-7.8,6.2c-2.3,0-4.4-0.6-5.8-1.4L229.6,188.8z"/>
			<path fill="#FFFFFF" d="M251.3,166.1c0,1.3-0.9,2.3-2.4,2.3c-1.3,0-2.3-1-2.3-2.3c0-1.3,1-2.4,2.4-2.4
				C250.4,163.7,251.3,164.7,251.3,166.1z M247.1,192.6v-20.7h3.8v20.7H247.1z"/>
			<path fill="#FFFFFF" d="M275,171.9c-0.1,1.5-0.2,3.2-0.2,5.7v12c0,4.8-0.9,7.7-3,9.5c-2,1.9-4.9,2.5-7.5,2.5
				c-2.5,0-5.2-0.6-6.9-1.7l0.9-2.9c1.4,0.9,3.5,1.6,6.1,1.6c3.9,0,6.7-2,6.7-7.2v-2.3h-0.1c-1.2,1.9-3.4,3.5-6.6,3.5
				c-5.1,0-8.8-4.4-8.8-10.1c0-7,4.6-11,9.3-11c3.6,0,5.6,1.9,6.5,3.6h0.1l0.2-3.1H275z M271.1,180.1c0-0.6,0-1.2-0.2-1.7
				c-0.7-2.2-2.5-4-5.3-4c-3.6,0-6.2,3-6.2,7.8c0,4.1,2.1,7.5,6.1,7.5c2.3,0,4.4-1.5,5.2-3.9c0.2-0.6,0.3-1.4,0.3-2V180.1z"/>
			<path fill="#FFFFFF" d="M280.9,177.5c0-2.1,0-3.9-0.2-5.6h3.3l0.2,3.4h0.1c1-2,3.4-3.9,6.9-3.9c2.9,0,7.3,1.7,7.3,8.8v12.4h-3.8
				v-12c0-3.3-1.2-6.1-4.8-6.1c-2.5,0-4.4,1.8-5.1,3.9c-0.2,0.5-0.3,1.1-0.3,1.8v12.5h-3.8V177.5z"/>
			<path fill="#FFFFFF" d="M313.9,163.7h3.7v25.8H330v3.1h-16.1V163.7z"/>
			<path fill="#FFFFFF" d="M338.2,166.1c0,1.3-0.9,2.3-2.4,2.3c-1.3,0-2.3-1-2.3-2.3c0-1.3,1-2.4,2.4-2.4
				C337.3,163.7,338.2,164.7,338.2,166.1z M334,192.6v-20.7h3.8v20.7H334z"/>
			<path fill="#FFFFFF" d="M347.8,181.4L347.8,181.4c0.6-0.7,1.3-1.6,1.9-2.4l6.1-7.2h4.5l-8,8.5l9.1,12.2h-4.6l-7.2-9.9l-1.9,2.1
				v7.8H344v-30.4h3.7V181.4z"/>
			<path fill="#FFFFFF" d="M366.2,182.9c0.1,5.1,3.3,7.2,7.1,7.2c2.7,0,4.3-0.5,5.7-1.1l0.6,2.7c-1.3,0.6-3.6,1.3-6.9,1.3
				c-6.4,0-10.2-4.2-10.2-10.5c0-6.3,3.7-11.2,9.7-11.2c6.8,0,8.6,6,8.6,9.8c0,0.8-0.1,1.4-0.1,1.8H366.2z M377.3,180.2
				c0-2.4-1-6.1-5.2-6.1c-3.8,0-5.5,3.5-5.8,6.1H377.3z"/>
			<path fill="#FFFFFF" d="M399.5,183.5l-3,9.1h-3.9l9.8-28.9h4.5l9.9,28.9h-4l-3.1-9.1H399.5z M409,180.6l-2.8-8.3
				c-0.6-1.9-1.1-3.6-1.5-5.3h-0.1c-0.4,1.7-0.9,3.5-1.5,5.2l-2.8,8.4H409z"/>
			<path fill="#FFFFFF" d="M430.2,164.1c2.3-0.3,5-0.6,7.9-0.6c5.4,0,9.2,1.2,11.7,3.6c2.6,2.4,4.1,5.7,4.1,10.4
				c0,4.7-1.5,8.6-4.2,11.2c-2.7,2.7-7.2,4.2-12.8,4.2c-2.7,0-4.9-0.1-6.8-0.3V164.1z M433.9,189.7c0.9,0.2,2.3,0.2,3.8,0.2
				c8,0,12.3-4.5,12.3-12.3c0-6.8-3.8-11.1-11.7-11.1c-1.9,0-3.4,0.2-4.4,0.4V189.7z"/>
			<path fill="#FFFFFF" d="M460.9,182.9c0.1,5.1,3.3,7.2,7.1,7.2c2.7,0,4.3-0.5,5.7-1.1l0.6,2.7c-1.3,0.6-3.6,1.3-6.9,1.3
				c-6.4,0-10.2-4.2-10.2-10.5c0-6.3,3.7-11.2,9.7-11.2c6.8,0,8.6,6,8.6,9.8c0,0.8-0.1,1.4-0.1,1.8H460.9z M471.9,180.2
				c0-2.4-1-6.1-5.2-6.1c-3.8,0-5.5,3.5-5.8,6.1H471.9z"/>
			<path fill="#FFFFFF" d="M481.7,171.9l4.1,11.7c0.7,1.9,1.2,3.6,1.7,5.3h0.1c0.5-1.7,1.1-3.4,1.8-5.3l4-11.7h3.9l-8.1,20.7h-3.6
				l-7.9-20.7H481.7z"/>
		</g>
	</g>
	<g>
		<circle fill="#2779BD" cx="80.9" cy="125" r="78.2"/>
		<g>
			<path fill="#FFFFFF" d="M63.6,107.4c-3.3,0-6.7-0.9-10-2.8c-2.5-1.4-4.3-2.9-5-3.5c0,0-0.1-0.1-0.1-0.1c-1.3-1.1-3.3-1.1-4.6,0
				c0,0-0.1,0.1-0.1,0.1c-1.6,1.4-3.4,2.5-5.4,3.5c-2.5,1.1-5.3,2-8.4,2.6c-2.7,0.5-5.2-1.2-5.7-3.6c-0.5-2.5,1.2-4.8,3.9-5.3
				c2.2-0.4,4.2-1,5.8-1.7c1.2-0.6,2.3-1.2,3.2-2c0.7-0.6,1.3-1.3,1.9-2c0.3-0.3,0.6-0.6,0.9-1c0.8-0.8,2.8-3,6.2-3.1
				c3.6-0.1,5.6,2.2,6.4,3c0.2,0.2,0.4,0.5,0.6,0.7c0.6,0.7,1.3,1.5,2.2,2.3c0.5,0.4,1.7,1.5,3.3,2.4c1.8,1,3.4,1.5,4.9,1.5
				c0,0,0,0,0,0c1.5,0,3.1-0.5,4.8-1.4c1.6-0.9,2.8-1.9,3.5-2.5c1-0.8,1.7-1.6,2.3-2.4c0.2-0.2,0.4-0.5,0.6-0.7
				c0.8-0.9,2.8-3.1,6.3-3c3.5,0.1,5.3,2.2,6.1,3.2c0.2,0.2,0.3,0.4,0.5,0.6c0.6,0.7,1.2,1.5,2.2,2.3c0.5,0.4,1.7,1.4,3.3,2.3
				c1.8,1,3.5,1.5,5.1,1.5c0,0,0,0,0,0c1.6,0,3.3-0.5,5-1.5c1.6-0.9,2.8-1.9,3.3-2.3c1-0.8,1.6-1.6,2.2-2.3c0.2-0.2,0.4-0.4,0.5-0.6
				c0.8-0.9,2.7-3.1,6.2-3.1c0,0,0,0,0,0c3.5,0,5.6,2.3,6.4,3.2c0.3,0.3,0.5,0.6,0.7,0.9c0.6,0.7,1.2,1.5,2,2.1
				c0.9,0.8,1.9,1.4,3.1,1.9c1.7,0.8,3.6,1.3,5.9,1.7c2.7,0.4,4.4,2.8,4,5.3c-0.5,2.5-3,4.1-5.7,3.7c-3.2-0.5-6.1-1.4-8.5-2.5
				c-2-0.9-3.8-2.1-5.4-3.4c-0.1-0.1-0.1-0.1-0.2-0.2c-1.3-1.1-3.3-1.1-4.6,0c0,0-0.1,0.1-0.1,0.1c-0.7,0.6-2.4,2.1-4.9,3.4
				c-3.3,1.8-6.7,2.8-10.1,2.7c-3.4,0-6.8-1-10.1-2.9c-2.5-1.4-4.2-2.9-4.9-3.5c0,0,0,0,0,0c-1.3-1.1-3.3-1.1-4.6,0
				c-0.1,0-0.1,0.1-0.2,0.1c-0.8,0.7-2.6,2.2-5,3.5C70.2,106.5,66.9,107.4,63.6,107.4C63.6,107.4,63.6,107.4,63.6,107.4z"/>
			<path fill="#FFFFFF" d="M63.6,134.5c-3.3,0-6.7-0.9-10-2.8c-2.5-1.4-4.3-2.9-5-3.5c0,0-0.1-0.1-0.1-0.1c-1.3-1.1-3.3-1.1-4.6,0
				c0,0-0.1,0.1-0.1,0.1c-1.6,1.4-3.4,2.5-5.4,3.5c-2.5,1.1-5.3,2-8.4,2.6c-2.7,0.5-5.2-1.2-5.7-3.6c-0.5-2.5,1.2-4.8,3.9-5.3
				c2.2-0.4,4.2-1,5.8-1.7c1.2-0.6,2.3-1.2,3.2-2c0.7-0.6,1.3-1.3,1.9-2c0.3-0.3,0.6-0.6,0.9-1c0.8-0.8,2.8-3,6.2-3.1
				c3.6-0.1,5.6,2.2,6.4,3c0.2,0.2,0.4,0.5,0.6,0.7c0.6,0.7,1.3,1.5,2.2,2.3c0.5,0.4,1.7,1.5,3.3,2.4c1.8,1,3.4,1.5,4.9,1.5
				c0,0,0,0,0,0c1.5,0,3.1-0.5,4.8-1.4c1.6-0.9,2.8-1.9,3.5-2.5c1-0.8,1.7-1.6,2.3-2.4c0.2-0.2,0.4-0.5,0.6-0.7
				c0.8-0.9,2.8-3.1,6.3-3c3.5,0.1,5.3,2.2,6.1,3.2c0.2,0.2,0.3,0.4,0.5,0.6c0.6,0.7,1.2,1.5,2.2,2.3c0.5,0.4,1.7,1.4,3.3,2.3
				c1.8,1,3.5,1.5,5.1,1.5c0,0,0,0,0,0c1.6,0,3.3-0.5,5-1.5c1.6-0.9,2.8-1.9,3.3-2.3c1-0.8,1.6-1.6,2.2-2.3c0.2-0.2,0.4-0.4,0.5-0.6
				c0.8-0.9,2.7-3.1,6.2-3.1c0,0,0,0,0,0c3.5,0,5.6,2.3,6.4,3.2c0.3,0.3,0.5,0.6,0.7,0.9c0.6,0.7,1.2,1.5,2,2.1
				c0.9,0.8,1.9,1.4,3.1,1.9c1.7,0.8,3.6,1.3,5.9,1.7c2.7,0.4,4.4,2.8,4,5.3c-0.5,2.5-3,4.1-5.7,3.7c-3.2-0.5-6.1-1.4-8.5-2.5
				c-2-0.9-3.8-2.1-5.4-3.4c-0.1-0.1-0.1-0.1-0.2-0.2c-1.3-1.1-3.3-1.1-4.6,0c0,0-0.1,0.1-0.1,0.1c-0.7,0.6-2.4,2.1-4.9,3.4
				c-3.3,1.8-6.7,2.8-10.1,2.7c-3.4,0-6.8-1-10.1-2.9c-2.5-1.4-4.2-2.9-4.9-3.5c0,0,0,0,0,0c-1.3-1.1-3.3-1.1-4.6,0
				c-0.1,0-0.1,0.1-0.2,0.1c-0.8,0.7-2.6,2.2-5,3.5C70.2,133.6,66.9,134.5,63.6,134.5C63.6,134.5,63.6,134.5,63.6,134.5z"/>
			<path fill="#FFFFFF" d="M63.6,161.7c-3.3,0-6.7-0.9-10-2.8c-2.5-1.4-4.3-2.9-5-3.5c0,0-0.1-0.1-0.1-0.1c-1.3-1.1-3.3-1.1-4.6,0
				c0,0-0.1,0.1-0.1,0.1c-1.6,1.4-3.4,2.5-5.4,3.5c-2.5,1.1-5.3,2-8.4,2.6c-2.7,0.5-5.2-1.2-5.7-3.6c-0.5-2.5,1.2-4.8,3.9-5.3
				c2.2-0.4,4.2-1,5.8-1.7c1.2-0.6,2.3-1.2,3.2-2c0.7-0.6,1.3-1.3,1.9-2c0.3-0.3,0.6-0.6,0.9-1c0.8-0.8,2.8-3,6.2-3.1
				c3.6-0.1,5.6,2.2,6.4,3c0.2,0.2,0.4,0.5,0.6,0.7c0.6,0.7,1.3,1.5,2.2,2.3c0.5,0.4,1.7,1.5,3.3,2.4c1.8,1,3.4,1.5,4.9,1.5
				c0,0,0,0,0,0c1.5,0,3.1-0.5,4.8-1.4c1.6-0.9,2.8-1.9,3.5-2.5c1-0.8,1.7-1.6,2.3-2.4c0.2-0.2,0.4-0.5,0.6-0.7
				c0.8-0.9,2.8-3.1,6.3-3c3.5,0.1,5.3,2.2,6.1,3.2c0.2,0.2,0.3,0.4,0.5,0.6c0.6,0.7,1.2,1.5,2.2,2.3c0.5,0.4,1.7,1.4,3.3,2.3
				c1.8,1,3.5,1.5,5.1,1.5c0,0,0,0,0,0c1.6,0,3.3-0.5,5-1.5c1.6-0.9,2.8-1.9,3.3-2.3c1-0.8,1.6-1.6,2.2-2.3c0.2-0.2,0.4-0.4,0.5-0.6
				c0.8-0.9,2.7-3.1,6.2-3.1c0,0,0,0,0,0c3.5,0,5.6,2.3,6.4,3.2c0.3,0.3,0.5,0.6,0.7,0.9c0.6,0.7,1.2,1.5,2,2.1
				c0.9,0.8,1.9,1.4,3.1,1.9c1.7,0.8,3.6,1.3,5.9,1.7c2.7,0.4,4.4,2.8,4,5.3c-0.5,2.5-3,4.1-5.7,3.7c-3.2-0.5-6.1-1.4-8.5-2.5
				c-2-0.9-3.8-2.1-5.4-3.4c-0.1-0.1-0.1-0.1-0.2-0.2c-1.3-1.1-3.3-1.1-4.6,0c0,0-0.1,0.1-0.1,0.1c-0.7,0.6-2.4,2.1-4.9,3.4
				c-3.3,1.8-6.7,2.8-10.1,2.7c-3.4,0-6.8-1-10.1-2.9c-2.5-1.4-4.2-2.9-4.9-3.5c0,0,0,0,0,0c-1.3-1.1-3.3-1.1-4.6,0
				c-0.1,0-0.1,0.1-0.2,0.1c-0.8,0.7-2.6,2.2-5,3.5C70.2,160.7,66.9,161.6,63.6,161.7C63.6,161.7,63.6,161.7,63.6,161.7z"/>
		</g>
	</g>
</g>
</svg>
