<?xml version="1.0" encoding="utf-8"?>
<!-- Generator: Adobe Illustrator 23.0.1, SVG Export Plug-In . SVG Version: 6.00 Build 0)  -->
<svg version="1.1" id="Layer_1" xmlns="http://www.w3.org/2000/svg" xmlns:xlink="http://www.w3.org/1999/xlink" x="0px" y="0px"
	 viewBox="0 0 1231.6 120.7" style="enable-background:new 0 0 1231.6 120.7;" xml:space="preserve">
<style type="text/css">
	.st0{fill:#FFFFFF;}
	.st1{fill:#53AACC;}
</style>
<g>
	<path class="st0" d="M38.8,119.1H0V3.9h38.8c9.9,0,18.1,1,24.6,3.1c6.4,2.1,11.4,5.5,15,10.3c3.6,4.8,6,10.5,7.4,16.9
		c1.4,6.5,2,14.9,2,25.3c0,10.4-0.6,19-1.9,25.8c-1.2,6.8-3.6,12.9-7,18.3c-3.4,5.4-8.4,9.3-15,11.7C57.3,117.9,49,119.1,38.8,119.1
		z M63.4,73.4c0.2-3.6,0.3-8.6,0.3-15c0-6.4-0.2-11.5-0.7-15.3c-0.5-3.8-1.5-7.3-3.2-10.5c-1.7-3.2-4.2-5.3-7.5-6.5
		c-3.3-1.2-7.8-1.8-13.5-1.8H23.4v74.6h15.4c8.5,0,14.6-2.1,18.5-6.4C60.6,88.9,62.6,82.5,63.4,73.4z"/>
	<path class="st0" d="M111,119.1V3.9h74.6v20.3h-51.2v26.9h41v20h-41v27.6h51.2v20.3H111z"/>
	<path class="st0" d="M201.7,119.1L227.6,3.9H272l25.9,115.2h-23.4L270,98.3h-40.3l-4.6,20.8H201.7z M245.7,23.2L234,78h31.5
		l-11.7-54.7H245.7z"/>
	<path class="st0" d="M382.3,119.1h-65.6V3.9h23.4v94.6h42.2V119.1z"/>
	<path class="st0" d="M400.6,119.1V3.9h74.6v20.3H424v26.9h41v20h-41v27.6h51.2v20.3H400.6z"/>
	<path class="st0" d="M521.1,80.5v38.6h-23.4V3.9h44.7c27.1,0,40.7,12.7,40.7,38c0,15-5.7,26.1-16.9,33.2l16.4,44.1H557l-13.4-38.6
		H521.1z M555.1,55.4c2.7-3.4,4.1-7.9,4.1-13.4c0-5.5-1.4-9.9-4.3-13.2c-2.9-3.3-7-4.9-12.5-4.9h-21.4v36.6h21.7
		C548.3,60.5,552.4,58.8,555.1,55.4z"/>
	<path class="st0" d="M654.1,119.1V1.9h13v117.3H654.1z"/>
	<path class="st0" d="M697.8,119.1V1.9h24.4l44.9,105.8h3.6V1.9h12.9v117.3h-23.9L714,13.4h-3.2v105.8H697.8z"/>
	<path class="st0" d="M846,11.5c-16.9,0-25.4,6.4-25.4,19.2c0,7.1,1.9,12,5.8,14.7c3.9,2.7,11.8,5.3,23.7,8
		c11.9,2.7,20.4,6.1,25.3,10.3c5,4.2,7.5,11.2,7.5,20.9c0,24.1-12.5,36.1-37.5,36.1c-8.2,0-18.6-1-31-2.9l-6.1-0.8l1.4-10.8
		c15.4,2,27.1,3.1,35.1,3.1c16.7,0,25.1-7.9,25.1-23.6c0-6.3-1.8-10.9-5.5-13.6c-3.7-2.8-10.5-5.1-20.6-7
		c-13.2-2.8-22.6-6.5-28.1-10.9c-5.5-4.5-8.3-11.9-8.3-22.5c0-21,12.6-31.5,37.8-31.5c8.2,0,18.1,0.8,29.7,2.5l5.8,0.8l-1.2,11
		C863.6,12.5,852.5,11.5,846,11.5z"/>
	<path class="st0" d="M949.7,79.7h-29.8v39.5h-13V1.9h42.9c12.8,0,22.2,3.1,28.3,9.3c6.1,6.2,9.2,15.7,9.2,28.5
		C987.1,66.3,974.6,79.7,949.7,79.7z M919.8,68.1h29.7c16.2,0,24.2-9.5,24.2-28.5c0-9-1.9-15.7-5.8-19.9c-3.8-4.2-10-6.4-18.5-6.4
		h-29.7V68.1z"/>
	<path class="st1" d="M1009.9,119.1V1.9h13v117.3H1009.9z"/>
	<path class="st0" d="M1066.6,74.2v44.9h-13V1.9h43.4c12.4,0,21.8,2.9,28,8.6c6.3,5.8,9.4,14.7,9.4,26.9c0,18.1-7.2,29.4-21.5,34.1
		l22.5,47.6H1121l-21.2-44.9H1066.6z M1097.1,62.7c15.9,0,23.9-8.2,23.9-24.7s-8-24.7-24.1-24.7h-30.3v49.3H1097.1z"/>
	<path class="st0" d="M1160.3,119.1V1.9h71.3v11.5h-58.3v40.5h48.1v11.4h-48.1v42.4h58.3v11.5H1160.3z"/>
</g>
</svg>
