<?xml version="1.0" encoding="utf-8"?>
<!-- Generator: Adobe Illustrator 23.0.1, SVG Export Plug-In . SVG Version: 6.00 Build 0)  -->
<svg version="1.1" id="Layer_1" xmlns="http://www.w3.org/2000/svg" xmlns:xlink="http://www.w3.org/1999/xlink" x="0px" y="0px"
	 viewBox="0 0 904.6 392" style="enable-background:new 0 0 904.6 392;" xml:space="preserve">
<style type="text/css">
	.st0{fill:#FC7801;}
	.st1{fill:#FFF4EE;}
	.st2{fill:none;stroke:#959964;stroke-width:0.7622;stroke-miterlimit:10;}
	.st3{fill:#FFF4EE;stroke:#959963;stroke-width:0.7622;stroke-miterlimit:10;}
	.st4{fill:#5E5040;}
</style>
<rect class="st0" width="904.6" height="392"/>
<g>
	<g>
		<path class="st1" d="M211.1,275.7c-0.5,0.8-1.1,1.1-1.9,1.1c-0.6,0-1.4-0.4-2.4-1.1c-0.9-0.7-2.2-1.4-3.8-2.4
			c-1.6-0.8-3.6-1.7-5.9-2.4c-2.4-0.7-5.2-1.1-8.5-1.1c-3,0-5.8,0.5-8.2,1.3c-2.5,0.8-4.6,2.1-6.4,3.5c-1.8,1.4-3.1,3.1-4,5.1
			c-0.9,1.9-1.4,4-1.4,6.1c0,2.6,0.7,4.8,2,6.6c1.4,1.8,3.1,3.2,5.3,4.4c2.1,1.2,4.6,2.3,7.4,3.2c2.8,0.9,5.6,1.8,8.5,2.7
			s5.7,1.9,8.5,3c2.8,1.1,5.3,2.4,7.4,4c2.1,1.6,3.9,3.6,5.3,5.9c1.4,2.4,2,5.2,2,8.5c0,3.7-0.6,7-1.9,10.1
			c-1.3,3.1-3.2,5.9-5.6,8.2c-2.5,2.3-5.6,4.1-9.1,5.4c-3.7,1.4-7.8,2-12.5,2c-5.9,0-10.9-0.9-15.2-2.8c-4.3-1.9-8.1-4.3-11.4-7.3
			l1.8-2.8c0.3-0.5,0.6-0.8,1-1c0.4-0.2,0.8-0.3,1.4-0.3c0.8,0,1.6,0.5,2.7,1.4c1.1,0.9,2.4,1.8,4.1,2.9c1.8,1.1,3.9,2,6.4,2.9
			s5.7,1.4,9.5,1.4c3.5,0,6.6-0.5,9.3-1.4c2.7-1,5-2.3,6.7-4s3.1-3.7,4-5.9s1.4-4.6,1.4-7.2c0-2.8-0.7-5.1-2-6.9
			c-1.4-1.8-3.1-3.4-5.3-4.7c-2.2-1.3-4.6-2.4-7.4-3.3s-5.6-1.8-8.5-2.7c-2.9-0.9-5.7-1.9-8.5-2.9c-2.7-1.1-5.3-2.4-7.4-4
			c-2.2-1.6-4-3.6-5.3-5.9c-1.4-2.3-2-5.2-2-8.7c0-3,0.6-5.8,1.9-8.5c1.3-2.7,3.1-5.1,5.5-7.2c2.4-2.1,5.3-3.7,8.7-5
			s7.2-1.8,11.5-1.8c5.1,0,9.6,0.8,13.6,2.2c4,1.4,7.5,3.7,10.7,6.7L211.1,275.7z"/>
		<path class="st2" d="M211.1,275.7c-0.5,0.8-1.1,1.1-1.9,1.1c-0.6,0-1.4-0.4-2.4-1.1c-0.9-0.7-2.2-1.4-3.8-2.4
			c-1.6-0.8-3.6-1.7-5.9-2.4c-2.4-0.7-5.2-1.1-8.5-1.1c-3,0-5.8,0.5-8.2,1.3c-2.5,0.8-4.6,2.1-6.4,3.5c-1.8,1.4-3.1,3.1-4,5.1
			c-0.9,1.9-1.4,4-1.4,6.1c0,2.6,0.7,4.8,2,6.6c1.4,1.8,3.1,3.2,5.3,4.4c2.1,1.2,4.6,2.3,7.4,3.2c2.8,0.9,5.6,1.8,8.5,2.7
			s5.7,1.9,8.5,3c2.8,1.1,5.3,2.4,7.4,4c2.1,1.6,3.9,3.6,5.3,5.9c1.4,2.4,2,5.2,2,8.5c0,3.7-0.6,7-1.9,10.1
			c-1.3,3.1-3.2,5.9-5.6,8.2c-2.5,2.3-5.6,4.1-9.1,5.4c-3.7,1.4-7.8,2-12.5,2c-5.9,0-10.9-0.9-15.2-2.8c-4.3-1.9-8.1-4.3-11.4-7.3
			l1.8-2.8c0.3-0.5,0.6-0.8,1-1c0.4-0.2,0.8-0.3,1.4-0.3c0.8,0,1.6,0.5,2.7,1.4c1.1,0.9,2.4,1.8,4.1,2.9c1.8,1.1,3.9,2,6.4,2.9
			s5.7,1.4,9.5,1.4c3.5,0,6.6-0.5,9.3-1.4c2.7-1,5-2.3,6.7-4s3.1-3.7,4-5.9s1.4-4.6,1.4-7.2c0-2.8-0.7-5.1-2-6.9
			c-1.4-1.8-3.1-3.4-5.3-4.7c-2.2-1.3-4.6-2.4-7.4-3.3s-5.6-1.8-8.5-2.7c-2.9-0.9-5.7-1.9-8.5-2.9c-2.7-1.1-5.3-2.4-7.4-4
			c-2.2-1.6-4-3.6-5.3-5.9c-1.4-2.3-2-5.2-2-8.7c0-3,0.6-5.8,1.9-8.5c1.3-2.7,3.1-5.1,5.5-7.2c2.4-2.1,5.3-3.7,8.7-5
			s7.2-1.8,11.5-1.8c5.1,0,9.6,0.8,13.6,2.2c4,1.4,7.5,3.7,10.7,6.7L211.1,275.7z"/>
	</g>
</g>
<g>
	<g>
		<path class="st1" d="M243.3,303.7v1.6c0,6.3,0.8,11.7,2.2,16.5c1.4,4.7,3.5,8.8,6.2,12c2.7,3.2,5.9,5.6,9.8,7.2
			c3.8,1.6,8.1,2.4,12.7,2.4c4.2,0,7.9-0.5,10.9-1.4s5.6-2,7.8-3.1c2.1-1.1,3.7-2.2,5-3.1c1.2-0.9,2.1-1.4,2.7-1.4
			c0.8,0,1.3,0.3,1.7,0.8l2.2,2.7c-1.4,1.7-3.1,3.3-5.3,4.7s-4.6,2.7-7.4,3.7c-2.7,1.1-5.6,1.8-8.7,2.4c-3.1,0.6-6.3,0.9-9.4,0.9
			c-5.7,0-10.9-1-15.6-3c-4.7-2-8.7-4.9-12-8.7s-5.9-8.5-7.8-13.9s-2.7-11.8-2.7-18.9c0-5.9,0.8-11.5,2.6-16.5
			c1.7-5,4.2-9.5,7.4-13.1s7.2-6.6,11.8-8.6c4.6-2.1,10-3.1,15.9-3.1c4.7,0,9.1,0.8,13.1,2.4c4,1.6,7.5,4,10.5,7.1
			c3,3.1,5.3,6.9,7,11.4c1.7,4.5,2.6,9.8,2.6,15.6c0,1.2-0.2,2.1-0.5,2.5c-0.3,0.5-0.9,0.7-1.7,0.7L243.3,303.7L243.3,303.7z
			 M298.9,298.6c0-4.5-0.6-8.5-1.9-12c-1.3-3.6-3-6.6-5.3-9s-5-4.3-8.2-5.6s-6.6-2-10.4-2c-4.3,0-8.2,0.7-11.6,2
			c-3.4,1.4-6.3,3.3-8.8,5.8s-4.5,5.6-6,9.1c-1.5,3.5-2.5,7.5-3,11.8H298.9z"/>
		<path class="st2" d="M243.3,303.7v1.6c0,6.3,0.8,11.7,2.2,16.5c1.4,4.7,3.5,8.8,6.2,12c2.7,3.2,5.9,5.6,9.8,7.2
			c3.8,1.6,8.1,2.4,12.7,2.4c4.2,0,7.9-0.5,10.9-1.4s5.6-2,7.8-3.1c2.1-1.1,3.7-2.2,5-3.1c1.2-0.9,2.1-1.4,2.7-1.4
			c0.8,0,1.3,0.3,1.7,0.8l2.2,2.7c-1.4,1.7-3.1,3.3-5.3,4.7s-4.6,2.7-7.4,3.7c-2.7,1.1-5.6,1.8-8.7,2.4c-3.1,0.6-6.3,0.9-9.4,0.9
			c-5.7,0-10.9-1-15.6-3c-4.7-2-8.7-4.9-12-8.7s-5.9-8.5-7.8-13.9s-2.7-11.8-2.7-18.9c0-5.9,0.8-11.5,2.6-16.5
			c1.7-5,4.2-9.5,7.4-13.1s7.2-6.6,11.8-8.6c4.6-2.1,10-3.1,15.9-3.1c4.7,0,9.1,0.8,13.1,2.4c4,1.6,7.5,4,10.5,7.1
			c3,3.1,5.3,6.9,7,11.4c1.7,4.5,2.6,9.8,2.6,15.6c0,1.2-0.2,2.1-0.5,2.5c-0.3,0.5-0.9,0.7-1.7,0.7L243.3,303.7L243.3,303.7z
			 M298.9,298.6c0-4.5-0.6-8.5-1.9-12c-1.3-3.6-3-6.6-5.3-9s-5-4.3-8.2-5.6s-6.6-2-10.4-2c-4.3,0-8.2,0.7-11.6,2
			c-3.4,1.4-6.3,3.3-8.8,5.8s-4.5,5.6-6,9.1c-1.5,3.5-2.5,7.5-3,11.8H298.9z"/>
	</g>
</g>
<g>
	<g>
		<path class="st1" d="M339.3,285.4c1.3-3.4,2.7-6.4,4.4-9.1c1.7-2.7,3.6-4.9,5.7-6.8c2.1-1.8,4.6-3.3,7.2-4.3s5.6-1.4,8.8-1.4
			c1.8,0,3.4,0.2,5.1,0.5c1.7,0.3,3.1,0.8,4.4,1.6l-0.7,5.6c-0.3,0.9-0.8,1.4-1.6,1.4c-0.7,0-1.7-0.2-3-0.6s-3.2-0.6-5.4-0.6
			c-3.3,0-6.1,0.5-8.6,1.4c-2.5,1-4.7,2.4-6.7,4.4c-2,2-3.7,4.3-5.2,7.2s-2.8,6.2-4,9.9v54h-8.1v-83.3h4.3c0.9,0,1.6,0.2,2,0.6
			s0.6,1.1,0.8,2L339.3,285.4z"/>
		<path class="st2" d="M339.3,285.4c1.3-3.4,2.7-6.4,4.4-9.1c1.7-2.7,3.6-4.9,5.7-6.8c2.1-1.8,4.6-3.3,7.2-4.3s5.6-1.4,8.8-1.4
			c1.8,0,3.4,0.2,5.1,0.5c1.7,0.3,3.1,0.8,4.4,1.6l-0.7,5.6c-0.3,0.9-0.8,1.4-1.6,1.4c-0.7,0-1.7-0.2-3-0.6s-3.2-0.6-5.4-0.6
			c-3.3,0-6.1,0.5-8.6,1.4c-2.5,1-4.7,2.4-6.7,4.4c-2,2-3.7,4.3-5.2,7.2s-2.8,6.2-4,9.9v54h-8.1v-83.3h4.3c0.9,0,1.6,0.2,2,0.6
			s0.6,1.1,0.8,2L339.3,285.4z"/>
	</g>
</g>
<g>
	<g>
		<path class="st1" d="M461.8,265.3l-35.2,83.4h-7l-35.2-83.4h6.3c0.8,0,1.4,0.2,1.9,0.6c0.5,0.4,0.8,0.9,1,1.4l27.6,65.8
			c0.8,2.4,1.5,4.9,2,7.3c0.5-2.4,1.2-4.8,2.1-7.3l27.7-65.8c0.3-0.6,0.7-1.1,1.1-1.4c0.5-0.4,1.1-0.5,1.8-0.5L461.8,265.3
			L461.8,265.3z"/>
		<path class="st2" d="M461.8,265.3l-35.2,83.4h-7l-35.2-83.4h6.3c0.8,0,1.4,0.2,1.9,0.6c0.5,0.4,0.8,0.9,1,1.4l27.6,65.8
			c0.8,2.4,1.5,4.9,2,7.3c0.5-2.4,1.2-4.8,2.1-7.3l27.7-65.8c0.3-0.6,0.7-1.1,1.1-1.4c0.5-0.4,1.1-0.5,1.8-0.5L461.8,265.3
			L461.8,265.3z"/>
	</g>
</g>
<g>
	<g>
		<path class="st1" d="M491.7,265.3v83.4h-8v-83.4H491.7z"/>
		<path class="st2" d="M491.7,265.3v83.4h-8v-83.4H491.7z"/>
	</g>
</g>
<g>
	<g>
		<path class="st1" d="M580,276.5c-0.3,0.3-0.5,0.5-0.8,0.7c-0.2,0.2-0.6,0.3-1.1,0.3c-0.5,0-1.3-0.4-2.3-1.1
			c-0.9-0.8-2.2-1.6-3.9-2.4c-1.6-0.9-3.7-1.8-6.1-2.4c-2.4-0.8-5.4-1.1-8.8-1.1c-4.8,0-9.1,0.8-12.8,2.6c-3.7,1.7-6.9,4.1-9.5,7.3
			c-2.6,3.2-4.5,7-5.8,11.6c-1.3,4.5-2,9.6-2,15.2c0,5.9,0.7,11.1,2.1,15.6c1.4,4.5,3.3,8.3,5.8,11.4c2.5,3.1,5.6,5.5,9.1,7.1
			c3.6,1.6,7.5,2.4,11.9,2.4c4,0,7.4-0.5,10.1-1.4c2.7-0.9,5-2,6.7-3.1c1.8-1.1,3.1-2.1,4.1-3.1c1-0.9,1.8-1.4,2.5-1.4
			s1.2,0.3,1.7,0.8l2.1,2.7c-1.3,1.7-2.9,3.3-4.9,4.7c-2,1.4-4.2,2.7-6.6,3.7c-2.4,1.1-5.1,1.9-8,2.4c-2.9,0.6-5.9,0.9-9,0.9
			c-5.3,0-10.1-1-14.6-2.9s-8.2-4.7-11.3-8.4s-5.6-8.2-7.4-13.5c-1.8-5.3-2.7-11.4-2.7-18.1c0-6.4,0.8-12.2,2.5-17.5
			c1.7-5.3,4.1-9.8,7.4-13.6c3.3-3.8,7.2-6.8,11.9-8.8c4.6-2.1,10-3.1,16.1-3.1c5.4,0,10.2,0.8,14.4,2.6s7.9,4.1,11,7L580,276.5z"/>
		<path class="st2" d="M580,276.5c-0.3,0.3-0.5,0.5-0.8,0.7c-0.2,0.2-0.6,0.3-1.1,0.3c-0.5,0-1.3-0.4-2.3-1.1
			c-0.9-0.8-2.2-1.6-3.9-2.4c-1.6-0.9-3.7-1.8-6.1-2.4c-2.4-0.8-5.4-1.1-8.8-1.1c-4.8,0-9.1,0.8-12.8,2.6c-3.7,1.7-6.9,4.1-9.5,7.3
			c-2.6,3.2-4.5,7-5.8,11.6c-1.3,4.5-2,9.6-2,15.2c0,5.9,0.7,11.1,2.1,15.6c1.4,4.5,3.3,8.3,5.8,11.4c2.5,3.1,5.6,5.5,9.1,7.1
			c3.6,1.6,7.5,2.4,11.9,2.4c4,0,7.4-0.5,10.1-1.4c2.7-0.9,5-2,6.7-3.1c1.8-1.1,3.1-2.1,4.1-3.1c1-0.9,1.8-1.4,2.5-1.4
			s1.2,0.3,1.7,0.8l2.1,2.7c-1.3,1.7-2.9,3.3-4.9,4.7c-2,1.4-4.2,2.7-6.6,3.7c-2.4,1.1-5.1,1.9-8,2.4c-2.9,0.6-5.9,0.9-9,0.9
			c-5.3,0-10.1-1-14.6-2.9s-8.2-4.7-11.3-8.4s-5.6-8.2-7.4-13.5c-1.8-5.3-2.7-11.4-2.7-18.1c0-6.4,0.8-12.2,2.5-17.5
			c1.7-5.3,4.1-9.8,7.4-13.6c3.3-3.8,7.2-6.8,11.9-8.8c4.6-2.1,10-3.1,16.1-3.1c5.4,0,10.2,0.8,14.4,2.6s7.9,4.1,11,7L580,276.5z"/>
	</g>
</g>
<g>
	<g>
		<g>
			<path class="st0" d="M608.1,303.7v1.6c0,6.3,0.8,11.7,2.2,16.5c1.4,4.7,3.5,8.8,6.2,12c2.7,3.2,5.9,5.6,9.8,7.2
				c3.8,1.6,8.1,2.4,12.7,2.4c4.2,0,7.9-0.5,10.9-1.4s5.6-2,7.8-3.1c2.1-1.1,3.7-2.2,5-3.1c1.2-0.9,2.1-1.4,2.7-1.4
				c0.8,0,1.3,0.3,1.7,0.8l2.2,2.7c-1.4,1.7-3.1,3.3-5.3,4.7s-4.6,2.7-7.4,3.7c-2.7,1.1-5.6,1.8-8.7,2.4c-3.1,0.6-6.3,0.9-9.4,0.9
				c-5.7,0-10.9-1-15.6-3c-4.7-2-8.7-4.9-12-8.7s-5.9-8.5-7.8-13.9s-2.7-11.8-2.7-18.9c0-5.9,0.8-11.5,2.6-16.5
				c1.7-5,4.2-9.5,7.4-13.1s7.2-6.6,11.8-8.6c4.6-2.1,10-3.1,15.9-3.1c4.7,0,9.1,0.8,13.1,2.4c4,1.6,7.5,4,10.5,7.1
				c3,3.1,5.3,6.9,7,11.4c1.7,4.5,2.6,9.8,2.6,15.6c0,1.2-0.2,2.1-0.5,2.5c-0.3,0.5-0.9,0.7-1.7,0.7L608.1,303.7L608.1,303.7z
				 M663.8,298.6c0-4.5-0.6-8.5-1.9-12c-1.2-3.6-3-6.6-5.3-9c-2.3-2.4-5-4.3-8.2-5.6c-3.1-1.3-6.6-2-10.4-2c-4.3,0-8.2,0.7-11.6,2
				c-3.4,1.4-6.3,3.3-8.8,5.8c-2.5,2.5-4.5,5.6-6,9.1c-1.5,3.5-2.5,7.5-3,11.8H663.8z"/>
			<path class="st0" d="M608.1,303.7v1.6c0,6.3,0.8,11.7,2.2,16.5c1.4,4.7,3.5,8.8,6.2,12c2.7,3.2,5.9,5.6,9.8,7.2
				c3.8,1.6,8.1,2.4,12.7,2.4c4.2,0,7.9-0.5,10.9-1.4s5.6-2,7.8-3.1c2.1-1.1,3.7-2.2,5-3.1c1.2-0.9,2.1-1.4,2.7-1.4
				c0.8,0,1.3,0.3,1.7,0.8l2.2,2.7c-1.4,1.7-3.1,3.3-5.3,4.7s-4.6,2.7-7.4,3.7c-2.7,1.1-5.6,1.8-8.7,2.4c-3.1,0.6-6.3,0.9-9.4,0.9
				c-5.7,0-10.9-1-15.6-3c-4.7-2-8.7-4.9-12-8.7s-5.9-8.5-7.8-13.9s-2.7-11.8-2.7-18.9c0-5.9,0.8-11.5,2.6-16.5
				c1.7-5,4.2-9.5,7.4-13.1s7.2-6.6,11.8-8.6c4.6-2.1,10-3.1,15.9-3.1c4.7,0,9.1,0.8,13.1,2.4c4,1.6,7.5,4,10.5,7.1
				c3,3.1,5.3,6.9,7,11.4c1.7,4.5,2.6,9.8,2.6,15.6c0,1.2-0.2,2.1-0.5,2.5c-0.3,0.5-0.9,0.7-1.7,0.7L608.1,303.7L608.1,303.7z
				 M663.8,298.6c0-4.5-0.6-8.5-1.9-12c-1.2-3.6-3-6.6-5.3-9c-2.3-2.4-5-4.3-8.2-5.6c-3.1-1.3-6.6-2-10.4-2c-4.3,0-8.2,0.7-11.6,2
				c-3.4,1.4-6.3,3.3-8.8,5.8c-2.5,2.5-4.5,5.6-6,9.1c-1.5,3.5-2.5,7.5-3,11.8H663.8z"/>
		</g>
	</g>
	<g>
		<g>
			<path class="st1" d="M608.1,303.7v1.6c0,6.3,0.8,11.7,2.2,16.5c1.4,4.7,3.5,8.8,6.2,12c2.7,3.2,5.9,5.6,9.8,7.2
				c3.8,1.6,8.1,2.4,12.7,2.4c4.2,0,7.9-0.5,10.9-1.4s5.6-2,7.8-3.1c2.1-1.1,3.7-2.2,5-3.1c1.2-0.9,2.1-1.4,2.7-1.4
				c0.8,0,1.3,0.3,1.7,0.8l2.2,2.7c-1.4,1.7-3.1,3.3-5.3,4.7s-4.6,2.7-7.4,3.7c-2.7,1.1-5.6,1.8-8.7,2.4c-3.1,0.6-6.3,0.9-9.4,0.9
				c-5.7,0-10.9-1-15.6-3c-4.7-2-8.7-4.9-12-8.7s-5.9-8.5-7.8-13.9s-2.7-11.8-2.7-18.9c0-5.9,0.8-11.5,2.6-16.5
				c1.7-5,4.2-9.5,7.4-13.1s7.2-6.6,11.8-8.6c4.6-2.1,10-3.1,15.9-3.1c4.7,0,9.1,0.8,13.1,2.4c4,1.6,7.5,4,10.5,7.1
				c3,3.1,5.3,6.9,7,11.4c1.7,4.5,2.6,9.8,2.6,15.6c0,1.2-0.2,2.1-0.5,2.5c-0.3,0.5-0.9,0.7-1.7,0.7L608.1,303.7L608.1,303.7z
				 M663.8,298.6c0-4.5-0.6-8.5-1.9-12c-1.2-3.6-3-6.6-5.3-9c-2.3-2.4-5-4.3-8.2-5.6c-3.1-1.3-6.6-2-10.4-2c-4.3,0-8.2,0.7-11.6,2
				c-3.4,1.4-6.3,3.3-8.8,5.8c-2.5,2.5-4.5,5.6-6,9.1c-1.5,3.5-2.5,7.5-3,11.8H663.8z"/>
			<path class="st2" d="M608.1,303.7v1.6c0,6.3,0.8,11.7,2.2,16.5c1.4,4.7,3.5,8.8,6.2,12c2.7,3.2,5.9,5.6,9.8,7.2
				c3.8,1.6,8.1,2.4,12.7,2.4c4.2,0,7.9-0.5,10.9-1.4s5.6-2,7.8-3.1c2.1-1.1,3.7-2.2,5-3.1c1.2-0.9,2.1-1.4,2.7-1.4
				c0.8,0,1.3,0.3,1.7,0.8l2.2,2.7c-1.4,1.7-3.1,3.3-5.3,4.7s-4.6,2.7-7.4,3.7c-2.7,1.1-5.6,1.8-8.7,2.4c-3.1,0.6-6.3,0.9-9.4,0.9
				c-5.7,0-10.9-1-15.6-3c-4.7-2-8.7-4.9-12-8.7s-5.9-8.5-7.8-13.9s-2.7-11.8-2.7-18.9c0-5.9,0.8-11.5,2.6-16.5
				c1.7-5,4.2-9.5,7.4-13.1s7.2-6.6,11.8-8.6c4.6-2.1,10-3.1,15.9-3.1c4.7,0,9.1,0.8,13.1,2.4c4,1.6,7.5,4,10.5,7.1
				c3,3.1,5.3,6.9,7,11.4c1.7,4.5,2.6,9.8,2.6,15.6c0,1.2-0.2,2.1-0.5,2.5c-0.3,0.5-0.9,0.7-1.7,0.7L608.1,303.7L608.1,303.7z
				 M663.8,298.6c0-4.5-0.6-8.5-1.9-12c-1.2-3.6-3-6.6-5.3-9c-2.3-2.4-5-4.3-8.2-5.6c-3.1-1.3-6.6-2-10.4-2c-4.3,0-8.2,0.7-11.6,2
				c-3.4,1.4-6.3,3.3-8.8,5.8c-2.5,2.5-4.5,5.6-6,9.1c-1.5,3.5-2.5,7.5-3,11.8H663.8z"/>
		</g>
	</g>
</g>
<g>
	<g>
		<path class="st1" d="M742.4,275.7c-0.5,0.8-1.1,1.1-1.9,1.1c-0.6,0-1.4-0.4-2.4-1.1c-0.9-0.7-2.2-1.4-3.8-2.4
			c-1.6-0.8-3.6-1.7-5.9-2.4c-2.4-0.7-5.2-1.1-8.5-1.1c-3,0-5.8,0.5-8.2,1.3c-2.5,0.8-4.6,2.1-6.4,3.5c-1.8,1.4-3.1,3.1-4,5.1
			c-0.9,1.9-1.4,4-1.4,6.1c0,2.6,0.7,4.8,2,6.6c1.4,1.8,3.1,3.2,5.3,4.4c2.1,1.2,4.6,2.3,7.4,3.2c2.8,0.9,5.6,1.8,8.5,2.7
			c2.9,0.9,5.7,1.9,8.5,3c2.8,1.1,5.3,2.4,7.4,4c2.1,1.6,3.9,3.6,5.3,5.9s2,5.2,2,8.5c0,3.7-0.6,7-1.9,10.1
			c-1.3,3.1-3.2,5.9-5.6,8.2c-2.5,2.3-5.6,4.1-9.1,5.4c-3.7,1.4-7.8,2-12.5,2c-5.9,0-10.9-0.9-15.2-2.8c-4.3-1.9-8.1-4.3-11.4-7.3
			l1.8-2.8c0.3-0.5,0.6-0.8,1-1c0.4-0.2,0.8-0.3,1.4-0.3c0.8,0,1.6,0.5,2.7,1.4c1.1,0.9,2.4,1.8,4.1,2.9c1.8,1.1,3.9,2,6.4,2.9
			c2.5,0.9,5.7,1.4,9.5,1.4c3.5,0,6.6-0.5,9.3-1.4c2.7-1,5-2.3,6.7-4c1.8-1.7,3.1-3.7,4-5.9c0.9-2.3,1.4-4.6,1.4-7.2
			c0-2.8-0.7-5.1-2-6.9c-1.3-1.8-3.1-3.4-5.3-4.7c-2.2-1.3-4.6-2.4-7.4-3.3c-2.7-0.9-5.6-1.8-8.5-2.7s-5.7-1.9-8.5-2.9
			c-2.7-1.1-5.3-2.4-7.4-4c-2.2-1.6-4-3.6-5.3-5.9c-1.4-2.3-2-5.2-2-8.7c0-3,0.6-5.8,1.9-8.5c1.3-2.7,3.1-5.1,5.5-7.2
			c2.4-2.1,5.3-3.7,8.7-5s7.2-1.8,11.5-1.8c5.1,0,9.6,0.8,13.6,2.2c4,1.4,7.5,3.7,10.7,6.7L742.4,275.7z"/>
		<path class="st2" d="M742.4,275.7c-0.5,0.8-1.1,1.1-1.9,1.1c-0.6,0-1.4-0.4-2.4-1.1c-0.9-0.7-2.2-1.4-3.8-2.4
			c-1.6-0.8-3.6-1.7-5.9-2.4c-2.4-0.7-5.2-1.1-8.5-1.1c-3,0-5.8,0.5-8.2,1.3c-2.5,0.8-4.6,2.1-6.4,3.5c-1.8,1.4-3.1,3.1-4,5.1
			c-0.9,1.9-1.4,4-1.4,6.1c0,2.6,0.7,4.8,2,6.6c1.4,1.8,3.1,3.2,5.3,4.4c2.1,1.2,4.6,2.3,7.4,3.2c2.8,0.9,5.6,1.8,8.5,2.7
			c2.9,0.9,5.7,1.9,8.5,3c2.8,1.1,5.3,2.4,7.4,4c2.1,1.6,3.9,3.6,5.3,5.9s2,5.2,2,8.5c0,3.7-0.6,7-1.9,10.1
			c-1.3,3.1-3.2,5.9-5.6,8.2c-2.5,2.3-5.6,4.1-9.1,5.4c-3.7,1.4-7.8,2-12.5,2c-5.9,0-10.9-0.9-15.2-2.8c-4.3-1.9-8.1-4.3-11.4-7.3
			l1.8-2.8c0.3-0.5,0.6-0.8,1-1c0.4-0.2,0.8-0.3,1.4-0.3c0.8,0,1.6,0.5,2.7,1.4c1.1,0.9,2.4,1.8,4.1,2.9c1.8,1.1,3.9,2,6.4,2.9
			c2.5,0.9,5.7,1.4,9.5,1.4c3.5,0,6.6-0.5,9.3-1.4c2.7-1,5-2.3,6.7-4c1.8-1.7,3.1-3.7,4-5.9c0.9-2.3,1.4-4.6,1.4-7.2
			c0-2.8-0.7-5.1-2-6.9c-1.3-1.8-3.1-3.4-5.3-4.7c-2.2-1.3-4.6-2.4-7.4-3.3c-2.7-0.9-5.6-1.8-8.5-2.7s-5.7-1.9-8.5-2.9
			c-2.7-1.1-5.3-2.4-7.4-4c-2.2-1.6-4-3.6-5.3-5.9c-1.4-2.3-2-5.2-2-8.7c0-3,0.6-5.8,1.9-8.5c1.3-2.7,3.1-5.1,5.5-7.2
			c2.4-2.1,5.3-3.7,8.7-5s7.2-1.8,11.5-1.8c5.1,0,9.6,0.8,13.6,2.2c4,1.4,7.5,3.7,10.7,6.7L742.4,275.7z"/>
	</g>
</g>
<g>
	<g>
		<g>
			<path class="st3" d="M292.3,49.2v168.5h-25v-75.9h-88v75.9h-25.2V49.2h25.2v74.4h87.9V49.2H292.3z"/>
			<path class="st3" d="M440.8,181.6c1.4,0,2.6,0.5,3.7,1.7l9.8,10.8c-6.9,8.2-15.2,14.4-25.2,18.9c-9.9,4.5-21.8,6.7-35.7,6.7
				c-12.2,0-23.2-2.1-33.2-6.3c-9.9-4.2-18.4-10.1-25.4-17.8c-7-7.6-12.4-16.7-16.2-27.2c-3.8-10.6-5.7-22.2-5.7-34.8s2-24.3,6-34.8
				c4-10.6,9.7-19.7,17-27.2c7.2-7.6,16-13.5,26.1-17.8c10.1-4.2,21.3-6.3,33.6-6.3c12,0,22.6,2,31.9,5.9S445,62.4,452,68.9
				l-8.2,11.6c-0.5,0.8-1.2,1.6-2.1,2.1c-0.8,0.5-1.9,0.8-3.2,0.8c-1.5,0-3.2-0.8-5.3-2.2c-2-1.4-4.6-3.1-7.9-5
				c-3.3-1.8-7.2-3.5-12-5c-4.8-1.4-10.7-2.2-17.8-2.2c-8.4,0-16,1.4-23,4.4c-6.9,3-13,7.2-18,12.7c-5,5.5-9,12.3-11.7,20.3
				c-2.7,8-4.2,17.1-4.2,27.2c0,10.3,1.4,19.4,4.3,27.4s6.9,14.8,12,20.3c5.1,5.6,11.1,9.8,18,12.7c6.9,2.9,14.3,4.3,22.3,4.3
				c4.9,0,9.2-0.3,13.1-0.9c3.9-0.6,7.5-1.4,10.7-2.7c3.3-1.1,6.3-2.7,9.2-4.5s5.7-4,8.5-6.6c0.6-0.5,1.3-1,2-1.4
				C439.3,181.7,440.1,181.6,440.8,181.6z"/>
			<path class="st3" d="M565.3,196.7v21h-96.5V49.2h25v147.6H565.3z"/>
		</g>
	</g>
</g>
<g>
	<g>
		<g>
			<path class="st4" d="M558.2,166.6c-4.7,0-8.4-1.3-11-4c-2.6-2.7-3.8-6.5-3.8-11.5v-36.8h-7.2c-0.6,0-1.1-0.2-1.6-0.5
				c-0.5-0.4-0.7-1-0.7-1.8v-4.2l9.8-1.2l2.4-18.6c0.2-0.6,0.4-1.1,0.8-1.4c0.4-0.4,1-0.5,1.6-0.5h5.3v20.7h17.5v7.5h-17.5v36.1
				c0,2.5,0.6,4.4,1.8,5.6c1.2,1.2,2.8,1.8,4.7,1.8c1.1,0,2.1-0.2,2.9-0.5c0.8-0.3,1.5-0.6,2.1-1c0.6-0.4,1.1-0.7,1.5-1
				c0.4-0.3,0.8-0.5,1.1-0.5c0.5,0,1.1,0.3,1.4,1l3.1,5c-1.8,1.7-4,3-6.6,4C563.5,166.2,560.9,166.6,558.2,166.6z"/>
			<path class="st4" d="M629.7,157.2c-1.3,1.6-2.9,3-4.7,4.1c-1.8,1.1-3.8,2.1-5.9,2.9s-4.3,1.3-6.5,1.7c-2.2,0.4-4.4,0.5-6.6,0.5
				c-4.2,0-8-0.7-11.5-2.1c-3.5-1.4-6.6-3.4-9.1-6.2c-2.6-2.7-4.6-6.1-5.9-10.1c-1.4-4-2.1-8.6-2.1-13.8c0-4.2,0.6-8.2,1.9-11.7
				c1.3-3.7,3.1-6.8,5.6-9.5c2.4-2.7,5.3-4.8,8.8-6.3c3.5-1.5,7.4-2.3,11.7-2.3c3.6,0,6.9,0.6,10,1.8c3,1.2,5.7,3,8,5.3
				c2.2,2.3,4,5.1,5.3,8.5c1.3,3.4,1.9,7.2,1.9,11.4c0,1.7-0.2,2.7-0.5,3.4c-0.4,0.5-1.1,0.8-2.1,0.8h-40.2c0.2,3.8,0.6,7.1,1.6,9.9
				c0.9,2.8,2.2,5.2,3.9,7c1.7,1.9,3.7,3.3,5.9,4.2c2.3,0.9,4.9,1.4,7.7,1.4c2.7,0,5-0.3,6.9-0.9c1.9-0.6,3.6-1.3,5-2
				c1.4-0.7,2.5-1.4,3.5-2c0.9-0.6,1.8-0.9,2.4-0.9c0.8,0,1.5,0.3,2.1,1L629.7,157.2z M621.2,129c0-2.4-0.4-4.7-1.1-6.8
				c-0.7-2.1-1.7-3.8-3-5.3c-1.3-1.5-3-2.7-4.9-3.4c-1.9-0.8-4-1.2-6.5-1.2c-5.1,0-9.1,1.4-12,4.4c-3,3-4.8,7-5.5,12.3H621.2z"/>
			<path class="st4" d="M684.4,116.2c-0.3,0.5-0.6,0.8-0.9,1c-0.3,0.2-0.8,0.4-1.3,0.4c-0.6,0-1.2-0.2-2-0.8
				c-0.7-0.5-1.6-1.1-2.7-1.6c-1.1-0.6-2.4-1.1-3.9-1.6c-1.5-0.5-3.4-0.8-5.6-0.8c-3,0-5.6,0.5-7.9,1.6c-2.3,1.1-4.1,2.6-5.6,4.6
				c-1.5,2-2.7,4.3-3.4,7.2c-0.8,2.8-1.1,5.9-1.1,9.5c0,3.7,0.4,6.9,1.2,9.8c0.8,2.8,2,5.2,3.5,7.2c1.5,1.9,3.4,3.4,5.6,4.4
				c2.1,1,4.6,1.5,7.3,1.5c2.6,0,4.7-0.3,6.3-0.9c1.7-0.6,3-1.3,4.1-2.1c1.1-0.8,2-1.4,2.7-2.1c0.8-0.6,1.4-0.9,2.1-0.9
				c0.8,0,1.5,0.3,2.1,1l3,3.9c-1.3,1.6-2.8,3-4.4,4.2c-1.7,1.1-3.4,2.1-5.4,2.9c-1.9,0.8-4,1.4-6,1.7c-2.1,0.4-4.3,0.5-6.4,0.5
				c-3.7,0-7.2-0.7-10.5-2.1c-3.2-1.4-6-3.4-8.4-6c-2.4-2.7-4.3-5.9-5.6-9.8c-1.4-3.8-2.1-8.2-2.1-13.1c0-4.5,0.6-8.6,1.9-12.4
				c1.2-3.8,3-7.1,5.5-9.8c2.4-2.7,5.3-4.9,8.8-6.5c3.5-1.5,7.5-2.3,12.1-2.3c4.3,0,8,0.7,11.2,2.1c3.2,1.4,6.1,3.3,8.6,5.8
				L684.4,116.2z"/>
			<path class="st4" d="M708.7,113.5c2.6-2.7,5.4-4.9,8.5-6.6c3.1-1.6,6.7-2.4,10.8-2.4c3.3,0,6.2,0.5,8.7,1.6
				c2.5,1.1,4.6,2.7,6.3,4.6c1.7,2,3,4.4,3.8,7.2s1.3,5.9,1.3,9.3v38.3h-10.7v-38.3c0-4.6-1.1-8.1-3.1-10.6
				c-2.1-2.5-5.3-3.8-9.5-3.8c-3.1,0-6,0.8-8.8,2.3c-2.7,1.5-5.3,3.6-7.5,6.1v44.4h-10.7V78.1h10.7L708.7,113.5L708.7,113.5z"/>
		</g>
	</g>
</g>
</svg>
