<?xml version="1.0" encoding="UTF-8"?>
<svg width="466px" height="149px" viewBox="0 0 466 149" version="1.1" xmlns="http://www.w3.org/2000/svg" xmlns:xlink="http://www.w3.org/1999/xlink">
    <title>ideil.</title>
    <desc>ideil. laravel development company</desc>
    <g id="Page-1" stroke="none" stroke-width="1" fill="none" fill-rule="evenodd">
        <g id="logo" fill-rule="nonzero">
            <path d="M297.386753,117.859947 C288.175187,136.370765 268.708632,149 246.10338,149 C214.623215,149 189,124.410754 189,94 C189,63.5892457 214.623215,39 246.10338,39 C277.591063,39 303,63.5892457 303,94 C303,97.2337565 302.345886,100.684093 301.477494,103.705004 C301.477494,103.705004 275.421962,100.900672 275.421962,100.684093 C276.722671,97.2337565 277.373026,97.879761 277.373026,94 C277.373026,76.961165 263.260709,62.9432412 246.10338,62.9432412 C228.94981,62.9432412 214.841253,76.961165 214.841253,94 C214.841253,111.042569 228.94981,125.060493 246.10338,125.060493 C253.654898,125.060493 260.708286,122.349768 266.140658,117.859947 L297.386753,117.859947 Z" id="Shape" fill="#FFFFFF"></path>
            <polygon id="Shape" fill="#FFFFFF" points="207 103 302 103 281.78243 82 207 82"></polygon>
            <path d="M106.714979,39 C76.0496817,39 51,63.5892457 51,94.0037341 C51,124.414488 76.0496817,149 106.714979,149 C137.380276,149 162,124.414488 162,94.0037341 C162,63.5892457 137.380276,39 106.714979,39 M107.79548,125.060493 C90.7317862,125.060493 76.6964869,111.042569 76.6964869,94.0037341 C76.6964869,76.9648992 90.7317862,62.9432412 107.79548,62.9432412 C124.855435,62.9432412 138.890734,76.9648992 138.890734,94.0037341 C138.890734,111.042569 124.855435,125.060493 107.79548,125.060493" id="Shape" fill="#FFFFFF"></path>
            <polygon id="Shape" fill="#FFFFFF" points="139 148 165 148 165 2 139 2"></polygon>
            <polygon id="Shape" fill="#FFFFFF" points="384 148 410 148 410 2 384 2"></polygon>
            <polygon id="Shape" fill="#FFFFFF" points="2 149 28 149 28 40 2 40"></polygon>
            <path d="M0,15.4980833 C0,24.1307036 6.86162978,31 15.4980833,31 C24.1383702,31 31,24.1307036 31,15.4980833 C31,6.86162978 24.1383702,0 15.4980833,0 C6.86162978,0 0,6.86162978 0,15.4980833" id="Shape" fill="#FFFFFF"></path>
            <polygon id="Shape" fill="#FFFFFF" points="327 149 353 149 353 40 327 40"></polygon>
            <path d="M325,15.4980833 C325,24.1307036 331.866312,31 340.503834,31 C349.133688,31 356,24.1307036 356,15.4980833 C356,6.86162978 349.133688,0 340.503834,0 C331.866312,0 325,6.86162978 325,15.4980833" id="Shape" fill="#FFFFFF"></path>
            <polygon id="Shape" fill="#FD0202" points="440 148 466 148 466 121 440 121"></polygon>
        </g>
    </g>
</svg>
