<?xml version="1.0" encoding="utf-8"?>
<!-- Generator: Adobe Illustrator 23.0.1, SVG Export Plug-In . SVG Version: 6.00 Build 0)  -->
<svg version="1.1" id="Layer_1" xmlns="http://www.w3.org/2000/svg" xmlns:xlink="http://www.w3.org/1999/xlink" x="0px" y="0px"
	 viewBox="0 0 120.6 130.7" enable-background="new 0 0 120.6 130.7" xml:space="preserve">
<g>
	<g>
		<linearGradient id="XMLID_2_" gradientUnits="userSpaceOnUse" x1="31.963" y1="121.0197" x2="110.6622" y2="73.5208">
			<stop  offset="0" style="stop-color:#FDEF3B"/>
			<stop  offset="1" style="stop-color:#F47B3E"/>
		</linearGradient>
		<path id="XMLID_46_" fill="url(#XMLID_2_)" d="M119.1,72.1c0.9-0.8,1.4-1.9,1.5-3.2c0.1-2.6-1.9-4.8-4.4-4.9
			c-1.2-0.1-2.4,0.4-3.3,1.1l0,0l-84.1,46c-1.9,0.8-3.6,2.2-4.8,4.2c-2.9,4.8-1.3,11.1,3.6,14c3.4,2,7.6,1.8,10.7-0.2l0,0l0,0
			c0.2-0.2,0.5-0.3,0.7-0.5l78.3-55.1C117.7,73.2,118.8,72.4,119.1,72.1L119.1,72.1L119.1,72.1z"/>
		<linearGradient id="XMLID_3_" gradientUnits="userSpaceOnUse" x1="48.546" y1="6.9348" x2="120.3775" y2="69.8212">
			<stop  offset="0" style="stop-color:#F15A6B"/>
			<stop  offset="0.3134" style="stop-color:#F2675F"/>
			<stop  offset="0.7692" style="stop-color:#F47649"/>
			<stop  offset="1" style="stop-color:#F47B3E"/>
		</linearGradient>
		<path id="XMLID_45_" fill="url(#XMLID_3_)" d="M119.2,65.4L119.2,65.4l-64-62.9C53.8,1,51.8,0,49.5,0c-4.3,0-7.8,3.5-7.8,7.8v0
			c0,2.1,0.8,3.9,2.1,5.3l0,0l0,0c0.4,0.4,0.8,0.7,1.2,1l67.6,57.9l0,0c0.8,0.7,1.8,1.2,3,1.3c2.6,0.1,4.8-1.9,4.9-4.4
			C120.7,67.5,120.1,66.3,119.2,65.4z"/>
		<linearGradient id="XMLID_4_" gradientUnits="userSpaceOnUse" x1="53.1496" y1="63.8844" x2="10.5782" y2="37.2984">
			<stop  offset="0" style="stop-color:#7D5AA6"/>
			<stop  offset="9.391485e-02" style="stop-color:#8B58A0"/>
			<stop  offset="0.5085" style="stop-color:#C04D8C"/>
			<stop  offset="0.8068" style="stop-color:#E04381"/>
			<stop  offset="0.957" style="stop-color:#EE3D7C"/>
		</linearGradient>
		<path id="XMLID_44_" fill="url(#XMLID_4_)" d="M57.3,59.8C57.2,59.7,17.8,28.6,17,28.1l0,0l0,0c-0.6-0.3-1.2-0.6-1.8-0.9
			C9.3,25,2.9,28,0.7,33.8c-1.9,5.1,0.2,10.7,4.6,13.5l0,0l0,0C6,47.6,6.6,48,7.3,48.2c0.4,0.2,45.6,18.9,45.6,18.9l0,0
			c1.8,0.8,3.9,0.3,5.2-1.2C59.5,64,59.2,61.2,57.3,59.8z"/>
		<linearGradient id="XMLID_5_" gradientUnits="userSpaceOnUse" x1="52.3734" y1="3.716" x2="10.8119" y2="38.0422">
			<stop  offset="0" style="stop-color:#F15A6B"/>
			<stop  offset="0.6525" style="stop-color:#EF4778"/>
			<stop  offset="1" style="stop-color:#EE3D7C"/>
		</linearGradient>
		<path id="XMLID_43_" fill="url(#XMLID_5_)" d="M49.5,0c-1.7,0-3.3,0.6-4.6,1.5l-40,26.9c-0.1,0.1-0.2,0.1-0.2,0.2l-0.1,0l0,0
			c-1.7,1.2-3.1,3-3.9,5.1C-1.5,39.6,1.5,46,7.3,48.2c3.6,1.4,7.5,0.7,10.5-1.4l0,0l0,0c0.7-0.5,1.3-1,1.8-1.6l34.7-31.3l0,0
			c1.8-1.4,3-3.6,3-6.1v0C57.3,3.5,53.8,0,49.5,0z"/>
	</g>
	<g id="XMLID_33_">
		<rect id="XMLID_42_" x="34.6" y="37.4" width="51" height="51"/>
		<rect id="XMLID_41_" x="39" y="78.8" fill="#FFFFFF" width="19.1" height="3.2"/>
		<g id="XMLID_34_">
			<path id="XMLID_40_" fill="#FFFFFF" d="M38.8,50.8l1.5-1.4c0.4,0.5,0.8,0.8,1.3,0.8c0.6,0,0.9-0.4,0.9-1.2v-5.3h2.3v5.3
				c0,1-0.3,1.8-0.8,2.3c-0.5,0.5-1.3,0.8-2.3,0.8C40.2,52.2,39.4,51.6,38.8,50.8z"/>
			<polygon id="XMLID_39_" fill="#FFFFFF" points="45.3,43.8 52,43.8 52,45.7 47.6,45.7 47.6,47 51.6,47 51.6,48.8 47.6,48.8 
				47.6,50.1 52.1,50.1 52.1,52.1 45.3,52.1 			"/>
			<polygon id="XMLID_38_" fill="#FFFFFF" points="55,45.8 52.5,45.8 52.5,43.8 59.8,43.8 59.8,45.8 57.3,45.8 57.3,52.1 55,52.1 
							"/>
			<path fill="#FFFFFF" d="M44.8,58c0.7-0.3,1.3-0.9,1.3-1.9v0c0-0.6-0.2-1-0.5-1.4C45,54.3,44.3,54,43.2,54H39v8.3h4.3
				c2,0,3.1-0.9,3.1-2.3v0C46.4,58.9,45.8,58.3,44.8,58z M41.2,55.9h1.5c0.7,0,1,0.2,1,0.7v0c0,0.5-0.4,0.7-1.1,0.7h-1.4V55.9z
				 M44.1,59.7c0,0.5-0.4,0.8-1.1,0.8h-1.8V59H43C43.7,59,44.1,59.2,44.1,59.7L44.1,59.7z"/>
			<path fill="#FFFFFF" d="M52.4,59.4c1-0.4,1.7-1.3,1.7-2.6v0c0-0.8-0.2-1.4-0.7-1.9c-0.6-0.6-1.4-0.9-2.7-0.9h-3.9v8.3h2.3v-2.5h1
				l1.7,2.5h2.6L52.4,59.4z M51.8,57c0,0.6-0.5,1-1.2,1h-1.5v-2h1.5C51.3,56,51.8,56.3,51.8,57L51.8,57z"/>
			<path fill="#FFFFFF" d="M59,54h-2.2l-3.5,8.4h2.4l0.6-1.5h3.2l0.6,1.5h2.5L59,54z M57,59l0.9-2.3l0.9,2.3H57z"/>
			<rect id="XMLID_37_" x="62.8" y="54" fill="#FFFFFF" width="2.3" height="8.3"/>
			<polygon id="XMLID_36_" fill="#FFFFFF" points="65.7,54 67.9,54 71.3,58.4 71.3,54 73.6,54 73.6,62.3 71.5,62.3 68,57.8 68,62.3 
				65.7,62.3 			"/>
			<path id="XMLID_35_" fill="#FFFFFF" d="M73.7,61.1l1.3-1.5c0.8,0.7,1.7,1,2.7,1c0.6,0,1-0.2,1-0.6v0c0-0.4-0.3-0.5-1.4-0.8
				c-1.8-0.4-3.1-0.9-3.1-2.6v0c0-1.5,1.2-2.7,3.2-2.7c1.4,0,2.5,0.4,3.4,1.1l-1.2,1.6c-0.8-0.5-1.6-0.8-2.3-0.8
				c-0.6,0-0.8,0.2-0.8,0.5v0c0,0.4,0.3,0.5,1.4,0.8c1.9,0.4,3.1,1,3.1,2.6v0c0,1.7-1.3,2.7-3.4,2.7C76.1,62.5,74.7,62,73.7,61.1z"
				/>
		</g>
	</g>
</g>
</svg>
