<?xml version="1.0" encoding="utf-8"?>
<!-- Generator: Adobe Illustrator 23.0.1, SVG Export Plug-In . SVG Version: 6.00 Build 0)  -->
<svg version="1.1" id="Layer_1" xmlns="http://www.w3.org/2000/svg" xmlns:xlink="http://www.w3.org/1999/xlink" x="0px" y="0px"
	 viewBox="0 0 262.8 58" style="enable-background:new 0 0 262.8 58;" xml:space="preserve">
<style type="text/css">
	.st0{fill:#FFFFFF;}
</style>
<path class="st0" d="M14.2,2.5v23L37,2.5h14.6L30.6,22.7L53,54.3H39L23.4,29.5L14.3,38l-0.2,16.3h44.7V2.5H14.2z"/>
<path class="st0" d="M71.9,2.3h6v9.9l7.6-9.9h7.5l-8.5,10.1L94,28h-7.5l-6.2-10.8l-2.5,2.9V28h-6L71.9,2.3L71.9,2.3z M101.3,6.9
	h-5.5V2.3h5.5V6.9z M95.8,9.3h5.5V28h-5.5V9.3z M105.3,9.3h5.3v3.3h0.1c0.8-2.4,2.7-3.6,5-3.6c0.4,0,0.9,0,1.3,0.1v5.6
	c-0.7-0.2-1.4-0.4-2.1-0.4c-2.7,0-4.1,2.1-4.1,4.4V28h-5.5V9.3z M123.1,21.8c0,0.9,0.4,1.6,0.9,2.1c0.5,0.4,1.3,0.6,2,0.6
	c1.1,0,2.6-0.5,2.6-2c0-1.4-1.7-1.7-2.7-2c-3.5-1-7.8-1.1-7.8-6.1c0-4.5,4.4-5.7,7.6-5.7c3.7,0,7.5,1.2,7.7,6.1h-5.1
	c0-0.8-0.3-1.3-0.7-1.6c-0.5-0.3-1.1-0.5-1.7-0.5c-0.9,0-2.4,0.1-2.4,1.4c0,1.8,3.7,2.1,6.2,2.7c3.4,0.8,4.3,3.5,4.3,5.1
	c0,5-4.3,6.7-8,6.7c-4,0-8-1.5-8.2-6.7H123.1z M147.7,16.1c0-1.6-1.3-2.7-2.7-2.7c-3.1,0-3.5,2.9-3.5,5.5c0,2.4,0.9,4.9,3.3,4.9
	c1.9,0,2.9-1.2,3.1-3.2h5.3c-0.5,5-4,7.9-8.4,7.9c-5,0-8.8-3.9-8.8-9.6c0-6,3.4-10.2,8.8-10.2c4.2,0,7.9,2.5,8.3,7.4L147.7,16.1
	L147.7,16.1z M155.9,2.3h5.5v9.6h0.1c0.8-1.9,3.1-3.1,5.1-3.1c5.6,0,6,4.5,6,7.3v12h-5.5V19c0-2.6,0.3-5.2-2.7-5.2c-2.1,0-3,1.9-3,4
	V28h-5.5V2.3z M176.3,2.3h5.5v9.1h0.1c1.1-1.7,2.7-2.6,4.8-2.6c4.7,0,7.1,4.6,7.1,9.5c0,5.3-2.2,10.3-7.5,10.3
	c-1.9,0-3.5-0.9-4.6-2.7h-0.1V28h-5.2V2.3z M181.6,18.5c0,3.3,0.8,5.4,3.3,5.4c2.5,0,3.3-2.9,3.3-5.4c0-2.4-0.8-5-3.3-5
	C183.4,13.4,181.6,14.6,181.6,18.5L181.6,18.5z M196.4,15.1c0.1-2.5,1.1-4,2.6-5c1.5-0.9,3.4-1.3,5.3-1.3c4,0,7.8,1,7.8,6.3v8.2
	c0,1.6,0,3.3,0.6,4.8h-5.5c-0.2-0.6-0.3-1.2-0.3-1.8c-1.4,1.7-3.5,2.3-5.5,2.3c-3.2,0-5.7-1.8-5.7-5.7c0-6.1,5.9-5.6,9.7-6.5
	c0.9-0.2,1.5-0.6,1.5-1.7c0-1.4-1.5-1.9-2.6-1.9c-1.5,0-2.5,0.8-2.7,2.3L196.4,15.1L196.4,15.1z M203.5,24.8c2.6,0,3.5-1.7,3.4-5.5
	c-0.8,0.5-2.2,0.6-3.4,1c-1.2,0.3-2.3,0.9-2.3,2.4C201.2,24.2,202.2,24.8,203.5,24.8L203.5,24.8z M232.4,28H227v-2.6H227
	c-1,1.9-3.2,3.1-5.1,3.1c-4.8,0-6.2-3.1-6.2-8V9.3h5.5v10.9c0,2.5,1,3.4,2.7,3.4c1.2,0,3-0.9,3-4.2v-10h5.5V28z M236,9.3h5.3v2.6
	h0.1c1-1.9,2.8-3.1,4.8-3.1c2.1,0,4,0.8,4.9,3c1.3-2,3-3,5.2-3c5.3,0,5.9,4.5,5.9,8.1V28h-5.5V17c0-2-0.9-3.2-2.3-3.2
	c-2.4,0-2.6,2-2.6,5.1V28h-5.5V17.4c0-2.2-0.6-3.6-2.1-3.6c-2,0-2.8,1.3-2.8,5.1V28H236L236,9.3L236,9.3z"/>
<g>
	<path class="st0" d="M71.3,54.8V43.5h4.1c1.3,0,2.6,0.1,3.7,0.8c1.6,1.1,2,3.3,2,4.8c0,1.5-0.4,3.2-1.5,4.3
		c-1.1,1.2-2.7,1.4-4.3,1.4C75.4,54.8,71.3,54.8,71.3,54.8z M72.4,53.9h2.7c1,0,1.9-0.1,2.8-0.5c1.6-0.8,2-2.7,2-4.2
		c0-1.7-0.4-3.5-2.1-4.3c-0.7-0.4-1.8-0.4-2.8-0.4h-2.7L72.4,53.9L72.4,53.9z M83.8,51c0,1.8,1,3.2,2.9,3.2c1.3,0,2.3-0.7,2.6-1.9
		h1.1C90,53.9,89,55,86.8,55c-2.8,0-4-1.9-4-4.3c0-2.4,1.5-4.3,4-4.3c2.4,0,3.8,1.6,3.8,4.5L83.8,51L83.8,51z M89.5,50.2
		c0-1.6-0.9-2.9-2.7-2.9c-1.8,0-2.7,1.3-2.9,2.9H89.5L89.5,50.2z M91.6,46.7h1.1l2.8,7l2.8-7h1.1L96,54.8h-1.1L91.6,46.7L91.6,46.7z
		 M101.5,51c0,1.8,1,3.2,2.9,3.2c1.3,0,2.3-0.7,2.6-1.9h1.1c-0.5,1.5-1.5,2.7-3.7,2.7c-2.8,0-4-1.9-4-4.3c0-2.4,1.5-4.3,4-4.3
		c2.4,0,3.8,1.6,3.8,4.5L101.5,51L101.5,51z M107.2,50.2c0-1.6-0.9-2.9-2.7-2.9c-1.8,0-2.7,1.3-2.9,2.9H107.2z M110.3,54.8V43.5h1
		v11.3L110.3,54.8L110.3,54.8z M113.3,50.8c0-2.4,1.3-4.3,4-4.3c2.7,0,4,1.9,4,4.3c0,2.6-1.6,4.3-4,4.3
		C115.1,55,113.3,53.6,113.3,50.8z M117.4,47.3c-2.1,0-2.9,1.7-2.9,3.4c0,2,1,3.4,2.9,3.4c2.1,0,2.9-1.7,2.9-3.4
		C120.3,48.8,119.5,47.3,117.4,47.3z M124.3,58h-1V46.7h1v1.4h0c0.6-1.1,1.9-1.7,3-1.7c2.8,0,3.9,1.9,3.9,4.3c0,2.3-1.2,4.3-3.9,4.3
		c-1.2,0-2.5-0.5-3.1-1.5V58L124.3,58z M127.3,54.2c2.1,0,3-1.6,3-3.7c0-2-1.3-3.2-3-3.2c-1.9,0-2.9,1.5-2.9,3.5
		C124.3,52.6,125.4,54.2,127.3,54.2z M134.3,54.8h-1v-8.1h1v1.2h0c0.5-0.9,1.6-1.4,2.7-1.4c1.6,0,2.2,0.7,2.5,1.6
		c0.6-1.1,1.6-1.6,2.8-1.6c2.4,0,2.7,1.6,2.7,3.2v5.1h-1v-5.6c0-1.2-0.4-1.9-1.9-1.9c-0.7,0-1.5,0.3-2,0.9c-0.4,0.5-0.6,1.5-0.6,2.2
		v4.4h-1v-5.6c0-1.2-0.4-1.9-1.9-1.9c-0.7,0-1.5,0.3-2,0.9c-0.4,0.5-0.6,1.5-0.6,2.2L134.3,54.8L134.3,54.8z M148,51
		c0,1.8,1,3.2,2.9,3.2c1.3,0,2.3-0.7,2.6-1.9h1.1c-0.5,1.5-1.5,2.7-3.7,2.7c-2.8,0-4-1.9-4-4.3c0-2.4,1.5-4.3,4-4.3
		c2.4,0,3.8,1.6,3.8,4.5L148,51L148,51z M153.6,50.2c0-1.6-0.9-2.9-2.7-2.9c-1.8,0-2.7,1.3-2.9,2.9H153.6L153.6,50.2z M157.7,54.8
		h-1v-8.1h1v1.1c0.8-0.8,1.6-1.3,2.8-1.3c1.1,0,2,0.3,2.6,1.2c0.4,0.6,0.4,1.2,0.4,1.9v5.3h-1v-5.3c0-1.5-0.6-2.2-2.2-2.2
		c-1.2,0-2.1,0.8-2.4,1.6c-0.2,0.5-0.2,1-0.2,1.5C157.7,50.4,157.7,54.8,157.7,54.8z M169,54.9c-0.2,0-0.7,0.2-1.2,0.2
		c-1,0-1.5-0.4-1.5-1.6v-6h-1.2v-0.8h1.2v-2.3h1v2.3h1.6v0.8h-1.6V53c0,0.8,0,1.1,0.9,1.1c0.3,0,0.6,0,0.8-0.1V54.9z M180.5,49.9V49
		h5.2v5.8h-1v-1.9c-0.8,1.4-2.1,2.2-4.5,2.2c-3,0-5.3-2-5.3-6c0-3.3,1.8-5.9,5.6-5.9c2.5,0,4.5,1.2,5,3.6h-1.2
		c-0.4-1.7-2-2.7-3.8-2.7c-3.2,0-4.5,2.2-4.5,5.4c0,2.5,1.6,4.7,4.4,4.7c1.3,0,2.8-0.5,3.6-2c0.4-0.7,0.5-1.5,0.5-2.3
		C184.6,49.9,180.5,49.9,180.5,49.9z M189.3,54.8h-1v-8.1h1v1.5h0c0.6-1.3,1.4-1.7,2.8-1.7v1c-2.3,0-2.9,1.5-2.9,3.3L189.3,54.8
		L189.3,54.8z M193,50.8c0-2.4,1.3-4.3,4-4.3c2.7,0,4,1.9,4,4.3c0,2.6-1.6,4.3-4,4.3C194.8,55,193,53.6,193,50.8z M197,47.3
		c-2.1,0-2.9,1.7-2.9,3.4c0,2,1,3.4,2.9,3.4c2.1,0,2.9-1.7,2.9-3.4C199.9,48.8,199.1,47.3,197,47.3z M208.7,46.7h1v8.1h-1v-1.1
		c-0.5,0.6-1.3,1.3-2.8,1.3c-2.3,0-3.1-1.3-3.1-3v-5.4h1V52c0,1.4,0.7,2.2,2.2,2.2c1.7,0,2.6-1.3,2.6-3.1L208.7,46.7L208.7,46.7z
		 M213.3,58h-1V46.7h1v1.4h0c0.6-1.1,1.9-1.7,3-1.7c2.8,0,3.9,1.9,3.9,4.3c0,2.3-1.2,4.3-3.9,4.3c-1.2,0-2.5-0.5-3.1-1.5V58
		L213.3,58z M216.2,54.2c2.1,0,3-1.6,3-3.7c0-2-1.3-3.2-3-3.2c-1.9,0-2.9,1.5-2.9,3.5C213.3,52.6,214.4,54.2,216.2,54.2z
		 M224.1,55.3c0,0.9-0.5,1.5-1.2,1.7v-0.6c0.3-0.2,0.6-0.4,0.6-1v-0.5h-0.6v-1.4h1.2V55.3z M233.2,54.8V43.5h1.1v10.4h6.5v0.9
		C240.8,54.8,233.2,54.8,233.2,54.8z M242.5,54.8V43.5h1.1v10.4h6.5v0.9L242.5,54.8L242.5,54.8z M260.3,46.8
		c-0.5-1.9-1.7-2.7-3.8-2.7c-2.9,0-4.2,2.3-4.2,5c0,2.5,1,5.1,4.3,5.1c2.1,0,3.4-1.3,3.8-3.1h1.2c-0.5,2.2-2,4-5.2,4
		c-3.7,0-5.2-2.7-5.2-6c0-4.3,2.4-6,5.6-6c2.5,0,4.3,1.2,4.7,3.6L260.3,46.8L260.3,46.8z"/>
</g>
<path class="st0" d="M261.9,37.3H71.4c-0.5,0-0.8-0.4-0.8-0.8c0,0,0,0,0,0v-0.4c0-0.5,0.4-0.8,0.8-0.8h190.5c0.5,0,0.8,0.4,0.8,0.8
	v0.4C262.8,37,262.4,37.3,261.9,37.3z"/>
</svg>
