<svg xmlns="http://www.w3.org/2000/svg" viewBox="0 0 157 20" class="laracasts-logo"><g fill="none" fill-rule="nonzero"><path d="M3.227 1.6v12.616H10.4V16.8H0V1.6zM20.513 1.6h2.974L30.4 16.798h-3.542l-1.43-3.29h-6.852L17.15 16.8H13.6l6.913-15.2zm1.497 4.019l-2.33 5.295h4.628L22.01 5.619zM39.25 10.551h-1.59V16.8H34.4V1.601h7.297a4.93 4.93 0 0 1 3.498 1.329 4.349 4.349 0 0 1 1.42 3.333c0 1.265-.467 2.268-1.4 3.012a6.419 6.419 0 0 1-2.505 1.124l4.49 6.4h-3.957L39.25 10.55zm-1.59-6.366v4.19h3.327a2.218 2.218 0 0 0 1.572-.613c.414-.4.637-.944.618-1.505a1.922 1.922 0 0 0-.639-1.5 2.236 2.236 0 0 0-1.55-.577l-3.329.005zM57.313 1.6h2.974L67.2 16.8h-3.55l-1.43-3.291h-6.844l-1.43 3.291H50.4l6.913-15.2zm1.497 4.02l-2.33 5.295h4.628L58.81 5.619zM81.11 6.912a4.737 4.737 0 0 0-.71-.949c-.914-.945-2.083-1.418-3.507-1.418s-2.592.473-3.506 1.418c-.904.938-1.356 2.156-1.356 3.655 0 1.498.452 2.718 1.356 3.66.905.941 2.068 1.412 3.489 1.412 1.421 0 2.59-.472 3.506-1.418.277-.287.516-.61.71-.96L84 13.63a7.59 7.59 0 0 1-1.316 1.713c-1.525 1.505-3.448 2.257-5.771 2.257s-4.256-.754-5.799-2.263c-1.543-1.509-2.314-3.416-2.314-5.721 0-2.306.771-4.218 2.314-5.737C72.657 2.359 74.59 1.6 76.913 1.6c2.323 0 4.233.77 5.73 2.312a7.59 7.59 0 0 1 1.316 1.68l-2.849 1.32zM116.988 1.6a9.052 9.052 0 0 1 5.837 2.027l-1.897 2.234a5.72 5.72 0 0 0-1.852-1.095 6.179 6.179 0 0 0-2.053-.342c-.818 0-1.462.174-1.931.522a1.26 1.26 0 0 0-.514 1.036c0 .459.251.883.658 1.112.342.226 1.172.52 2.488.883 1.555.391 2.712.82 3.471 1.286 1.337.865 2.005 2.068 2.005 3.608 0 1.41-.625 2.58-1.875 3.508-1.13.815-2.567 1.221-4.308 1.22a9.467 9.467 0 0 1-6.617-2.545l1.805-2.246a7.275 7.275 0 0 0 2.065 1.385 6.113 6.113 0 0 0 2.735.642c.892 0 1.6-.186 2.12-.556.432-.3.693-.78.705-1.296a1.419 1.419 0 0 0-.714-1.232c-.35-.232-1.161-.522-2.432-.87-1.63-.459-2.775-.877-3.437-1.254-1.377-.792-2.065-1.94-2.065-3.443a3.986 3.986 0 0 1 1.65-3.319c1.097-.843 2.483-1.264 4.156-1.264zM127.2 1.6H140v2.561h-4.79V16.8h-3.234V4.163H127.2zM150.586 1.6a9.05 9.05 0 0 1 5.837 2.027l-1.897 2.234a5.714 5.714 0 0 0-1.852-1.095 6.179 6.179 0 0 0-2.053-.342c-.818 0-1.462.174-1.931.522a1.26 1.26 0 0 0-.514 1.036c0 .46.252.883.66 1.112.342.226 1.172.52 2.488.883 1.555.391 2.712.82 3.471 1.286 1.337.865 2.005 2.068 2.005 3.608 0 1.41-.625 2.58-1.875 3.508-1.13.815-2.567 1.221-4.308 1.22A9.467 9.467 0 0 1 144 15.054l1.805-2.246a7.273 7.273 0 0 0 2.065 1.385 6.115 6.115 0 0 0 2.735.642c.892 0 1.6-.186 2.12-.556.432-.3.693-.78.705-1.296a1.419 1.419 0 0 0-.714-1.232c-.341-.241-1.15-.533-2.428-.877-1.63-.458-2.775-.875-3.437-1.253-1.377-.792-2.065-1.94-2.065-3.443a3.985 3.985 0 0 1 1.64-3.313c1.104-.843 2.491-1.264 4.16-1.264z" fill="#ffffff"></path> <path fill="#00CECF" d="M92.004 19.994v-6.426h2.367v2.69l11.75-5.62c.289-.128.567-.28.83-.452a3.044 3.044 0 0 0-.268-.171L94.37 3.819v3.892h-2.367V0l15.812 7.955c.582.316 1.92 1.189 1.775 2.43-.134 1.19-1.613 2.006-2.5 2.39L92 20l.004-.006z"></path> <path fill="#00CECF" d="M98.402 12.8h-8.8a.801.801 0 1 1 0-1.6h8.796a.801.801 0 1 1 0 1.6h.004zM101.567 10.4h-8.734c-.46 0-.833-.358-.833-.8 0-.442.373-.8.833-.8h8.734c.46 0 .833.358.833.8 0 .442-.373.8-.833.8zM87.203 12h-1.606a.798.798 0 0 1-.797-.8c0-.442.357-.8.797-.8h1.606c.44 0 .797.358.797.8 0 .442-.357.8-.797.8zM90.403 10.4h-1.606A.798.798 0 0 1 88 9.6c0-.442.357-.8.797-.8h1.606c.44 0 .797.358.797.8 0 .442-.357.8-.797.8z"></path> <path d="M92.004 19.994v-6.426h2.367v2.69l11.75-5.62c.289-.128.567-.28.83-.452a3.044 3.044 0 0 0-.268-.171L94.37 3.819v3.892h-2.367V0l15.812 7.955c.582.316 1.92 1.189 1.775 2.43-.134 1.19-1.613 2.006-2.5 2.39L92 20l.004-.006z" fill="#ffffff"></path> <path d="M98.402 12.8h-8.8a.801.801 0 1 1 0-1.6h8.796a.801.801 0 1 1 0 1.6h.004zM101.567 10.4h-8.734c-.46 0-.833-.358-.833-.8 0-.442.373-.8.833-.8h8.734c.46 0 .833.358.833.8 0 .442-.373.8-.833.8z" fill="#ffffff"></path></g></svg>
