<svg version="1.1" id="Layer_1" xmlns="http://www.w3.org/2000/svg" xmlns:xlink="http://www.w3.org/1999/xlink" x="0px" y="0px"
	 viewBox="0 0 771.8 152.2" enable-background="new 0 0 771.8 152.2" xml:space="preserve">
<rect x="644.2" fill="#ffffff" width="127.7" height="50.7"/>
<rect x="644.2" y="110.4" fill="#ffffff" width="127.7" height="17.3"/>
<rect x="644.2" y="67.2" fill="#ffffff" width="127.7" height="26"/>
<path fill="#FFFFFF" d="M0,61.9h16.1v9.6c2.1-3.3,5-6.1,8.5-8c3.6-2.1,7.7-3.1,11.9-3.1c7.5-0.1,14.6,3.2,19.4,8.9
	c5.7,7,8.5,15.9,8,24.9c0.6,9.2-2.3,18.3-8,25.5c-4.8,5.7-11.9,9-19.4,8.9c-3.4,0-6.8-0.7-9.8-2.1c-3.5-1.9-6.6-4.4-9.3-7.4v33H0
	L0,61.9L0,61.9z M17.1,93.5c-0.4,5.8,1.1,11.6,4.5,16.3c2.5,3.3,6.5,5.3,10.7,5.3c3.9,0.1,7.6-1.7,10.1-4.8c3.1-4.7,4.5-10.3,4-15.9
	c0.4-5.4-1-10.8-4.1-15.3c-2.4-3.2-6.2-5-10.2-5c-4.1-0.1-8,1.7-10.6,4.9C18.3,83.2,16.8,88.4,17.1,93.5L17.1,93.5z"/>
<path fill="#FFFFFF" d="M71.9,127.6V37.1h17.3v90.5H71.9z"/>
<path fill="#FFFFFF" d="M114,81.9l-15.7-2.8c1.3-5.6,4.4-10.5,8.9-14c5.8-3.4,12.5-5,19.2-4.5c5.9-0.3,11.8,0.6,17.3,2.7
	c3.3,1.4,6.1,3.9,8,7c1.9,4.9,2.7,10.2,2.3,15.5V106c-0.1,4.3,0.2,8.5,0.8,12.7c0.7,3.1,1.7,6.1,3.1,8.9h-17.1
	c-0.4-1.2-1-2.9-1.7-5.1c-0.3-1-0.5-1.7-0.6-2c-2.7,2.7-5.9,4.9-9.5,6.5c-3.4,1.4-7.1,2.2-10.8,2.1c-5.8,0.3-11.5-1.7-15.9-5.5
	c-3.8-3.6-6-8.6-5.8-13.9c-0.1-3.5,0.8-6.9,2.6-9.9c1.8-2.9,4.3-5.2,7.4-6.7c4.4-1.9,9-3.3,13.8-4c5.7-1,11.4-2.5,16.8-4.5v-1.9
	c0.3-2.6-0.6-5.2-2.5-7.1c-2.8-1.7-6-2.5-9.3-2.1c-2.5-0.1-5,0.5-7.2,1.8C116.3,77.1,114.7,79.3,114,81.9z M137.2,96
	c-2.2,0.7-5.7,1.6-10.6,2.6c-3.3,0.5-6.5,1.5-9.4,3c-2.1,1.3-3.4,3.6-3.4,6.1c0,2.4,1,4.7,2.7,6.3c1.8,1.8,4.3,2.7,6.9,2.6
	c3.2,0,6.4-1.1,8.9-3.1c2-1.4,3.4-3.4,4.1-5.7c0.6-2.8,0.8-5.6,0.7-8.5L137.2,96L137.2,96z"/>
<path fill="#FFFFFF" d="M195.9,61.9v13.8h-11.8v26.4c-0.1,3.1,0,6.2,0.4,9.3c0.2,0.9,0.8,1.7,1.6,2.2c0.8,0.6,1.9,0.9,2.9,0.9
	c2.4-0.2,4.8-0.8,7-1.7l1.5,13.4c-4.3,1.8-9,2.7-13.7,2.6c-2.9,0-5.8-0.5-8.5-1.6c-2.2-0.8-4.1-2.2-5.5-4.1c-1.3-2-2.2-4.3-2.5-6.8
	c-0.5-4.1-0.7-8.1-0.5-12.2V75.7h-8V61.9h8v-13l17.4-10.1v23.1L195.9,61.9L195.9,61.9z"/>
<path fill="#FFFFFF" d="M201,61.9h9.6V57c-0.2-4.2,0.4-8.4,1.7-12.3c1.3-2.9,3.6-5.2,6.5-6.6c3.7-1.8,7.8-2.7,11.9-2.6
	c4.9,0,9.8,0.8,14.5,2.2l-2.3,12.1c-2.6-0.6-5.3-1-8-1c-2-0.2-3.9,0.4-5.4,1.7c-1.3,2-1.9,4.4-1.7,6.8v4.5h12.9v13.4h-12.9v52.4
	h-17.3v-52H201V62.1L201,61.9z"/>
<path fill="#FFFFFF" d="M244.1,93.8c0.1-5.8,1.6-11.6,4.5-16.7c2.7-5.2,6.9-9.5,12-12.3c5.3-2.9,11.3-4.5,17.4-4.5
	c9.1-0.3,17.9,3.2,24.3,9.7c6.4,6.5,9.8,15.3,9.5,24.4c0.3,9.2-3.2,18.1-9.6,24.6c-6.3,6.5-15.1,10-24.1,9.8c-6,0-11.8-1.4-17.2-4.1
	c-5.3-2.6-9.7-6.7-12.4-11.9C245.5,106.9,244,100.3,244.1,93.8z M262,94.7c-0.4,5.4,1.2,10.7,4.5,14.9c5.5,6.3,15,7,21.3,1.5
	c0.5-0.5,1-1,1.5-1.5c3.3-4.3,4.9-9.6,4.5-15c0.4-5.3-1.2-10.6-4.5-14.8c-5.5-6.3-15-6.9-21.3-1.4c-0.5,0.4-1,0.9-1.4,1.4
	c-3.3,4.2-5,9.5-4.6,14.8L262,94.7z"/>
<path fill="#FFFFFF" d="M335.4,127.6h-17.3V61.9h16.1v9.3c1.8-3.4,4.4-6.3,7.4-8.7c2.2-1.4,4.8-2.2,7.5-2.1c4,0,8,1.2,11.4,3.3
	l-5.4,15.1c-2.4-1.7-5.2-2.7-8.1-2.9c-2.2-0.1-4.4,0.6-6.2,2c-2,1.9-3.4,4.5-4,7.2c-1.3,7.2-1.7,14.6-1.4,22L335.4,127.6
	L335.4,127.6z"/>
<path fill="#FFFFFF" d="M365.6,61.9h16v8.9c4.8-6.5,12.3-10.3,20.4-10.4c3.8-0.1,7.6,0.8,10.9,2.6c3.2,1.8,5.8,4.6,7.6,7.8
	c2.5-3.2,5.7-5.9,9.3-7.8c3.3-1.7,6.9-2.6,10.6-2.6c4.3-0.1,8.5,0.9,12.2,2.9c3.4,2,6,5,7.5,8.6c1.4,4.3,2,8.9,1.8,13.4v42.2h-17.3
	V90.1c0.4-4.3-0.2-8.6-1.8-12.6c-1.6-2.5-4.4-3.9-7.4-3.7c-2.5,0-4.8,0.8-6.8,2.2c-2.2,1.6-3.7,3.9-4.5,6.5
	c-1.1,4.4-1.6,8.9-1.4,13.4v31.3h-17.3V91.5c0.2-4.1-0.1-8.2-0.9-12.3c-0.5-1.7-1.5-3.1-2.9-4.2c-1.6-1-3.4-1.5-5.3-1.3
	c-2.6,0-5.1,0.7-7.2,2.1c-2.1,1.5-3.7,3.7-4.5,6.2c-1.1,4.4-1.6,8.9-1.4,13.4v32.1H366V61.9H365.6z"/>
<path fill="#FFFFFF" d="M470.5,127.6v-17.3h17.3v17.3H470.5z"/>
<path fill="#FFFFFF" d="M494.3,108.7l17.4-2.6c0.5,3,2.1,5.7,4.5,7.7c2.8,1.9,6.1,2.8,9.5,2.6c3.5,0.2,7.1-0.6,10.1-2.5
	c1.4-1,2.3-2.7,2.3-4.5c0-1.2-0.4-2.4-1.3-3.3c-1.7-1.2-3.7-2-5.8-2.3c-14-3-22.8-5.8-26.6-8.5c-5-3.2-8-8.8-7.8-14.7
	c-0.1-5.5,2.4-10.8,6.7-14.3c6-4.4,13.4-6.5,20.8-5.9c7-0.5,13.9,1.1,20,4.5c4.4,3.1,7.6,7.7,8.9,12.9l-16.3,3c-0.6-2.4-2-4.5-4-5.9
	c-2.5-1.5-5.4-2.2-8.4-2c-3.4-0.3-6.8,0.4-9.8,1.9c-1.2,0.8-2,2.1-2,3.5c0,1.3,0.7,2.4,1.7,3.1c5.2,2.3,10.6,4,16.2,4.9
	c6.9,1.1,13.5,3.7,19.3,7.7c3.7,3.2,5.7,8,5.4,12.9c0,6-2.8,11.7-7.5,15.5c-6.4,4.8-14.4,7.1-22.4,6.5c-7.5,0.4-14.9-1.5-21.2-5.5
	C499.2,120,495.7,114.7,494.3,108.7z"/>
<path fill="#FFFFFF" d="M579.7,37.1v33.2c7.3-9.3,20-12.4,30.8-7.6c2.9,1.2,5.4,3.2,7.2,5.7c1.6,2.3,2.7,4.9,3.3,7.6
	c0.7,4.3,1,8.7,0.9,13v38.5h-17.3V93c0.2-4.4-0.1-8.8-1-13.1c-0.6-1.8-1.9-3.4-3.5-4.5c-1.9-1.1-4.1-1.7-6.3-1.6
	c-2.7,0-5.4,0.7-7.7,2.1c-2.3,1.5-4.1,3.7-5,6.3c-1.2,4-1.7,8.3-1.6,12.5v32.9h-17.3V37.1H579.7L579.7,37.1z"/>
</svg>
