<svg version="1.1" xmlns="http://www.w3.org/2000/svg" xmlns:xlink="http://www.w3.org/1999/xlink" x="0px" y="0px" width="312.9px"
	 height="74.8px" viewBox="0 0 312.9 74.8" enable-background="new 0 0 312.9 74.8" xml:space="preserve">
<g>
	<g>
		<g>
			<path fill="#FFFFFF" d="M92.9,24.8c1.1,0,2.1,0.2,3.1,0.6c1,0.4,1.8,1,2.5,1.7c0.7,0.7,1.3,1.5,1.7,2.5c0.4,1,0.6,2,0.6,3
				c0,1.1-0.2,2.1-0.6,3.1c-0.4,1-1,1.8-1.7,2.5C97.8,39,97,39.5,96,40c-1,0.4-2,0.6-3,0.6h-3.8c-0.1,0-0.2,0.1-0.2,0.2v8.5
				c0,0.1-0.1,0.2-0.2,0.3c-0.1,0.1-0.2,0.2-0.3,0.2h-3.3c-0.1,0-0.3-0.1-0.4-0.2c-0.1-0.1-0.1-0.2-0.1-0.3v-24c0-0.1,0-0.2,0.1-0.3
				c0.1-0.1,0.2-0.2,0.4-0.2H92.9z M92.6,36.5c0.5,0,1-0.1,1.5-0.3c0.5-0.2,0.9-0.5,1.3-0.8c0.4-0.4,0.6-0.8,0.9-1.3
				c0.2-0.5,0.3-1,0.3-1.6c0-0.5-0.1-1-0.3-1.5c-0.2-0.5-0.5-0.8-0.9-1.2c-0.4-0.3-0.8-0.6-1.3-0.8c-0.5-0.2-1-0.3-1.5-0.3h-3.5
				c-0.1,0-0.2,0.1-0.2,0.2v7.2c0,0.1,0.1,0.2,0.2,0.2H92.6z"/>
			<path fill="#FFFFFF" d="M103.8,33.5c0-0.1,0.1-0.3,0.2-0.4c0.1-0.1,0.2-0.1,0.3-0.1h1.8c0.3,0,0.5,0.1,0.5,0.4l0.1,0.6
				c0,0.2,0,0.3,0.1,0.5c0,0.2,0,0.2,0,0.3c0,0.2,0.1,0.2,0.3,0.1c0.1-0.2,0.3-0.5,0.6-0.7c0.3-0.3,0.5-0.5,0.9-0.7
				c0.3-0.2,0.7-0.4,1.1-0.6c0.4-0.1,0.9-0.2,1.4-0.2c0.3,0,0.6,0,1,0.1c0.3,0,0.7,0.1,0.9,0.2c0.3,0.1,0.5,0.2,0.6,0.4
				c0.2,0.2,0.2,0.3,0.1,0.5l-1.3,2.4c-0.1,0.2-0.4,0.3-0.9,0.1c-0.6-0.2-1.1-0.2-1.6,0c-0.5,0.2-0.9,0.4-1.2,0.8
				c-0.3,0.4-0.5,0.8-0.7,1.3c-0.2,0.5-0.2,0.9-0.2,1.4v9.6c0,0.3-0.2,0.5-0.7,0.5h-2.8c-0.1,0-0.2-0.1-0.3-0.2
				c-0.1-0.1-0.2-0.2-0.2-0.3V33.5z"/>
			<path fill="#FFFFFF" d="M129.5,36.5c0.6,0.8,0.7,1.2,1.1,2.1c0.3,0.9,0.5,1.9,0.5,2.9c0,1.2-0.2,2.3-0.7,3.4
				c-0.5,1.1-1.1,2-1.9,2.7c-0.8,0.8-1.7,1.4-2.8,1.8c-1.1,0.5-2.2,0.7-3.4,0.7c-1.1,0-2.1-0.2-3-0.7c-1-0.5-1.8-1.1-2.6-1.8
				c-0.7-0.8-1.3-1.7-1.8-2.7c-0.4-1.1-0.7-2.2-0.7-3.4c0-1.6,0.4-3.1,1.1-4.4c0.8-1.3,1.7-2.3,2.9-3c1.2-0.7,2.5-1.1,4-1.2
				c1.5-0.1,2.9,0.3,4.3,1c0.2,0.1,2.4,1.7,3,2.8c0.2,0.3-2.9,2.9-3,2.7c-0.9-1.6-2.1-2.1-2.3-2.2c-0.6-0.2-1.2-0.4-2-0.4
				c-0.6,0-1.1,0.1-1.6,0.4c-0.5,0.2-0.9,0.6-1.3,1c-0.4,0.4-0.7,0.9-0.9,1.5c-0.2,0.6-0.3,1.2-0.3,1.8c0,1.3,0.4,2.4,1.2,3.3
				c0.8,0.9,1.8,1.3,3,1.3c0.7,0,1.3-0.1,1.9-0.3c0.6-0.2,1.1-0.6,1.5-1c0.4-0.4,0.8-0.9,1-1.5c0.3-0.6,0.4-1.2,0.4-1.8
				c0-0.4-0.1-0.9-0.2-1.3c-0.1-0.4-0.3-0.8-0.5-1.1c-0.2-0.4-0.1-0.8,0.3-1l2.1-1.9C128.9,36,129.4,36.4,129.5,36.5z"/>
			<path fill="#FFFFFF" d="M145.8,48.2c0.1,0.2,0.2,0.4,0.1,0.6c-0.1,0.2-0.2,0.3-0.4,0.4c-0.5,0.2-1.1,0.4-1.7,0.6
				c-0.6,0.2-1.4,0.3-2.2,0.3c-1.1,0-2.1-0.2-3-0.7c-1-0.5-1.8-1.1-2.6-1.8c-0.7-0.8-1.3-1.7-1.8-2.7c-0.4-1.1-0.7-2.2-0.7-3.4v0v0
				c0-1.2,0.2-2.3,0.7-3.4c0.4-1,1-2,1.8-2.7c0.7-0.8,1.6-1.4,2.6-1.8c1-0.5,2-0.7,3-0.7c1.3,0,2.6,0.3,3.9,0.9
				c0.1,0.1,0.2,0.2,0.3,0.3c0.1,0.1,0.1,0.3,0.1,0.5l-1.3,2.4c-0.1,0.2-0.3,0.3-0.5,0.4c-0.2,0.1-0.4,0.1-0.6-0.1
				c-0.6-0.2-1.2-0.4-2-0.4c-0.6,0-1.1,0.1-1.6,0.4c-0.5,0.2-0.9,0.6-1.3,1c-0.4,0.4-0.7,0.9-0.9,1.5c-0.2,0.6-0.3,1.2-0.3,1.8
				c0,0.6,0.1,1.3,0.3,1.8c0.2,0.6,0.5,1.1,0.9,1.5c0.4,0.4,0.8,0.7,1.3,1c0.5,0.2,1,0.4,1.6,0.4c0.7,0,1.4-0.1,2-0.4
				c0.2-0.1,0.4-0.1,0.6-0.1c0.2,0.1,0.4,0.2,0.5,0.4L145.8,48.2z"/>
			<path fill="#FFFFFF" d="M155.8,32.9c1.1,0,2.2,0.2,3.3,0.6c1,0.4,1.9,1,2.7,1.8c0.8,0.8,1.4,1.8,1.8,3c0.4,1.2,0.6,2.6,0.6,4.2
				c0,0.2,0,0.4-0.1,0.5c-0.1,0.1-0.2,0.1-0.5,0.1c-2.1,0-3.9,0-5.6,0h-6.4c0,0,0,0-0.1,0v0c0,0.1,0.1,0.3,0.3,0.7
				c0.2,0.3,0.4,0.7,0.7,1.1c0.3,0.4,0.8,0.7,1.3,1c0.5,0.3,1.2,0.5,2.1,0.6c0.7,0.1,1.4,0.1,1.9,0c0.6-0.1,1.1-0.2,1.5-0.4
				c0.4-0.2,0.8-0.4,1.1-0.6c0.3-0.3,0.6-0.5,0.8-0.7c0.1-0.1,0.2-0.1,0.3,0l1.9,1.6c0.1,0.1,0.1,0.2,0.1,0.2c0,0.1,0,0.2-0.1,0.2
				c-0.2,0.2-0.5,0.5-0.9,0.9c-0.4,0.4-0.9,0.8-1.5,1.1c-0.6,0.4-1.4,0.7-2.3,0.9c-0.9,0.3-1.9,0.4-3,0.3c-1.1,0-2.2-0.3-3.3-0.7
				c-1-0.5-1.9-1.1-2.7-1.9c-0.8-0.8-1.4-1.7-1.8-2.7c-0.5-1-0.7-2.2-0.7-3.3c0-1.2,0.2-2.3,0.7-3.4c0.4-1,1-2,1.8-2.7
				c0.8-0.8,1.7-1.4,2.7-1.8C153.6,33.1,154.7,32.9,155.8,32.9z M160.3,39.6c0,0,0-0.1,0-0.1c-0.1-0.3-0.3-0.6-0.5-1
				c-0.2-0.4-0.5-0.7-0.8-1c-0.3-0.3-0.8-0.6-1.3-0.8c-0.5-0.2-1.1-0.3-1.8-0.3c-0.7,0-1.4,0.1-1.9,0.4c-0.5,0.3-0.9,0.6-1.3,0.9
				c-0.3,0.4-0.6,0.7-0.7,1.1c-0.2,0.4-0.3,0.6-0.3,0.8v0.1c0,0,0,0,0.1,0h8.4C160.3,39.7,160.3,39.6,160.3,39.6z"/>
			<path fill="#FFFFFF" d="M174.6,39.3c1,0.2,1.9,0.4,2.8,0.6c0.9,0.2,1.6,0.5,2.2,0.9c0.6,0.4,1.1,0.9,1.5,1.5
				c0.4,0.6,0.5,1.3,0.5,2.2c0,0.8-0.2,1.5-0.5,2.2c-0.3,0.7-0.8,1.3-1.5,1.7c-0.6,0.5-1.4,0.9-2.3,1.1c-0.9,0.3-1.9,0.4-2.9,0.4
				c-0.8,0-1.5-0.1-2.3-0.3c-0.7-0.2-1.4-0.5-2-0.9c-0.6-0.4-1.1-0.9-1.6-1.4c-0.4-0.6-0.8-1.2-1-1.9c-0.1-0.3-0.1-0.5,0.1-0.8
				c0.1-0.2,0.4-0.3,0.7-0.3h2.5c0.3,0,0.5,0.1,0.7,0.3c0.4,0.6,0.9,1,1.4,1.2c0.5,0.2,1.1,0.3,1.6,0.3c0.8,0,1.5-0.1,2-0.4
				c0.5-0.2,0.8-0.6,0.8-1c0-0.2,0-0.4-0.1-0.6c-0.1-0.2-0.3-0.3-0.5-0.5c-0.3-0.1-0.6-0.3-1.1-0.4c-0.5-0.1-1-0.2-1.7-0.3
				c-0.6-0.1-1.3-0.2-2-0.4c-0.7-0.2-1.4-0.4-2.1-0.8c-0.6-0.4-1.2-0.8-1.6-1.4c-0.4-0.6-0.6-1.3-0.6-2.2c0-0.6,0.1-1.3,0.4-1.9
				c0.3-0.6,0.7-1.2,1.3-1.7c0.5-0.5,1.2-0.9,2-1.2c0.8-0.3,1.7-0.5,2.8-0.5c1.6,0,3.1,0.4,4.2,1.1c1.2,0.7,2,1.7,2.5,3
				c0.1,0.3,0,0.5-0.1,0.8c0,0.1-0.1,0.2-0.3,0.3c-0.1,0.1-0.3,0.1-0.4,0.1h-2.6c-0.1,0-0.3,0-0.4-0.1c-0.1-0.1-0.3-0.2-0.4-0.3
				c-0.2-0.3-0.5-0.5-1-0.7c-0.5-0.2-1-0.3-1.5-0.3c-0.5,0-0.9,0-1.1,0.1c-0.3,0.1-0.5,0.2-0.7,0.3c-0.2,0.1-0.3,0.3-0.3,0.5
				c0,0.2-0.1,0.3-0.1,0.5c0,0.4,0.2,0.7,0.5,0.9C172.9,38.9,173.6,39.1,174.6,39.3z"/>
			<path fill="#FFFFFF" d="M191,39.3c1,0.2,1.9,0.4,2.8,0.6c0.9,0.2,1.6,0.5,2.2,0.9c0.6,0.4,1.1,0.9,1.5,1.5
				c0.4,0.6,0.5,1.3,0.5,2.2c0,0.8-0.2,1.5-0.5,2.2c-0.3,0.7-0.8,1.3-1.5,1.7c-0.6,0.5-1.4,0.9-2.3,1.1c-0.9,0.3-1.9,0.4-2.9,0.4
				c-0.8,0-1.5-0.1-2.3-0.3c-0.7-0.2-1.4-0.5-2-0.9c-0.6-0.4-1.1-0.9-1.6-1.4c-0.4-0.6-0.8-1.2-1-1.9c-0.1-0.3-0.1-0.5,0.1-0.8
				c0.1-0.2,0.4-0.3,0.7-0.3h2.5c0.3,0,0.5,0.1,0.7,0.3c0.4,0.6,0.9,1,1.4,1.2c0.5,0.2,1.1,0.3,1.6,0.3c0.8,0,1.5-0.1,2-0.4
				c0.5-0.2,0.8-0.6,0.8-1c0-0.2,0-0.4-0.1-0.6s-0.3-0.3-0.5-0.5c-0.3-0.1-0.6-0.3-1.1-0.4c-0.5-0.1-1-0.2-1.7-0.3
				c-0.6-0.1-1.3-0.2-2-0.4c-0.7-0.2-1.4-0.4-2.1-0.8c-0.6-0.4-1.2-0.8-1.6-1.4c-0.4-0.6-0.6-1.3-0.6-2.2c0-0.6,0.1-1.3,0.4-1.9
				c0.3-0.6,0.7-1.2,1.3-1.7c0.5-0.5,1.2-0.9,2-1.2c0.8-0.3,1.7-0.5,2.8-0.5c1.6,0,3.1,0.4,4.2,1.1c1.2,0.7,2,1.7,2.5,3
				c0.1,0.3,0,0.5-0.1,0.8c0,0.1-0.1,0.2-0.3,0.3c-0.1,0.1-0.3,0.1-0.4,0.1h-2.6c-0.1,0-0.3,0-0.4-0.1c-0.1-0.1-0.3-0.2-0.4-0.3
				c-0.2-0.3-0.5-0.5-1-0.7c-0.5-0.2-1-0.3-1.5-0.3c-0.5,0-0.9,0-1.1,0.1c-0.3,0.1-0.5,0.2-0.7,0.3c-0.2,0.1-0.3,0.3-0.3,0.5
				c0,0.2-0.1,0.3-0.1,0.5c0,0.4,0.2,0.7,0.5,0.9C189.3,38.9,190,39.1,191,39.3z"/>
			<path fill="#FFFFFF" d="M229.3,49.8H226c-0.1,0-0.2,0-0.3-0.1c-0.1-0.1-0.2-0.2-0.2-0.3l-2.1-13.7c0-0.1,0-0.2-0.1-0.2
				c-0.1,0-0.2,0-0.2,0.1l-6.5,14.2c-0.1,0.2-0.2,0.3-0.4,0.3h-0.6c-0.2,0-0.3-0.1-0.4-0.3c0,0,0-0.1-0.1-0.1c0,0-0.1-0.2-0.2-0.5
				c-0.1-0.3-0.3-0.7-0.6-1.3c-0.3-0.6-0.6-1.4-1.1-2.4c-0.5-1-1.1-2.4-1.8-4c-0.7-1.6-1.6-3.6-2.7-6c0-0.1-0.1-0.1-0.2-0.1
				c-0.1,0-0.2,0.1-0.2,0.2L206,49.4c0,0.1-0.1,0.2-0.2,0.3c-0.1,0.1-0.2,0.1-0.3,0.1h-3.3c-0.1,0-0.2-0.1-0.4-0.2
				c-0.1-0.1-0.2-0.3-0.1-0.4l4.2-24.4c0-0.3,0.2-0.4,0.5-0.4h1c0.2,0,0.4,0.1,0.5,0.2l7.6,17.1c0.1,0.2,0.2,0.2,0.4,0
				c1.3-2.8,2.3-5.2,3.2-7.2c0.9-2,1.6-3.6,2.2-4.8c0.6-1.3,1-2.2,1.3-2.9c0.3-0.7,0.5-1.2,0.7-1.5c0.1-0.3,0.2-0.5,0.3-0.6
				c0,0,0.1-0.1,0.1-0.1c0.1-0.2,0.2-0.2,0.5-0.2h1c0.3,0,0.4,0.1,0.5,0.4c0.5,3.1,1,5.7,1.4,8.1c0.4,2.3,0.8,4.3,1,6.1
				c0.3,1.7,0.5,3.2,0.7,4.3c0.2,1.2,0.4,2.1,0.5,2.9l0.5,3.1C229.8,49.6,229.7,49.8,229.3,49.8z"/>
			<path fill="#FFFFFF" d="M249.3,48.9c0,0.3-0.1,0.5-0.3,0.6c-0.2,0.2-0.4,0.2-0.7,0.2H246c-0.3,0-0.5-0.1-0.7-0.2
				c-0.2-0.2-0.3-0.4-0.3-0.6v-3.4c0-0.4,0-0.9,0-1.3c0-0.4,0-0.8,0-1.1c0-0.3,0-0.6,0-0.8c0-0.2,0-0.3,0-0.4c0-1.1-0.2-2-0.6-2.7
				c-0.4-0.7-1-1.3-1.8-1.7c-0.6-0.3-1.2-0.5-1.8-0.6c-0.6-0.1-1.2,0-1.8,0.2c-0.6,0.2-1.1,0.4-1.6,0.8c-0.5,0.4-0.9,0.8-1.2,1.4
				c-0.5,0.8-0.6,1.7-0.5,2.6c0.1,0.9,0.5,1.7,1,2.5c0.5,0.7,1.2,1.3,2.1,1.6c0.8,0.4,1.8,0.4,2.7,0.1c0.2-0.1,0.4-0.1,0.6,0.1
				c0.2,0.1,0.3,0.3,0.4,0.4l1,2.6c0.1,0.2,0,0.3-0.2,0.4c-1.3,0.4-2.5,0.6-3.7,0.5c-1.2-0.1-2.3-0.4-3.3-1c-1-0.5-1.8-1.2-2.6-2.1
				c-0.7-0.9-1.3-1.8-1.6-2.9c-0.3-1-0.5-2.2-0.4-3.3c0.1-1.2,0.4-2.3,1-3.5c0.5-1,1.2-1.9,2.1-2.6c0.9-0.7,1.9-1.2,3-1.6
				c1.1-0.3,2.2-0.4,3.3-0.3c1.1,0.1,2.2,0.5,3.1,1.2c0.2,0.2,0.3,0.3,0.5,0.2c0.2,0,0.2-0.2,0.2-0.5c0-0.2,0.1-0.5,0.3-0.6
				c0.2-0.2,0.4-0.3,0.6-0.3h2.6c0.3,0,0.5,0.1,0.7,0.3c0.2,0.2,0.3,0.4,0.3,0.6V48.9z"/>
			<path fill="#FFFFFF" d="M268.6,33.2c0.1,0.2,0,0.4-0.1,0.5l-6.7,6.5c-0.1,0.1-0.2,0.3,0,0.5c0.6,0.7,1.2,1.5,1.8,2.3
				c0.6,0.8,1.2,1.6,1.8,2.3c0.6,0.8,1.1,1.5,1.6,2.1c0.5,0.7,0.9,1.2,1.3,1.7c0.1,0.2,0.1,0.3,0.1,0.5c-0.1,0.2-0.2,0.2-0.4,0.2
				h-3.8c-0.2,0-0.4-0.1-0.5-0.2l-6.3-8.5v8.2c0,0.1-0.1,0.2-0.2,0.3c-0.1,0.1-0.2,0.2-0.3,0.2h-3.1c-0.1,0-0.3-0.1-0.4-0.2
				c-0.1-0.1-0.2-0.2-0.2-0.3V25c0-0.1,0.1-0.3,0.2-0.4c0.1-0.1,0.2-0.2,0.4-0.2h3.1c0.1,0,0.2,0.1,0.3,0.2c0.1,0.1,0.2,0.2,0.2,0.4
				v14.8l6.7-6.5c0.1-0.1,0.2-0.2,0.4-0.3c0.1-0.1,0.3-0.1,0.4-0.1h3.4C268.4,32.9,268.6,33,268.6,33.2z"/>
			<path fill="#FFFFFF" d="M278.8,32.9c1.1,0,2.2,0.2,3.3,0.6c1,0.4,1.9,1,2.7,1.8c0.8,0.8,1.4,1.8,1.8,3c0.4,1.2,0.6,2.6,0.6,4.2
				c0,0.2,0,0.4-0.1,0.5c-0.1,0.1-0.2,0.1-0.5,0.1c-2.1,0-3.9,0-5.6,0h-6.4c0,0,0,0-0.1,0v0c0,0.1,0.1,0.3,0.3,0.7
				c0.2,0.3,0.4,0.7,0.7,1.1c0.3,0.4,0.8,0.7,1.3,1c0.5,0.3,1.2,0.5,2.1,0.6c0.7,0.1,1.4,0.1,1.9,0c0.6-0.1,1.1-0.2,1.5-0.4
				c0.4-0.2,0.8-0.4,1.1-0.6c0.3-0.3,0.6-0.5,0.8-0.7c0.1-0.1,0.2-0.1,0.3,0l1.9,1.6c0.1,0.1,0.1,0.2,0.1,0.2c0,0.1,0,0.2-0.1,0.2
				c-0.2,0.2-0.5,0.5-0.9,0.9c-0.4,0.4-0.9,0.8-1.5,1.1c-0.6,0.4-1.4,0.7-2.3,0.9c-0.9,0.3-1.9,0.4-3,0.3c-1.1,0-2.2-0.3-3.3-0.7
				c-1-0.5-1.9-1.1-2.7-1.9c-0.8-0.8-1.4-1.7-1.8-2.7c-0.5-1-0.7-2.2-0.7-3.3c0-1.2,0.2-2.3,0.7-3.4c0.4-1,1-2,1.8-2.7
				c0.8-0.8,1.7-1.4,2.7-1.8C276.6,33.1,277.7,32.9,278.8,32.9z M283.3,39.6c0,0,0-0.1,0-0.1c-0.1-0.3-0.3-0.6-0.5-1
				c-0.2-0.4-0.5-0.7-0.8-1c-0.3-0.3-0.8-0.6-1.3-0.8c-0.5-0.2-1.1-0.3-1.8-0.3c-0.7,0-1.4,0.1-1.9,0.4c-0.5,0.3-0.9,0.6-1.3,0.9
				c-0.3,0.4-0.6,0.7-0.7,1.1c-0.2,0.4-0.3,0.6-0.3,0.8v0.1c0,0,0,0,0.1,0h8.4C283.3,39.7,283.3,39.6,283.3,39.6z"/>
			<path fill="#FFFFFF" d="M290.5,33.5c0-0.1,0.1-0.3,0.2-0.4c0.1-0.1,0.2-0.1,0.3-0.1h1.8c0.3,0,0.5,0.1,0.5,0.4l0.1,0.6
				c0,0.2,0,0.3,0.1,0.5c0,0.2,0,0.2,0,0.3c0,0.2,0.1,0.2,0.3,0.1c0.1-0.2,0.3-0.5,0.6-0.7c0.2-0.3,0.5-0.5,0.9-0.7
				c0.3-0.2,0.7-0.4,1.1-0.6c0.4-0.1,0.9-0.2,1.4-0.2c0.3,0,0.6,0,1,0.1c0.3,0,0.7,0.1,0.9,0.2c0.3,0.1,0.5,0.2,0.6,0.4
				c0.2,0.2,0.2,0.3,0.1,0.5l-1.3,2.4c-0.1,0.2-0.4,0.3-0.9,0.1c-0.6-0.2-1.1-0.2-1.6,0c-0.5,0.2-0.9,0.4-1.2,0.8
				c-0.3,0.4-0.5,0.8-0.7,1.3c-0.2,0.5-0.2,0.9-0.2,1.4v9.6c0,0.3-0.2,0.5-0.7,0.5H291c-0.1,0-0.2-0.1-0.3-0.2
				c-0.1-0.1-0.2-0.2-0.2-0.3V33.5z"/>
		</g>
	</g>
	<g>
		<path fill="#FFFFFF" d="M92.4,62.9l-2.5,8.7h-1.8l-3.4-12.1h1.8l2.6,9.1h0.1l2.6-9.1h1.7l2.5,9.1H96l2.6-9.1h1.7l-3.5,12.1H95
			l-2.5-8.7H92.4z"/>
		<path fill="#FFFFFF" d="M109.2,67.5c0,1.4-0.4,2.5-1.2,3.3c-0.7,0.7-1.7,1.1-2.9,1.1c-1.2,0-2.2-0.4-2.9-1.1
			c-0.8-0.8-1.2-1.9-1.2-3.3v-0.7c0-1.4,0.4-2.5,1.2-3.3c0.7-0.7,1.7-1.1,2.9-1.1c1.2,0,2.2,0.4,2.9,1.1c0.8,0.8,1.2,1.9,1.2,3.3
			V67.5z M107.6,67c0-1.1-0.2-1.9-0.7-2.4c-0.4-0.5-1-0.7-1.8-0.7c-1.2,0-1.9,0.6-2.3,1.7c-0.1,0.4-0.2,0.9-0.2,1.5v0.3
			c0,1.1,0.2,1.9,0.7,2.4c0.4,0.5,1,0.7,1.8,0.7c1.2,0,1.9-0.6,2.3-1.7c0.1-0.4,0.2-0.9,0.2-1.4V67z"/>
		<path fill="#FFFFFF" d="M118.3,65.3l-0.1,0.7h-1.5v-0.4c0-0.4-0.1-0.7-0.3-1c-0.4-0.5-0.9-0.8-1.4-0.8c-0.6,0-1.1,0.3-1.4,0.8
			c-0.3,0.4-0.4,1-0.4,1.7v5.4h-1.7v-9h1.2L113,64c0.2-0.5,0.7-1,1.4-1.3c0.3-0.2,0.7-0.2,1.2-0.2c0.4,0,0.8,0.1,1.2,0.2
			c0.3,0.1,0.6,0.3,0.8,0.6C118.1,63.8,118.3,64.5,118.3,65.3z"/>
		<path fill="#FFFFFF" d="M125.9,71.6l-2.7-3.3l-1.4,1.4v1.9h-1.7V59h1.7v8.7l4-5h1.8l-3.5,4.4l3.7,4.6H125.9z"/>
		<path fill="#FFFFFF" d="M130,61.4c0-1.7,0.7-2.6,2.1-2.6c0.7,0,1.2,0.1,1.7,0.3v1.2c-0.4-0.2-0.7-0.2-0.9-0.2c-0.2,0-0.4,0-0.5,0
			c-0.1,0-0.2,0.1-0.3,0.2c-0.2,0.2-0.3,0.5-0.3,0.9v1.4h2.1V64h-2.1v7.7H130V64h-1v-1.3h1V61.4z"/>
		<path fill="#FFFFFF" d="M135.7,71.6V59h1.7v12.7H135.7z"/>
		<path fill="#FFFFFF" d="M148,67.5c0,1.4-0.4,2.5-1.2,3.3c-0.7,0.7-1.7,1.1-2.9,1.1c-1.2,0-2.2-0.4-2.9-1.1
			c-0.8-0.8-1.2-1.9-1.2-3.3v-0.7c0-1.4,0.4-2.5,1.2-3.3c0.7-0.7,1.7-1.1,2.9-1.1c1.2,0,2.2,0.4,2.9,1.1c0.8,0.8,1.2,1.9,1.2,3.3
			V67.5z M146.4,67c0-1.1-0.2-1.9-0.7-2.4c-0.4-0.5-1-0.7-1.8-0.7c-1.2,0-1.9,0.6-2.3,1.7c-0.1,0.4-0.2,0.9-0.2,1.5v0.3
			c0,1.1,0.2,1.9,0.7,2.4c0.4,0.5,1,0.7,1.8,0.7c1.2,0,1.9-0.6,2.3-1.7c0.1-0.4,0.2-0.9,0.2-1.4V67z"/>
		<path fill="#FFFFFF" d="M156,65.4l-2,6.3h-1.7l-3-9h1.7l2.1,6.6h0.1l2.1-6.6h1.6l2.1,6.6h0.1l2.1-6.6h1.6l-2.9,9h-1.7L156,65.4
			L156,65.4z"/>
		<path fill="#FFFFFF" d="M170.1,67.9l0,0.4c0,0.7,0.3,1.2,0.8,1.5c0.5,0.3,1.2,0.5,2.1,0.5s1.6-0.2,2.1-0.5
			c0.5-0.3,0.8-0.8,0.8-1.3c0-0.6-0.2-1-0.5-1.2c-0.4-0.3-0.8-0.5-1.3-0.6c-0.5-0.2-1.1-0.3-1.7-0.5c-0.6-0.1-1.2-0.3-1.7-0.6
			c-0.5-0.3-1-0.6-1.3-1c-0.4-0.4-0.5-1-0.5-1.6c0-0.7,0.1-1.2,0.3-1.6c0.2-0.4,0.5-0.8,0.9-1c0.8-0.5,1.8-0.8,3.1-0.8
			c1.2,0,2.2,0.3,3,0.8c0.8,0.6,1.2,1.4,1.2,2.6V63h-1.7v-0.3c0-0.6-0.2-1-0.7-1.3c-0.5-0.3-1.1-0.4-1.8-0.4c-1.2,0-2,0.3-2.4,0.9
			c-0.1,0.2-0.2,0.4-0.2,0.7c0,0.5,0.2,0.8,0.5,1.1c0.4,0.2,0.8,0.5,1.3,0.6c0.5,0.2,1.1,0.3,1.7,0.5c0.6,0.1,1.2,0.3,1.7,0.6
			c0.5,0.3,1,0.6,1.3,1c0.4,0.4,0.5,1,0.5,1.7c0,0.7-0.1,1.3-0.4,1.8c-0.2,0.5-0.6,0.9-1,1.2c-0.8,0.6-1.9,0.8-3.3,0.8
			c-2.1,0-3.5-0.6-4.2-1.9c-0.2-0.5-0.4-1-0.4-1.7l0-0.4H170.1z"/>
		<path fill="#FFFFFF" d="M179.9,59h1.7v1.5h-1.7V59z M180,71.6v-9h1.7v9H180z"/>
		<path fill="#FFFFFF" d="M189.9,65.9c0-1.4-0.5-2.1-1.6-2.1c-0.6,0-1.1,0.2-1.5,0.7c-0.4,0.5-0.6,1.1-0.6,1.8v5.3h-1.7v-9h1.2
			L186,64c0.7-1,1.6-1.5,2.8-1.5c1.2,0,2,0.5,2.5,1.5c0.4-0.6,0.9-1,1.4-1.2c0.5-0.2,0.9-0.3,1.4-0.3c0.4,0,0.8,0.1,1.2,0.2
			c0.3,0.1,0.7,0.3,0.9,0.6c0.5,0.5,0.8,1.3,0.8,2.4v6h-1.7v-5.8c0-1.4-0.5-2.1-1.6-2.1c-0.6,0-1.1,0.2-1.5,0.7
			c-0.4,0.5-0.6,1.1-0.6,1.8v5.3h-1.7V65.9z"/>
		<path fill="#FFFFFF" d="M201.4,70.5v4.3h-1.7V62.7h1.2c0.1,0.2,0.1,0.6,0.2,1.2c0.7-0.9,1.6-1.4,2.8-1.4c1.1,0,1.9,0.4,2.6,1.1
			c0.7,0.8,1.1,2,1.1,3.6v0.2c0,1.4-0.3,2.5-1,3.3c-0.6,0.8-1.5,1.1-2.6,1.1C202.9,71.8,202,71.4,201.4,70.5z M206,67.1
			c0-1.8-0.5-2.8-1.4-3.2c-0.3-0.1-0.6-0.2-0.9-0.2c-0.7,0-1.3,0.2-1.7,0.7c-0.4,0.6-0.6,1.4-0.6,2.6c0,1.8,0.5,2.8,1.4,3.2
			c0.3,0.1,0.6,0.2,0.9,0.2c0.7,0,1.3-0.2,1.7-0.7C205.8,69.2,206,68.3,206,67.1z"/>
		<path fill="#FFFFFF" d="M210.1,71.6V59h1.7v12.7H210.1z"/>
		<path fill="#FFFFFF" d="M214.7,59h1.7v1.5h-1.7V59z M214.8,71.6v-9h1.7v9H214.8z"/>
		<path fill="#FFFFFF" d="M219.6,61.4c0-1.7,0.7-2.6,2.1-2.6c0.7,0,1.2,0.1,1.7,0.3v1.2c-0.4-0.2-0.7-0.2-0.9-0.2
			c-0.2,0-0.4,0-0.5,0c-0.1,0-0.2,0.1-0.3,0.2c-0.2,0.2-0.3,0.5-0.3,0.9v1.4h2.1V64h-2.1v7.7h-1.7V64h-1v-1.3h1V61.4z"/>
		<path fill="#FFFFFF" d="M225.2,59h1.7v1.5h-1.7V59z M225.2,71.6v-9h1.7v9H225.2z"/>
		<path fill="#FFFFFF" d="M230.9,67.5c0,1.4,0.5,2.3,1.4,2.7c0.3,0.2,0.7,0.2,1.2,0.2c0.5,0,0.8-0.1,1.1-0.3
			c0.3-0.2,0.5-0.4,0.7-0.6c0.2-0.4,0.4-0.8,0.4-1.3h1.6c0,1.1-0.4,1.9-1.1,2.6c-0.7,0.6-1.6,1-2.7,1h-0.1c-1.2,0-2.2-0.4-3-1.2
			c-0.8-0.8-1.1-1.9-1.1-3.3V67c0-1.4,0.4-2.5,1.1-3.3c0.7-0.8,1.7-1.2,2.9-1.2h0.1c1.1,0,2,0.3,2.7,1c0.7,0.7,1.1,1.6,1.1,2.8v1.2
			H230.9z M233.3,63.8c-0.7,0-1.2,0.2-1.6,0.6c-0.4,0.4-0.7,1-0.8,1.8h4.6V66c0-0.7-0.2-1.3-0.7-1.7C234.5,64,233.9,63.8,233.3,63.8
			z"/>
		<path fill="#FFFFFF" d="M245.2,63.8V59h1.7v12.7h-1.2c-0.1-0.2-0.1-0.6-0.2-1.2c-0.7,0.9-1.6,1.4-2.8,1.4c-1.1,0-1.9-0.4-2.6-1.1
			c-0.7-0.8-1.1-2-1.1-3.6v-0.2c0-1.4,0.3-2.5,1-3.3c0.6-0.8,1.5-1.1,2.6-1.1S244.6,62.9,245.2,63.8z M240.7,67.2
			c0,1.8,0.5,2.8,1.4,3.2c0.3,0.1,0.6,0.2,0.9,0.2c1.5,0,2.3-1.1,2.3-3.3c0-1.8-0.5-2.8-1.4-3.2c-0.3-0.1-0.6-0.2-0.9-0.2
			c-0.7,0-1.3,0.2-1.7,0.7C240.9,65.1,240.7,66,240.7,67.2z"/>
	</g>
	<g>
		<path fill="#FFFFFF" d="M312.9,32c0,2.7-2.2,4.9-5,4.9c-2.8,0-5-2.2-5-4.9c0-2.7,2.2-4.8,5-4.8C310.7,27.2,312.9,29.3,312.9,32z
			 M304.2,32c0,2.2,1.6,3.9,3.8,3.9c2.1,0,3.7-1.7,3.7-3.8c0-2.2-1.6-3.9-3.7-3.9C305.8,28.1,304.2,29.9,304.2,32z M307.2,34.5H306
			v-4.8c0.4-0.1,1.1-0.1,1.9-0.1c0.9,0,1.3,0.1,1.7,0.4c0.3,0.2,0.5,0.6,0.5,1.1c0,0.5-0.4,0.9-1,1.1v0.1c0.5,0.2,0.7,0.5,0.9,1.2
			c0.1,0.7,0.2,1,0.4,1.2h-1.2c-0.1-0.2-0.2-0.6-0.4-1.2c-0.1-0.5-0.4-0.8-1-0.8h-0.5V34.5z M307.2,31.8h0.5c0.6,0,1.1-0.2,1.1-0.7
			c0-0.4-0.3-0.7-1-0.7c-0.3,0-0.5,0-0.6,0.1V31.8z"/>
	</g>
	<g>
		<circle fill="#3397E1" cx="36.3" cy="36.2" r="36.2"/>
		<path fill="#3397E1" d="M36.2,0.2C16.2,0.2,0,16.3,0,36.2c0,11.7,5.6,22.1,14.4,28.6l0-30c0.3-10.9,9.8-20.4,21.6-20.4
			c11.9,0,21.6,9.6,21.6,21.3c0,11.7-9.3,21.3-21.2,21.3c-2,0-4.3-0.3-5.3-0.8v-8.8c1,0.8,3.3,1.3,5.3,1.3c7.2,0,12.9-5.7,12.9-12.8
			C49.2,28.7,43.3,23,36,23C28.8,23,23,28.8,23,35.9l0,33.7c4.1,1.6,8.5,2.5,13.2,2.5c20,0,36.2-16.1,36.2-35.9
			C72.3,16.3,56.1,0.2,36.2,0.2z"/>
		<path fill="#FFFFFF" d="M23.2,69.9c0-0.1,0-0.1,0-0.2c0,0-0.1,0-0.1,0l0-33.7c0-7.1,5.8-12.9,13-12.9c7.2,0,13.1,5.7,13.1,12.8
			c0,7.1-5.7,12.8-13,12.8c-2,0-4.1-0.5-5.5-1.3v8.8c1.4,0.5,3.5,0.8,5.5,0.8c11.9,0,21.4-9.6,21.4-21.3C57.6,24,48,14.5,36,14.5
			c-11.7,0-21.3,9.5-21.6,20.4l0,30c0,0,0,0,0,0c0,0.1,0,0.1,0,0.2C17.1,67,20,68.7,23.2,69.9z"/>
	</g>
</g>
</svg>
