<?xml version="1.0" encoding="utf-8"?>
<!-- Generator: Adobe Illustrator 15.0.0, SVG Export Plug-In . SVG Version: 6.00 Build 0)  -->
<!DOCTYPE svg PUBLIC "-//W3C//DTD SVG 1.1//EN" "http://www.w3.org/Graphics/SVG/1.1/DTD/svg11.dtd">
<svg version="1.1" xmlns="http://www.w3.org/2000/svg" xmlns:xlink="http://www.w3.org/1999/xlink" x="0px" y="0px" width="300px"
	 height="133px" viewBox="0 0 300 133" enable-background="new 0 0 300 133" xml:space="preserve">
<g id="Layer_1">
</g>
<g id="Layer_2">
	<path fill="#FFFFFF" d="M265.608,69.811c0,0-34.551,1.176-52.34-20.436c-5.439-6.322-10.064-16.771-10.828-26.904
		c-0.786-10.439-0.146-13.551,15.534-13.549c12.582-0.002,21.904,2.669,27.785,10.314c7.097,8.9,7.204,23.083-9.703,23.817
		C236.057,43.053,242.378,63.048,265.608,69.811z"/>
	<path fill="#346DF1" d="M253.258,13.061c0,0,20.437,19.554-4.558,31.462c0,0,7.927,21.656,33.374,22.494
		c5.587,0,7.646-1.469,7.646-8.38C289.72,47.758,283.985,21.294,253.258,13.061z"/>
	<path fill="#FFFFFF" d="M39.698,79.105c0,1.422-0.355,2.488-1.065,3.199c-0.712,0.711-1.938,1.131-3.684,1.26l-2.907,0.291
		c-4.071,0.387-7.093,1.809-9.063,4.264c-1.972,2.457-2.956,5.43-2.956,8.916v22.197c0,1.553-0.453,2.715-1.356,3.49
		c-0.906,0.775-2.069,1.162-3.49,1.162c-1.422,0-2.602-0.387-3.537-1.162c-0.938-0.775-1.406-1.938-1.406-3.49V79.783
		c0-1.486,0.469-2.633,1.406-3.439c0.936-0.809,2.115-1.213,3.537-1.213c1.292,0,2.375,0.404,3.247,1.213
		c0.872,0.807,1.31,1.922,1.31,3.344v4.652c1.291-2.844,3.164-5.008,5.621-6.494c2.454-1.486,5.234-2.359,8.336-2.617l1.357-0.098
		C38.147,74.938,39.698,76.264,39.698,79.105z"/>
	<path fill="#FFFFFF" d="M76.871,79.688c3.068,3.166,4.604,7.98,4.604,14.441v25.104c0,1.488-0.421,2.635-1.259,3.441
		c-0.841,0.807-2.005,1.211-3.49,1.211c-1.422,0-2.554-0.42-3.393-1.26c-0.841-0.838-1.261-1.971-1.261-3.393v-3.586
		c-1.228,2.713-3.053,4.797-5.476,6.254c-2.424,1.453-5.251,2.178-8.481,2.178c-3.102,0-5.945-0.629-8.529-1.889
		c-2.586-1.26-4.604-3.02-6.059-5.283c-1.453-2.26-2.181-4.781-2.181-7.559c0-3.426,0.888-6.123,2.666-8.094
		c1.776-1.971,4.716-3.377,8.82-4.219c4.103-0.838,9.741-1.258,16.913-1.258h2.23v-2.811c0-3.619-0.744-6.236-2.23-7.852
		s-3.877-2.424-7.172-2.424c-2.263,0-4.396,0.291-6.397,0.873c-2.004,0.582-4.201,1.42-6.591,2.52
		c-1.745,0.969-2.973,1.455-3.684,1.455c-0.969,0-1.762-0.355-2.375-1.068c-0.614-0.709-0.921-1.613-0.921-2.713
		c0-0.971,0.274-1.826,0.825-2.568c0.548-0.744,1.437-1.469,2.665-2.182c2.261-1.227,4.91-2.213,7.948-2.955
		c3.036-0.744,5.976-1.115,8.82-1.115C69.132,74.938,73.802,76.521,76.871,79.688z M68.584,113.176
		c2.261-2.424,3.393-5.541,3.393-9.354v-2.521h-1.745c-5.04,0-8.918,0.229-11.632,0.678c-2.714,0.455-4.652,1.213-5.815,2.279
		c-1.162,1.064-1.744,2.602-1.744,4.605c0,2.324,0.839,4.232,2.52,5.719c1.68,1.486,3.78,2.229,6.3,2.229
		C63.413,116.811,66.321,115.598,68.584,113.176z"/>
	<path fill="#FFFFFF" d="M134.881,94.031v25.201c0,1.488-0.436,2.635-1.309,3.441c-0.872,0.807-2.084,1.211-3.635,1.211
		c-1.486,0-2.665-0.42-3.537-1.26c-0.873-0.838-1.31-1.971-1.31-3.393V94.518c0-4.008-0.792-6.947-2.374-8.822
		c-1.584-1.873-4.056-2.811-7.416-2.811c-3.941,0-7.108,1.229-9.498,3.684c-2.391,2.457-3.586,5.752-3.586,9.887v22.777
		c0,1.422-0.437,2.555-1.309,3.393c-0.872,0.84-2.052,1.26-3.539,1.26c-1.486,0-2.682-0.42-3.586-1.26
		c-0.905-0.838-1.356-1.971-1.356-3.393V79.783c0-1.355,0.468-2.471,1.405-3.344c0.937-0.873,2.116-1.309,3.537-1.309
		s2.553,0.422,3.394,1.26c0.839,0.842,1.26,1.939,1.26,3.297v3.973c1.551-2.842,3.715-5.008,6.494-6.492
		c2.777-1.486,5.913-2.23,9.401-2.23C129.226,74.938,134.881,81.303,134.881,94.031z"/>
	<path fill="#346DF1" d="M146.317,64.082c-1.099-1.034-1.646-2.391-1.646-4.071c0-1.68,0.548-3.02,1.646-4.023
		c1.099-1,2.584-1.501,4.46-1.501c1.809,0,3.278,0.501,4.409,1.501c1.13,1.003,1.696,2.343,1.696,4.023
		c0,1.681-0.55,3.037-1.647,4.071c-1.1,1.034-2.586,1.55-4.458,1.55C148.901,65.632,147.416,65.116,146.317,64.082z
		 M147.237,122.723c-0.937-0.775-1.405-1.938-1.405-3.49V79.879c0-1.549,0.469-2.729,1.405-3.535
		c0.938-0.809,2.117-1.213,3.54-1.213c1.42,0,2.582,0.404,3.489,1.213c0.904,0.807,1.356,1.986,1.356,3.535v39.354
		c0,1.553-0.452,2.715-1.356,3.49c-0.907,0.775-2.069,1.162-3.489,1.162C149.354,123.885,148.175,123.498,147.237,122.723z"/>
	<path fill="#FFFFFF" d="M207.041,76.391c0.873,0.842,1.311,2.004,1.311,3.488v39.451c0,1.357-0.454,2.457-1.358,3.295
		c-0.905,0.84-2.101,1.26-3.586,1.26c-1.356,0-2.456-0.404-3.295-1.211c-0.841-0.807-1.261-1.889-1.261-3.246v-3.684
		c-1.487,2.713-3.537,4.781-6.154,6.203s-5.541,2.131-8.773,2.131c-11.502,0-17.252-6.332-17.252-18.996V79.879
		c0-1.484,0.436-2.646,1.309-3.488c0.871-0.838,2.084-1.26,3.635-1.26c1.486,0,2.666,0.422,3.537,1.26
		c0.873,0.842,1.309,2.004,1.309,3.488v25.105c0,3.814,0.775,6.625,2.326,8.434c1.552,1.809,3.94,2.713,7.174,2.713
		c3.812,0,6.864-1.227,9.16-3.684c2.291-2.453,3.439-5.717,3.439-9.789V79.879c0-1.42,0.453-2.566,1.358-3.439
		c0.904-0.873,2.098-1.309,3.585-1.309C204.99,75.131,206.17,75.553,207.041,76.391z"/>
	<path fill="#FFFFFF" d="M289.768,94.031v25.201c0,1.488-0.451,2.635-1.355,3.441c-0.906,0.807-2.102,1.211-3.588,1.211
		c-1.421,0-2.585-0.404-3.489-1.211c-0.905-0.807-1.356-1.953-1.356-3.441V94.129c0-3.941-0.711-6.799-2.134-8.578
		c-1.421-1.777-3.65-2.666-6.688-2.666c-3.555,0-6.364,1.211-8.433,3.635s-3.102,5.736-3.102,9.936v22.777
		c0,1.488-0.452,2.635-1.356,3.441c-0.906,0.807-2.1,1.211-3.587,1.211c-1.422,0-2.585-0.404-3.489-1.211
		c-0.905-0.807-1.356-1.953-1.356-3.441V94.129c0-3.941-0.711-6.799-2.133-8.578c-1.423-1.777-3.652-2.666-6.688-2.666
		c-3.554,0-6.381,1.211-8.48,3.635c-2.101,2.424-3.15,5.736-3.15,9.936v22.777c0,1.488-0.452,2.635-1.356,3.441
		c-0.906,0.807-2.069,1.211-3.489,1.211c-1.423,0-2.603-0.404-3.539-1.211s-1.404-1.953-1.404-3.441V79.783
		c0-1.422,0.484-2.551,1.454-3.393c0.969-0.838,2.132-1.26,3.489-1.26c1.356,0,2.472,0.404,3.345,1.213
		c0.871,0.807,1.307,1.922,1.307,3.344v3.586c1.421-2.715,3.393-4.781,5.913-6.205c2.521-1.418,5.428-2.131,8.724-2.131
		c3.618,0,6.606,0.744,8.966,2.23c2.358,1.484,4.119,3.779,5.282,6.881c1.422-2.777,3.522-4.992,6.302-6.641
		c2.776-1.646,5.942-2.471,9.497-2.471C284.468,74.938,289.768,81.303,289.768,94.031z"/>
</g>
</svg>
