<?xml version="1.0" encoding="UTF-8" standalone="no"?>
<svg
   xmlns:dc="http://purl.org/dc/elements/1.1/"
   xmlns:cc="http://creativecommons.org/ns#"
   xmlns:rdf="http://www.w3.org/1999/02/22-rdf-syntax-ns#"
   xmlns:svg="http://www.w3.org/2000/svg"
   xmlns="http://www.w3.org/2000/svg"
   id="svg3734"
   version="1.1"
   viewBox="0 0 39.687499 35.983334"
   height="136"
   width="150">
  <defs
     id="defs3728" />
  <metadata
     id="metadata3731">
    <rdf:RDF>
      <cc:Work
         rdf:about="">
        <dc:format>image/svg+xml</dc:format>
        <dc:type
           rdf:resource="http://purl.org/dc/dcmitype/StillImage" />
        <dc:title></dc:title>
      </cc:Work>
    </rdf:RDF>
  </metadata>
  <g
     transform="translate(0,-261.01665)"
     id="layer1">
    <path
       id="path14"
       style="fill:#ed1c24;fill-opacity:1;fill-rule:nonzero;stroke:none;stroke-width:0.03307291"
       d="m 20.888513,294.85493 v -15.09882 l 4.65964,4.65998 c 0.0473,0.0473 0.0989,0.089 0.15313,0.12568 l 10.313131,10.31316 z m 1.53756,-16.59768 h 7.77511 l -3.88739,3.88772 z m 10.36637,-15.0118 -6.49188,6.49122 -5.70475,-5.70408 c -6.6e-4,-6.6e-4 -0.002,-0.001 -0.002,-0.002 l -0.78549,-0.78547 z m -7.24429,8.74944 c 0.0992,0.0995 0.21465,0.17628 0.33999,0.2292 0.001,3.2e-4 0.003,0.001 0.004,0.002 0.0384,0.0159 0.079,0.0248 0.11906,0.0364 0.0268,0.008 0.0523,0.0185 0.0797,0.0241 0.0271,0.005 0.0552,0.005 0.083,0.008 0.0417,0.005 0.0827,0.0126 0.12568,0.0126 3.2e-4,0 3.2e-4,0 9.8e-4,0 0.2841,0 0.55132,-0.11047 0.75241,-0.31221 l 4.65169,-4.65168 v 8.7802 h -10.81617 v -8.78814 l 0.0579,0.0579 z M 3.6347031,289.09954 18.759943,273.97365 v 15.12589 z m 2.00323,5.77126 3.2186498,-3.64318 h 8.5754801 l -3.21833,3.64318 z m 33.6983209,0.29624 -11.517311,-11.51692 5.710041,-5.7107 c 0.23118,-0.23184 0.338,-0.55033 0.30427,-0.8642 v -11.86061 l 2.28236,-2.28236 c 0.30427,-0.30526 0.39489,-0.76101 0.22953,-1.15854 -0.1657,-0.40018 -0.55133,-0.65749 -0.98293,-0.65749 H 17.238913 c -0.43226,0 -0.81789,0.25731 -0.98425,0.65848 -0.16404,0.39886 -0.0728,0.85328 0.23184,1.15854 l 2.27344,2.27344 v 5.75733 L 0.31451311,289.40944 c -0.30758,0.30526 -0.39886,0.76087 -0.2325,1.16188 0.16503,0.39883 0.55066,0.6563 0.98324999,0.6563 h 4.95168 l -3.53847,4.00556 c -0.27517,0.3133 -0.34264,0.7621 -0.17165,1.13804 0.17099,0.38176 0.55199,0.62878 0.97069,0.62878 H 14.693953 c 0.30526,0 0.59631,-0.13189 0.79673,-0.3598 l 3.26926,-3.7003 v 2.98034 c 0,0.58665 0.47724,1.06389 1.06461,1.06389 h 18.759291 c 0.43193,0 0.81756,-0.25738 0.98392,-0.65852 0.16404,-0.39852 0.0734,-0.85328 -0.23151,-1.15857" />
  </g>
</svg>
