<svg id="svg" version="1.1" width="400" height="100.65789473684211" viewBox="0 0 400 100.65789473684211" xmlns="http://www.w3.org/2000/svg" xmlns:xlink="http://www.w3.org/1999/xlink" ><g id="svgg"><path id="path0" d="M58.833 10.307 L 58.833 12.114 60.542 12.294 C 62.610 12.511,66.218 13.160,66.333 13.335 C 66.379 13.404,66.864 13.553,67.410 13.666 C 67.956 13.779,68.556 13.970,68.743 14.090 C 68.930 14.210,69.365 14.360,69.708 14.423 C 70.052 14.486,70.333 14.594,70.333 14.664 C 70.333 14.733,70.671 14.885,71.083 15.000 C 71.496 15.115,71.833 15.275,71.833 15.355 C 71.833 15.435,71.917 15.500,72.019 15.500 C 72.306 15.500,76.000 17.371,76.000 17.517 C 76.000 17.587,76.262 17.740,76.583 17.856 C 76.904 17.972,77.167 18.129,77.167 18.204 C 77.167 18.280,77.354 18.413,77.583 18.500 C 77.813 18.587,78.000 18.723,78.000 18.802 C 78.000 18.882,78.174 19.026,78.387 19.123 C 78.599 19.219,79.143 19.606,79.595 19.981 C 80.047 20.356,80.628 20.833,80.886 21.040 C 81.571 21.589,84.672 24.670,85.215 25.342 C 85.471 25.658,85.866 26.142,86.093 26.417 C 86.320 26.692,86.711 27.217,86.961 27.583 C 87.211 27.950,87.510 28.310,87.625 28.383 C 87.739 28.457,87.833 28.628,87.833 28.764 C 87.833 28.899,87.939 29.051,88.068 29.101 C 88.198 29.150,88.348 29.368,88.402 29.584 C 88.456 29.800,88.594 30.078,88.709 30.203 C 88.968 30.484,89.410 31.235,89.766 32.000 C 89.915 32.321,90.089 32.621,90.152 32.667 C 90.215 32.712,90.406 33.125,90.577 33.583 C 90.747 34.042,90.930 34.454,90.985 34.500 C 91.100 34.597,91.413 35.375,91.857 36.667 C 92.030 37.171,92.234 37.696,92.310 37.833 C 92.386 37.971,92.545 38.496,92.663 39.000 C 92.781 39.504,92.935 39.992,93.005 40.083 C 93.076 40.175,93.232 40.850,93.351 41.583 C 93.471 42.317,93.618 42.954,93.678 43.000 C 94.289 43.463,94.277 56.229,93.665 56.667 C 93.601 56.712,93.454 57.369,93.337 58.125 C 93.221 58.881,93.056 59.500,92.970 59.500 C 92.884 59.500,92.860 59.575,92.917 59.667 C 92.976 59.762,93.833 59.833,94.919 59.833 L 96.818 59.833 96.921 59.208 C 96.978 58.865,97.094 58.433,97.180 58.250 C 98.100 56.288,98.109 43.375,97.192 41.423 C 97.104 41.236,96.944 40.540,96.835 39.876 C 96.726 39.211,96.579 38.632,96.509 38.589 C 96.438 38.545,96.285 38.058,96.168 37.505 C 96.050 36.952,95.898 36.500,95.829 36.500 C 95.760 36.500,95.651 36.219,95.587 35.875 C 95.522 35.531,95.289 34.868,95.068 34.401 C 94.847 33.933,94.667 33.427,94.667 33.276 C 94.667 33.124,94.592 33.000,94.500 33.000 C 94.408 33.000,94.333 32.910,94.333 32.800 C 94.333 32.513,92.469 28.833,92.324 28.833 C 92.257 28.833,92.157 28.651,92.101 28.428 C 92.045 28.206,91.905 27.924,91.790 27.803 C 91.675 27.682,91.132 26.915,90.582 26.099 C 90.033 25.283,89.377 24.394,89.125 24.123 C 88.873 23.853,88.667 23.595,88.667 23.551 C 88.667 23.472,86.585 21.118,85.907 20.431 C 85.574 20.093,83.216 18.046,82.290 17.291 C 82.038 17.085,81.700 16.802,81.540 16.661 C 81.381 16.520,80.912 16.183,80.500 15.911 C 80.087 15.640,79.712 15.372,79.667 15.315 C 79.621 15.259,79.358 15.085,79.083 14.928 C 78.808 14.772,78.283 14.463,77.917 14.242 C 77.550 14.021,76.987 13.708,76.667 13.545 C 76.346 13.383,76.046 13.204,76.000 13.148 C 75.954 13.093,75.635 12.946,75.292 12.823 C 74.948 12.700,74.667 12.552,74.667 12.493 C 74.667 12.435,74.367 12.288,74.000 12.167 C 73.633 12.046,73.333 11.892,73.333 11.825 C 73.333 11.758,73.130 11.652,72.881 11.589 C 72.632 11.527,72.123 11.337,71.750 11.167 C 71.377 10.997,70.849 10.804,70.578 10.739 C 70.306 10.674,70.006 10.561,69.912 10.487 C 69.818 10.414,69.181 10.228,68.496 10.074 C 67.810 9.920,67.175 9.736,67.083 9.664 C 66.992 9.593,66.317 9.441,65.583 9.327 C 64.850 9.213,64.175 9.063,64.083 8.994 C 63.882 8.843,60.813 8.500,59.660 8.500 L 58.833 8.500 58.833 10.307 M206.292 18.221 L 205.833 18.398 205.833 40.931 C 205.833 61.325,205.858 63.474,206.097 63.566 C 206.242 63.621,206.917 63.667,207.597 63.667 L 208.833 63.667 208.833 55.833 L 208.833 48.000 212.816 48.000 C 216.716 48.000,220.157 47.777,220.330 47.514 C 220.378 47.441,220.692 47.331,221.028 47.269 C 221.364 47.207,222.077 46.935,222.611 46.664 C 223.146 46.393,223.677 46.170,223.792 46.169 C 223.906 46.168,224.000 46.092,224.000 46.000 C 224.000 45.908,224.095 45.833,224.211 45.833 C 224.663 45.833,227.074 43.714,227.940 42.555 C 228.202 42.204,228.548 41.771,228.708 41.594 C 228.869 41.416,229.000 41.178,229.000 41.066 C 229.000 40.953,229.060 40.836,229.133 40.806 C 229.308 40.733,230.333 38.587,230.333 38.294 C 230.333 38.169,230.413 37.987,230.510 37.890 C 231.468 36.932,231.406 29.956,230.422 28.069 C 230.283 27.802,230.168 27.457,230.168 27.304 C 230.167 27.150,230.070 26.925,229.951 26.804 C 229.833 26.682,229.631 26.321,229.502 26.000 C 229.374 25.679,229.227 25.379,229.176 25.333 C 229.125 25.287,228.823 24.875,228.505 24.417 C 227.765 23.350,227.698 23.266,227.000 22.514 C 226.306 21.767,224.473 20.333,224.212 20.333 C 224.111 20.333,224.003 20.277,223.972 20.208 C 223.886 20.015,221.785 19.000,221.472 19.000 C 221.319 19.000,221.169 18.925,221.139 18.833 C 221.108 18.741,220.446 18.584,219.667 18.483 C 218.887 18.382,218.117 18.230,217.954 18.146 C 217.537 17.929,206.871 17.998,206.292 18.221 M383.500 28.417 C 383.500 33.962,383.469 38.500,383.430 38.500 C 383.392 38.500,383.059 38.219,382.691 37.875 C 382.078 37.304,381.224 36.562,380.715 36.159 C 380.603 36.071,380.322 35.912,380.090 35.806 C 379.857 35.700,379.666 35.569,379.666 35.515 C 379.665 35.288,376.787 33.948,375.730 33.682 C 375.374 33.592,374.796 33.446,374.445 33.357 C 372.726 32.922,368.105 33.007,367.204 33.490 C 367.046 33.575,366.617 33.717,366.250 33.806 C 365.427 34.005,363.823 34.681,363.541 34.947 C 363.426 35.056,363.182 35.192,362.999 35.250 C 362.816 35.308,362.667 35.426,362.667 35.511 C 362.667 35.597,362.573 35.668,362.458 35.670 C 361.789 35.679,357.833 39.800,357.833 40.487 C 357.833 40.586,357.766 40.667,357.683 40.667 C 357.601 40.667,357.399 41.042,357.234 41.500 C 357.069 41.958,356.881 42.333,356.817 42.333 C 356.753 42.333,356.607 42.727,356.492 43.208 C 356.378 43.690,356.223 44.124,356.148 44.173 C 356.073 44.222,355.928 44.822,355.826 45.506 C 355.724 46.190,355.572 46.980,355.487 47.262 C 355.289 47.920,355.288 50.084,355.485 50.461 C 355.568 50.620,355.720 51.346,355.821 52.075 C 355.923 52.804,356.069 53.442,356.145 53.492 C 356.222 53.542,356.378 53.977,356.492 54.458 C 356.607 54.940,356.762 55.333,356.837 55.333 C 356.912 55.333,357.061 55.597,357.167 55.918 C 357.273 56.240,357.448 56.596,357.556 56.710 C 357.664 56.824,358.051 57.356,358.416 57.893 C 359.153 58.976,361.239 61.114,361.703 61.261 C 361.866 61.313,362.000 61.428,362.000 61.515 C 362.000 61.603,362.188 61.746,362.417 61.833 C 362.646 61.920,362.833 62.057,362.833 62.136 C 362.833 62.215,363.133 62.379,363.500 62.500 C 363.867 62.621,364.167 62.783,364.167 62.860 C 364.167 62.937,364.242 63.000,364.335 63.000 C 364.428 63.000,364.822 63.148,365.210 63.329 C 367.239 64.272,371.156 64.743,373.583 64.336 C 374.806 64.130,376.737 63.641,376.833 63.512 C 376.879 63.451,377.235 63.307,377.625 63.194 C 378.015 63.080,378.333 62.933,378.333 62.867 C 378.333 62.802,378.577 62.640,378.875 62.508 C 379.173 62.376,379.492 62.207,379.583 62.132 C 379.675 62.057,380.125 61.717,380.583 61.378 C 381.991 60.336,382.671 59.721,383.297 58.925 L 383.667 58.455 383.667 61.061 L 383.667 63.667 385.000 63.667 L 386.333 63.667 386.333 41.000 L 386.333 18.333 384.917 18.333 L 383.500 18.333 383.500 28.417 M218.083 21.351 C 218.908 21.452,219.621 21.590,219.667 21.658 C 219.713 21.726,219.975 21.836,220.250 21.903 C 220.908 22.061,222.121 22.649,222.766 23.122 C 223.049 23.330,223.331 23.500,223.392 23.500 C 223.835 23.500,226.279 26.379,226.681 27.375 C 226.783 27.627,226.925 27.833,226.997 27.833 C 227.068 27.833,227.217 28.189,227.326 28.623 C 227.435 29.057,227.593 29.494,227.676 29.594 C 228.249 30.285,228.251 36.667,227.678 36.667 C 227.615 36.667,227.468 37.037,227.352 37.490 C 227.236 37.943,227.034 38.403,226.904 38.511 C 226.773 38.619,226.667 38.805,226.667 38.925 C 226.667 39.045,226.568 39.242,226.448 39.363 C 226.327 39.484,226.151 39.722,226.056 39.892 C 225.781 40.387,224.023 42.107,223.272 42.616 C 222.893 42.873,222.558 43.140,222.528 43.208 C 222.497 43.277,222.400 43.333,222.312 43.333 C 222.225 43.333,221.686 43.552,221.115 43.819 C 220.544 44.085,219.779 44.358,219.414 44.424 C 219.049 44.490,218.660 44.615,218.550 44.702 C 218.308 44.894,210.321 45.097,209.450 44.934 L 208.833 44.818 208.833 32.992 L 208.833 21.167 212.708 21.167 C 214.840 21.167,217.258 21.250,218.083 21.351 M347.127 26.019 C 344.981 27.106,345.324 30.670,347.616 31.100 C 349.629 31.478,351.167 30.360,351.167 28.520 C 351.167 27.300,350.304 26.000,349.494 26.000 C 349.314 26.000,349.167 25.925,349.167 25.833 C 349.167 25.557,347.793 25.681,347.127 26.019 M286.218 33.165 C 285.651 33.245,285.051 33.379,284.885 33.461 C 284.719 33.544,284.152 33.711,283.625 33.832 C 283.098 33.954,282.667 34.104,282.667 34.167 C 282.667 34.229,282.367 34.370,282.000 34.480 C 281.633 34.590,281.333 34.746,281.333 34.827 C 281.333 34.907,281.109 35.023,280.834 35.083 C 280.560 35.143,280.279 35.281,280.209 35.388 C 280.140 35.496,279.860 35.696,279.587 35.834 C 278.946 36.156,276.069 39.019,275.923 39.480 C 275.861 39.675,275.760 39.833,275.697 39.834 C 275.635 39.834,275.321 40.340,275.000 40.959 C 274.679 41.577,274.370 42.121,274.312 42.167 C 274.254 42.212,274.076 42.700,273.916 43.250 C 273.756 43.800,273.560 44.400,273.480 44.583 C 272.895 45.923,272.894 52.408,273.478 52.832 C 273.542 52.879,273.697 53.327,273.822 53.828 C 274.070 54.822,275.417 57.502,275.776 57.717 C 275.899 57.790,276.002 57.940,276.005 58.050 C 276.008 58.160,276.271 58.509,276.589 58.825 C 276.907 59.142,277.167 59.458,277.167 59.528 C 277.167 59.657,278.803 61.044,279.494 61.500 C 279.702 61.637,280.032 61.869,280.228 62.013 C 280.739 62.392,282.732 63.333,283.022 63.333 C 283.156 63.333,283.339 63.406,283.428 63.494 C 284.153 64.220,290.353 64.734,291.493 64.164 C 291.635 64.094,292.237 63.947,292.833 63.838 C 293.429 63.728,293.942 63.570,293.972 63.486 C 294.003 63.402,294.139 63.333,294.274 63.333 C 294.582 63.333,296.730 62.315,296.806 62.133 C 296.836 62.060,296.932 62.000,297.018 62.000 C 297.208 62.000,298.616 61.044,299.103 60.583 C 299.297 60.400,299.803 59.922,300.228 59.521 L 301.000 58.791 301.003 61.021 C 301.006 63.785,300.950 63.694,302.598 63.633 L 303.917 63.583 303.959 49.618 L 304.002 35.654 302.543 35.702 L 301.083 35.750 301.000 37.220 L 300.917 38.689 299.728 37.553 C 298.076 35.974,297.988 35.905,296.708 35.226 C 296.410 35.068,296.167 34.887,296.167 34.824 C 296.167 34.761,295.829 34.615,295.417 34.500 C 295.004 34.385,294.667 34.232,294.667 34.162 C 294.667 34.091,294.273 33.943,293.792 33.833 C 293.310 33.722,292.586 33.524,292.183 33.393 C 291.290 33.101,287.647 32.962,286.218 33.165 M316.125 33.944 C 315.873 33.987,315.667 34.076,315.667 34.141 C 315.667 34.207,315.329 34.360,314.917 34.482 C 314.504 34.604,314.167 34.760,314.167 34.829 C 314.167 34.898,313.698 35.045,313.125 35.156 C 312.552 35.267,311.953 35.427,311.794 35.512 C 311.635 35.597,311.129 35.667,310.669 35.667 L 309.833 35.667 309.833 49.673 L 309.833 63.680 311.208 63.632 L 312.583 63.583 312.680 52.250 C 312.768 41.861,312.839 40.000,313.145 40.000 C 313.204 40.000,313.354 39.770,313.478 39.489 C 313.916 38.499,315.356 37.411,316.458 37.236 C 316.848 37.175,317.167 37.059,317.167 36.979 C 317.167 36.899,317.542 36.833,318.000 36.833 C 318.458 36.833,318.833 36.899,318.833 36.979 C 318.833 37.059,319.152 37.175,319.542 37.236 C 320.644 37.411,322.084 38.499,322.522 39.489 C 322.646 39.770,322.801 40.000,322.866 40.000 C 323.261 40.000,323.332 41.878,323.332 52.372 L 323.333 63.494 323.712 63.589 C 323.920 63.641,324.614 63.661,325.253 63.633 L 326.417 63.583 326.514 52.333 C 326.605 41.820,326.672 40.167,327.001 40.167 C 327.072 40.167,327.181 39.966,327.243 39.720 C 327.481 38.769,329.663 37.167,330.719 37.167 C 330.965 37.167,331.167 37.092,331.167 37.000 C 331.167 36.908,331.504 36.833,331.917 36.833 C 332.329 36.833,332.667 36.908,332.667 37.000 C 332.667 37.092,332.868 37.167,333.114 37.167 C 334.148 37.167,335.902 38.429,336.554 39.642 C 337.223 40.890,337.232 41.030,337.325 52.417 L 337.417 63.583 338.724 63.632 C 339.551 63.663,340.118 63.609,340.268 63.485 C 340.556 63.246,340.615 42.924,340.329 42.747 C 340.240 42.692,340.166 42.108,340.165 41.448 C 340.161 38.966,339.323 37.347,337.115 35.554 C 336.668 35.191,334.955 34.333,334.677 34.333 C 334.524 34.333,334.306 34.240,334.192 34.125 C 333.925 33.859,329.993 33.833,329.651 34.096 C 329.522 34.194,329.098 34.366,328.708 34.478 C 328.319 34.589,328.000 34.744,328.000 34.822 C 328.000 34.900,327.827 35.007,327.615 35.061 C 327.190 35.167,326.693 35.554,325.594 36.633 C 324.909 37.306,324.850 37.331,324.640 37.044 C 324.318 36.604,322.555 35.206,322.164 35.083 C 321.982 35.025,321.833 34.908,321.833 34.822 C 321.833 34.737,321.755 34.667,321.659 34.667 C 321.563 34.667,321.169 34.506,320.784 34.309 C 320.084 33.951,317.345 33.737,316.125 33.944 M234.583 35.500 C 234.527 35.592,234.260 35.667,233.990 35.667 C 233.721 35.667,233.500 35.708,233.500 35.760 C 233.500 36.076,233.894 37.333,233.993 37.333 C 234.059 37.333,234.212 37.633,234.333 38.000 C 234.454 38.367,234.607 38.667,234.672 38.667 C 234.737 38.667,234.885 39.004,235.000 39.417 C 235.115 39.829,235.263 40.167,235.328 40.167 C 235.393 40.167,235.546 40.467,235.667 40.833 C 235.788 41.200,235.942 41.500,236.009 41.500 C 236.076 41.500,236.181 41.703,236.244 41.951 C 236.306 42.199,236.661 43.042,237.032 43.826 C 237.404 44.609,237.923 45.706,238.187 46.263 C 238.451 46.820,238.667 47.364,238.667 47.472 C 238.667 47.579,238.739 47.667,238.827 47.667 C 238.915 47.667,239.077 47.967,239.186 48.333 C 239.296 48.700,239.439 49.000,239.505 49.000 C 239.570 49.000,239.718 49.337,239.833 49.750 C 239.949 50.163,240.103 50.500,240.175 50.500 C 240.247 50.500,240.431 50.875,240.583 51.333 C 240.736 51.792,240.920 52.167,240.993 52.167 C 241.065 52.167,241.173 52.405,241.231 52.697 C 241.290 52.989,241.439 53.346,241.564 53.489 C 241.689 53.633,241.881 54.031,241.992 54.375 C 242.102 54.719,242.250 55.000,242.320 55.000 C 242.390 55.000,242.537 55.300,242.647 55.667 C 242.757 56.033,242.907 56.333,242.980 56.333 C 243.585 56.333,243.550 59.641,242.938 60.252 C 242.804 60.387,242.644 60.722,242.584 60.998 C 242.523 61.274,242.410 61.500,242.333 61.500 C 242.256 61.500,242.105 61.764,241.999 62.086 C 241.893 62.409,241.560 63.143,241.260 63.718 C 240.961 64.294,240.624 65.042,240.511 65.382 C 240.399 65.722,240.248 66.000,240.175 66.000 C 240.103 66.000,239.949 66.337,239.833 66.750 C 239.718 67.162,239.558 67.500,239.478 67.500 C 239.399 67.500,239.333 67.588,239.333 67.695 C 239.333 67.886,238.966 68.699,237.648 71.423 C 237.292 72.160,237.000 72.891,237.000 73.048 C 237.000 73.205,236.920 73.333,236.822 73.333 C 236.724 73.333,236.667 73.502,236.697 73.708 C 236.814 74.537,239.813 74.185,240.091 73.310 C 240.139 73.157,240.289 72.989,240.423 72.937 C 240.557 72.886,240.669 72.748,240.672 72.630 C 240.675 72.513,240.862 72.042,241.087 71.583 C 241.312 71.125,241.498 70.656,241.498 70.542 C 241.499 70.427,241.570 70.333,241.655 70.333 C 241.741 70.333,241.862 70.165,241.925 69.958 C 242.040 69.583,242.403 68.762,243.419 66.583 C 244.752 63.726,245.000 63.151,245.000 62.916 C 245.000 62.779,245.072 62.667,245.160 62.667 C 245.248 62.667,245.410 62.367,245.520 62.000 C 245.630 61.633,245.781 61.333,245.857 61.333 C 245.933 61.333,246.080 60.996,246.184 60.583 C 246.288 60.171,246.436 59.833,246.513 59.833 C 246.590 59.833,246.743 59.533,246.853 59.167 C 246.963 58.800,247.110 58.500,247.180 58.500 C 247.250 58.500,247.400 58.219,247.512 57.875 C 247.625 57.531,247.810 57.100,247.923 56.917 C 248.037 56.733,248.219 56.302,248.328 55.958 C 248.437 55.615,248.595 55.333,248.680 55.333 C 248.764 55.333,248.833 55.245,248.833 55.136 C 248.833 54.900,249.204 54.093,251.804 48.667 C 252.177 47.887,252.532 47.044,252.593 46.792 C 252.653 46.540,252.770 46.333,252.851 46.333 C 252.933 46.333,253.000 46.259,253.000 46.168 C 253.000 46.077,253.375 45.221,253.833 44.266 C 254.292 43.311,254.667 42.448,254.667 42.348 C 254.667 42.248,254.727 42.167,254.800 42.167 C 254.873 42.167,255.034 41.885,255.157 41.542 C 255.280 41.198,255.708 40.242,256.107 39.418 C 256.507 38.594,256.833 37.832,256.833 37.724 C 256.833 37.616,256.901 37.503,256.983 37.472 C 257.065 37.442,257.249 37.023,257.391 36.542 L 257.649 35.667 256.177 35.667 C 254.711 35.667,254.705 35.668,254.304 36.208 C 253.856 36.813,252.833 38.854,252.833 39.145 C 252.833 39.249,252.758 39.333,252.667 39.333 C 252.575 39.333,252.500 39.406,252.500 39.496 C 252.500 39.585,252.275 40.150,252.000 40.750 C 251.725 41.350,251.500 41.915,251.500 42.004 C 251.500 42.094,251.437 42.167,251.360 42.167 C 251.283 42.167,251.121 42.467,251.000 42.833 C 250.879 43.200,250.717 43.500,250.640 43.500 C 250.563 43.500,250.500 43.586,250.500 43.692 C 250.500 43.798,250.275 44.361,250.000 44.943 C 249.725 45.525,249.500 46.076,249.500 46.167 C 249.500 46.259,249.440 46.333,249.366 46.333 C 249.293 46.333,249.091 46.727,248.919 47.208 C 248.746 47.690,248.509 48.179,248.392 48.297 C 248.275 48.415,248.131 48.771,248.071 49.089 C 248.012 49.407,247.902 49.667,247.828 49.667 C 247.753 49.667,247.601 49.948,247.489 50.292 C 247.377 50.635,247.233 50.954,247.170 51.000 C 247.031 51.101,246.255 52.758,246.081 53.326 C 245.760 54.375,245.095 54.026,244.745 52.625 C 244.682 52.373,244.569 52.167,244.495 52.167 C 244.420 52.167,244.267 51.885,244.155 51.542 C 244.043 51.198,243.812 50.655,243.642 50.336 C 243.472 50.016,243.333 49.669,243.333 49.565 C 243.333 49.460,243.233 49.291,243.111 49.189 C 242.988 49.088,242.789 48.704,242.667 48.336 C 242.546 47.968,242.384 47.667,242.307 47.667 C 242.230 47.667,242.167 47.585,242.167 47.485 C 242.167 47.385,241.839 46.617,241.438 45.777 C 241.037 44.937,240.657 44.081,240.593 43.875 C 240.530 43.669,240.420 43.500,240.349 43.500 C 240.278 43.500,240.118 43.181,239.992 42.792 C 239.867 42.402,239.485 41.521,239.143 40.833 C 238.801 40.146,238.471 39.377,238.409 39.125 C 238.348 38.873,238.230 38.667,238.149 38.667 C 238.067 38.667,238.000 38.591,238.000 38.498 C 238.000 37.594,236.462 35.667,235.741 35.667 C 235.517 35.667,235.333 35.592,235.333 35.500 C 235.333 35.408,235.188 35.333,235.010 35.333 C 234.832 35.333,234.640 35.408,234.583 35.500 M269.000 35.500 C 269.000 35.592,268.869 35.667,268.708 35.667 C 268.548 35.667,267.982 35.930,267.450 36.250 C 266.918 36.571,266.450 36.833,266.410 36.833 C 266.287 36.833,265.666 37.370,264.517 38.469 L 263.417 39.521 263.333 37.635 L 263.250 35.750 261.750 35.750 L 260.250 35.750 260.207 49.482 C 260.159 65.178,259.982 63.700,261.901 63.631 L 263.250 63.583 263.352 54.667 C 263.448 46.253,263.525 44.667,263.834 44.667 C 263.906 44.667,264.015 44.460,264.078 44.208 C 264.141 43.956,264.374 43.511,264.596 43.219 C 264.818 42.928,265.000 42.641,265.000 42.583 C 265.000 42.414,267.161 40.333,267.337 40.333 C 267.425 40.333,267.591 40.183,267.705 40.000 C 267.820 39.817,267.994 39.667,268.092 39.667 C 268.190 39.667,268.418 39.529,268.598 39.362 C 268.778 39.194,269.148 38.913,269.421 38.738 C 269.694 38.563,269.992 38.362,270.083 38.293 C 271.097 37.524,271.080 37.547,270.848 37.267 C 270.549 36.908,270.015 35.990,269.893 35.625 C 269.789 35.317,269.000 35.207,269.000 35.500 M347.041 49.625 L 347.083 63.583 348.458 63.632 L 349.833 63.680 349.833 49.673 L 349.833 35.667 348.416 35.667 L 346.998 35.667 347.041 49.625 M291.821 36.577 C 292.502 36.738,293.158 36.967,293.278 37.088 C 293.398 37.208,293.722 37.356,293.998 37.416 C 294.274 37.477,294.500 37.590,294.500 37.669 C 294.500 37.747,294.669 37.863,294.875 37.928 C 295.081 37.992,295.523 38.259,295.857 38.522 C 296.191 38.785,296.513 39.000,296.573 39.000 C 296.818 39.000,298.602 40.987,299.192 41.917 C 299.541 42.467,299.898 43.002,299.985 43.105 C 300.072 43.209,300.231 43.622,300.338 44.022 C 300.445 44.422,300.619 44.855,300.725 44.984 C 300.986 45.302,300.995 52.295,300.734 52.464 C 300.634 52.530,300.498 52.808,300.433 53.083 C 300.313 53.589,299.547 55.180,299.350 55.333 C 299.291 55.379,299.108 55.628,298.943 55.886 C 298.208 57.042,296.816 58.388,295.640 59.083 C 294.140 59.970,293.707 60.191,293.147 60.359 C 292.791 60.466,292.500 60.607,292.500 60.673 C 292.500 61.250,285.420 61.259,285.000 60.682 C 284.954 60.619,284.586 60.470,284.181 60.352 C 282.532 59.870,279.569 57.605,278.500 56.009 C 278.362 55.804,278.081 55.403,277.875 55.119 C 277.669 54.834,277.500 54.541,277.500 54.466 C 277.500 54.391,277.350 54.010,277.166 53.619 C 276.050 51.245,275.958 46.413,276.987 44.250 C 277.074 44.067,277.302 43.579,277.495 43.167 C 278.116 41.833,278.321 41.543,279.545 40.269 C 280.866 38.894,281.572 38.368,283.083 37.633 C 283.633 37.366,284.206 37.081,284.356 37.000 C 284.506 36.920,285.106 36.767,285.689 36.659 C 286.273 36.552,286.862 36.399,287.000 36.320 C 287.394 36.091,290.457 36.255,291.821 36.577 M373.167 36.310 C 373.167 36.389,373.538 36.498,373.992 36.551 C 374.445 36.605,375.214 36.831,375.700 37.053 C 376.186 37.276,376.696 37.508,376.833 37.569 C 377.153 37.711,377.569 37.966,378.478 38.580 C 379.159 39.039,381.333 41.096,381.333 41.281 C 381.333 41.327,381.492 41.588,381.685 41.860 C 382.241 42.640,382.797 43.753,383.020 44.533 C 383.133 44.927,383.305 45.354,383.402 45.482 C 383.716 45.891,383.610 51.650,383.278 52.250 C 383.126 52.525,383.000 52.862,382.997 53.000 C 382.977 54.052,379.327 58.833,378.543 58.833 C 378.462 58.833,378.250 58.965,378.071 59.125 C 377.715 59.445,376.158 60.229,375.500 60.420 C 375.271 60.486,375.008 60.600,374.917 60.672 C 374.127 61.292,368.335 61.290,367.587 60.670 C 367.491 60.590,367.057 60.435,366.623 60.326 C 366.189 60.217,365.833 60.066,365.833 59.991 C 365.833 59.917,365.665 59.804,365.458 59.741 C 364.952 59.586,363.500 58.645,363.500 58.472 C 363.500 58.396,363.406 58.333,363.291 58.333 C 363.113 58.333,362.072 57.299,361.167 56.224 C 360.574 55.519,359.559 53.442,359.329 52.462 C 359.216 51.979,359.039 51.478,358.937 51.349 C 358.693 51.044,358.689 46.196,358.932 46.033 C 359.027 45.969,359.202 45.467,359.322 44.917 C 359.442 44.367,359.589 43.879,359.648 43.833 C 359.707 43.788,360.006 43.262,360.312 42.667 C 360.618 42.071,361.011 41.449,361.185 41.285 C 361.358 41.121,361.500 40.921,361.500 40.840 C 361.500 40.616,362.830 39.348,363.583 38.854 C 363.950 38.614,364.344 38.328,364.459 38.220 C 364.574 38.111,364.833 37.970,365.035 37.906 C 365.236 37.842,365.501 37.690,365.623 37.568 C 365.744 37.446,366.104 37.298,366.422 37.238 C 366.740 37.178,367.000 37.071,367.000 37.000 C 367.000 36.929,367.506 36.778,368.125 36.664 C 368.744 36.550,369.363 36.394,369.500 36.317 C 369.831 36.132,373.167 36.126,373.167 36.310 M67.764 41.145 C 67.714 41.224,67.316 41.337,66.879 41.396 C 66.441 41.454,65.884 41.606,65.641 41.733 C 65.398 41.860,64.929 42.053,64.599 42.161 C 64.270 42.270,64.000 42.410,64.000 42.472 C 64.000 42.534,63.764 42.690,63.475 42.818 C 62.871 43.085,62.740 43.185,61.511 44.323 C 61.013 44.784,60.584 45.139,60.557 45.112 C 60.504 45.060,60.455 44.831,60.252 43.708 L 60.124 43.000 58.978 43.000 L 57.832 43.000 57.874 58.208 L 57.917 73.417 59.120 73.466 C 60.641 73.527,60.525 74.079,60.465 67.064 C 60.425 62.346,60.454 61.431,60.634 61.689 C 60.754 61.860,60.923 62.000,61.009 62.000 C 61.096 62.000,61.304 62.131,61.473 62.292 C 61.641 62.452,61.949 62.696,62.158 62.833 C 62.368 62.971,62.699 63.202,62.894 63.346 C 63.870 64.067,66.533 65.183,67.734 65.374 C 68.430 65.485,69.000 65.633,69.000 65.704 C 69.000 65.775,69.787 65.833,70.750 65.833 C 71.806 65.833,72.500 65.767,72.500 65.667 C 72.500 65.575,72.658 65.500,72.851 65.500 C 73.301 65.500,75.223 65.004,75.333 64.860 C 75.379 64.799,75.856 64.525,76.394 64.250 C 76.932 63.975,77.408 63.656,77.454 63.542 C 77.499 63.427,77.614 63.333,77.709 63.333 C 77.937 63.333,80.333 60.933,80.333 60.705 C 80.333 60.607,80.390 60.503,80.458 60.472 C 80.726 60.353,81.524 59.012,81.693 58.397 C 81.790 58.041,81.937 57.708,82.019 57.657 C 82.101 57.605,82.259 56.987,82.371 56.282 C 82.483 55.577,82.633 55.000,82.704 55.000 C 82.883 55.000,82.868 51.708,82.689 51.597 C 82.609 51.548,82.492 51.113,82.428 50.631 C 82.364 50.149,82.196 49.491,82.055 49.169 C 81.333 47.523,80.740 46.464,80.231 45.908 C 79.921 45.569,79.667 45.244,79.667 45.187 C 79.667 45.062,78.736 44.167,78.606 44.167 C 78.556 44.167,78.331 43.998,78.107 43.792 C 77.438 43.178,77.203 43.009,76.715 42.793 C 76.459 42.680,76.147 42.489,76.022 42.369 C 75.896 42.249,75.577 42.107,75.313 42.054 C 75.049 42.002,74.833 41.903,74.833 41.835 C 74.833 41.768,74.365 41.622,73.792 41.511 C 73.219 41.400,72.620 41.240,72.461 41.155 C 72.094 40.959,67.884 40.950,67.764 41.145 M72.689 43.935 C 72.814 44.030,73.227 44.197,73.606 44.305 C 74.401 44.532,75.708 45.232,76.004 45.589 C 76.116 45.723,76.273 45.833,76.354 45.833 C 76.776 45.833,78.642 48.120,78.905 48.958 C 78.970 49.165,79.083 49.333,79.157 49.333 C 79.231 49.333,79.392 49.783,79.514 50.333 C 79.636 50.883,79.795 51.333,79.868 51.333 C 79.940 51.333,80.000 52.271,80.000 53.417 C 80.000 54.563,79.940 55.500,79.868 55.500 C 79.795 55.500,79.636 55.950,79.514 56.500 C 79.392 57.050,79.234 57.500,79.164 57.500 C 79.094 57.500,78.990 57.682,78.934 57.905 C 78.879 58.128,78.739 58.409,78.624 58.530 C 78.509 58.651,78.119 59.144,77.757 59.625 C 77.394 60.106,77.055 60.500,77.003 60.500 C 76.950 60.500,76.676 60.712,76.392 60.971 C 76.109 61.230,75.642 61.539,75.355 61.658 C 75.068 61.777,74.833 61.929,74.833 61.996 C 74.833 62.415,71.860 63.083,70.000 63.082 C 68.132 63.081,65.500 62.446,65.500 61.996 C 65.500 61.927,65.331 61.827,65.125 61.775 C 64.631 61.651,64.155 61.281,63.021 60.143 C 61.193 58.308,60.808 57.530,60.219 54.477 C 60.173 54.236,60.215 53.887,60.314 53.702 C 60.438 53.471,60.442 53.216,60.327 52.887 C 60.156 52.397,60.795 49.250,61.113 49.018 C 61.189 48.962,61.363 48.698,61.500 48.432 C 61.983 47.494,64.575 45.074,65.292 44.892 C 65.498 44.840,65.667 44.738,65.667 44.667 C 65.667 44.595,65.873 44.485,66.125 44.422 C 66.377 44.359,66.808 44.206,67.083 44.082 C 67.358 43.958,67.733 43.818,67.917 43.771 C 68.510 43.621,72.455 43.756,72.689 43.935 " stroke="none" fill="#e34b44" fill-rule="evenodd"></path><path id="path1" d="M50.417 8.707 C 49.592 8.795,48.879 8.919,48.833 8.983 C 48.788 9.046,48.150 9.196,47.417 9.316 C 46.683 9.437,46.046 9.591,46.000 9.659 C 45.954 9.727,45.581 9.835,45.170 9.899 C 44.375 10.024,41.740 10.894,41.017 11.272 C 40.778 11.396,40.457 11.498,40.304 11.499 C 40.150 11.500,39.923 11.601,39.799 11.725 C 39.675 11.849,39.295 12.042,38.954 12.154 C 38.613 12.267,38.333 12.416,38.333 12.487 C 38.333 12.557,38.033 12.704,37.667 12.814 C 37.300 12.923,37.000 13.073,37.000 13.147 C 37.000 13.220,36.704 13.378,36.342 13.497 C 35.980 13.617,35.648 13.809,35.603 13.925 C 35.559 14.041,35.287 14.187,35.000 14.250 C 34.713 14.313,34.437 14.470,34.388 14.599 C 34.338 14.728,34.224 14.833,34.134 14.833 C 34.045 14.833,33.623 15.077,33.198 15.375 C 32.170 16.095,32.032 16.200,31.655 16.542 C 31.478 16.702,31.259 16.833,31.168 16.833 C 31.077 16.833,30.909 16.983,30.795 17.167 C 30.680 17.350,30.507 17.500,30.410 17.500 C 30.064 17.500,25.333 21.977,25.333 22.305 C 25.333 22.403,25.227 22.543,25.097 22.617 C 24.866 22.748,24.241 23.489,23.583 24.415 C 23.400 24.673,23.137 25.008,23.000 25.160 C 22.535 25.672,21.667 26.970,21.667 27.152 C 21.667 27.252,21.601 27.333,21.520 27.333 C 21.440 27.333,21.281 27.558,21.167 27.833 C 21.053 28.108,20.903 28.333,20.833 28.333 C 20.764 28.333,20.609 28.577,20.488 28.875 C 20.368 29.173,20.224 29.454,20.169 29.500 C 20.002 29.638,18.833 32.093,18.833 32.304 C 18.833 32.412,18.758 32.500,18.667 32.500 C 18.575 32.500,18.500 32.597,18.500 32.715 C 18.500 32.833,18.347 33.227,18.161 33.590 C 17.974 33.953,17.740 34.569,17.641 34.958 C 17.542 35.348,17.406 35.667,17.340 35.667 C 17.274 35.667,17.124 36.098,17.008 36.625 C 16.892 37.152,16.739 37.658,16.670 37.750 C 16.600 37.842,16.453 38.329,16.343 38.833 C 16.233 39.337,16.075 39.900,15.993 40.083 C 15.820 40.466,15.333 43.707,15.333 44.470 C 15.333 44.751,15.258 45.027,15.167 45.083 C 15.062 45.148,15.000 46.891,15.000 49.760 C 15.000 52.698,15.060 54.333,15.167 54.333 C 15.258 54.333,15.333 54.634,15.333 55.001 C 15.333 55.873,15.785 58.869,15.991 59.364 C 16.080 59.576,16.235 60.180,16.337 60.705 C 16.439 61.231,16.582 61.697,16.654 61.742 C 16.726 61.787,16.882 62.276,16.999 62.828 C 17.116 63.381,17.263 63.833,17.325 63.833 C 17.386 63.833,17.533 64.208,17.651 64.667 C 17.768 65.125,17.924 65.500,17.997 65.500 C 18.071 65.500,18.180 65.706,18.239 65.958 C 18.362 66.474,19.962 69.729,20.594 70.750 C 20.822 71.117,21.093 71.585,21.197 71.792 C 21.301 71.998,21.441 72.167,21.507 72.167 C 21.572 72.167,21.719 72.392,21.833 72.667 C 21.947 72.942,22.101 73.167,22.176 73.167 C 22.250 73.167,22.356 73.308,22.410 73.480 C 22.465 73.653,22.639 73.953,22.797 74.148 C 22.954 74.343,23.211 74.671,23.366 74.877 C 24.693 76.626,29.346 81.500,29.690 81.500 C 29.753 81.500,30.068 81.744,30.390 82.042 C 31.149 82.744,32.438 83.667,32.660 83.667 C 32.755 83.667,32.833 83.744,32.833 83.837 C 32.833 83.931,33.021 84.080,33.250 84.167 C 33.479 84.254,33.667 84.388,33.667 84.465 C 33.667 84.542,33.929 84.707,34.250 84.833 C 34.571 84.959,34.833 85.114,34.833 85.178 C 34.833 85.241,35.058 85.386,35.333 85.500 C 35.608 85.614,35.833 85.758,35.833 85.820 C 35.833 85.882,36.115 86.034,36.458 86.157 C 36.802 86.280,37.121 86.437,37.167 86.507 C 37.274 86.670,39.360 87.625,39.911 87.763 C 40.143 87.822,40.333 87.929,40.333 88.003 C 40.333 88.076,40.708 88.232,41.167 88.349 C 41.625 88.467,42.000 88.614,42.000 88.675 C 42.000 88.737,42.450 88.883,43.000 89.000 C 43.550 89.117,44.000 89.265,44.000 89.330 C 44.000 89.394,44.431 89.538,44.958 89.649 C 45.485 89.760,46.067 89.922,46.250 90.008 C 46.433 90.094,47.258 90.281,48.083 90.424 C 48.908 90.566,49.921 90.750,50.333 90.832 C 51.307 91.025,61.331 91.021,62.417 90.827 C 62.875 90.745,63.962 90.555,64.833 90.403 C 65.704 90.252,66.454 90.078,66.500 90.017 C 66.546 89.956,67.071 89.808,67.667 89.688 C 68.262 89.568,68.825 89.412,68.917 89.340 C 69.008 89.269,69.477 89.118,69.958 89.005 C 70.440 88.892,70.833 88.740,70.833 88.667 C 70.833 88.593,71.208 88.443,71.667 88.333 C 72.125 88.223,72.500 88.066,72.500 87.983 C 72.500 87.901,72.623 87.833,72.773 87.833 C 73.098 87.833,76.821 86.028,77.137 85.717 C 77.258 85.598,77.539 85.455,77.762 85.399 C 77.984 85.343,78.167 85.234,78.167 85.158 C 78.167 85.081,78.345 84.920,78.562 84.801 C 79.844 84.096,80.096 83.933,80.217 83.727 C 80.290 83.602,80.426 83.500,80.518 83.500 C 80.611 83.500,80.999 83.256,81.381 82.958 C 81.763 82.660,82.171 82.342,82.289 82.250 C 83.138 81.587,83.792 80.990,85.762 79.073 C 86.993 77.875,88.000 76.850,88.000 76.795 C 88.000 76.740,88.262 76.408,88.582 76.056 C 89.469 75.081,89.596 74.921,89.930 74.356 C 90.100 74.069,90.288 73.833,90.349 73.833 C 90.410 73.833,90.553 73.608,90.667 73.333 C 90.781 73.058,90.935 72.833,91.009 72.833 C 91.083 72.833,91.192 72.684,91.250 72.501 C 91.308 72.318,91.448 72.074,91.561 71.959 C 91.842 71.673,93.500 68.751,93.500 68.542 C 93.500 68.450,93.603 68.289,93.729 68.184 C 93.855 68.079,94.053 67.658,94.168 67.247 C 94.283 66.836,94.434 66.500,94.504 66.500 C 94.573 66.500,94.682 66.296,94.744 66.047 C 94.807 65.799,95.004 65.274,95.183 64.881 C 95.362 64.488,95.553 63.942,95.608 63.667 C 95.663 63.392,95.764 63.167,95.831 63.167 C 95.899 63.167,96.052 62.698,96.172 62.125 C 96.292 61.552,96.468 61.031,96.565 60.967 C 96.895 60.749,96.582 60.696,94.625 60.640 L 92.666 60.583 92.564 61.125 C 92.509 61.423,92.406 61.667,92.336 61.667 C 92.266 61.667,92.163 61.892,92.108 62.167 C 92.053 62.442,91.856 63.000,91.671 63.408 C 91.485 63.815,91.333 64.193,91.333 64.248 C 91.333 64.302,91.108 64.828,90.833 65.417 C 90.558 66.005,90.333 66.564,90.333 66.660 C 90.333 66.755,90.264 66.833,90.180 66.833 C 90.095 66.833,89.939 67.096,89.833 67.417 C 89.727 67.737,89.587 68.000,89.521 68.000 C 89.454 68.000,89.305 68.262,89.189 68.583 C 89.073 68.904,88.917 69.167,88.843 69.167 C 88.768 69.167,88.614 69.392,88.500 69.667 C 88.386 69.942,88.227 70.167,88.146 70.167 C 88.066 70.167,88.000 70.263,88.000 70.381 C 88.000 70.499,87.778 70.856,87.507 71.173 C 87.235 71.490,87.010 71.844,87.007 71.958 C 87.003 72.073,86.927 72.167,86.838 72.167 C 86.748 72.167,86.568 72.373,86.437 72.625 C 86.047 73.373,81.186 78.497,80.861 78.501 C 80.800 78.502,80.487 78.746,80.165 79.043 C 79.843 79.340,79.206 79.842,78.748 80.158 C 78.291 80.474,77.879 80.782,77.833 80.843 C 77.787 80.904,77.525 81.079,77.250 81.233 C 76.975 81.386,76.412 81.729,76.000 81.995 C 75.587 82.260,74.762 82.721,74.167 83.018 C 73.571 83.316,73.046 83.610,73.000 83.672 C 72.954 83.734,72.635 83.877,72.292 83.989 C 71.948 84.101,71.667 84.244,71.667 84.307 C 71.667 84.369,71.179 84.560,70.583 84.731 C 69.987 84.902,69.500 85.097,69.500 85.165 C 69.500 85.232,69.050 85.383,68.500 85.500 C 67.950 85.617,67.500 85.763,67.500 85.826 C 67.500 85.888,66.994 86.037,66.375 86.158 C 65.756 86.278,65.175 86.434,65.083 86.504 C 64.992 86.574,64.204 86.720,63.333 86.829 C 62.462 86.938,61.570 87.115,61.350 87.222 C 60.793 87.493,52.043 87.494,51.484 87.223 C 51.263 87.117,50.410 86.943,49.586 86.836 C 48.763 86.730,48.013 86.584,47.920 86.512 C 47.826 86.440,47.262 86.288,46.667 86.175 C 46.071 86.061,45.508 85.908,45.417 85.834 C 45.325 85.760,44.913 85.612,44.500 85.506 C 44.087 85.400,43.450 85.177,43.083 85.011 C 42.717 84.844,42.173 84.655,41.875 84.591 C 41.577 84.526,41.333 84.404,41.333 84.320 C 41.333 84.236,41.252 84.167,41.152 84.167 C 40.911 84.167,38.805 83.135,38.543 82.889 C 38.430 82.782,38.117 82.646,37.849 82.587 C 37.581 82.528,37.320 82.372,37.269 82.240 C 37.219 82.108,37.104 82.000,37.014 82.000 C 36.924 82.000,36.517 81.775,36.109 81.500 C 35.702 81.225,35.323 81.000,35.267 81.000 C 35.212 81.000,35.035 80.882,34.875 80.738 C 34.260 80.185,33.578 79.667,33.466 79.667 C 33.401 79.667,33.170 79.498,32.952 79.292 C 32.733 79.085,32.076 78.504,31.490 78.000 C 30.306 76.980,29.291 75.965,28.167 74.677 C 26.555 72.831,25.833 71.903,25.833 71.676 C 25.833 71.579,25.756 71.500,25.663 71.500 C 25.569 71.500,25.420 71.313,25.333 71.083 C 25.246 70.854,25.112 70.667,25.035 70.667 C 24.958 70.667,24.793 70.404,24.667 70.083 C 24.541 69.762,24.382 69.500,24.313 69.500 C 24.245 69.500,24.142 69.350,24.084 69.168 C 24.026 68.985,23.888 68.741,23.778 68.626 C 23.668 68.511,23.282 67.817,22.921 67.083 C 22.559 66.350,22.204 65.725,22.132 65.694 C 22.059 65.664,22.000 65.521,22.000 65.377 C 22.000 65.233,21.811 64.716,21.580 64.227 C 21.349 63.738,21.114 63.112,21.059 62.836 C 21.004 62.560,20.903 62.333,20.835 62.333 C 20.768 62.333,20.617 61.883,20.500 61.333 C 20.383 60.783,20.235 60.333,20.171 60.333 C 20.106 60.333,19.958 59.790,19.841 59.125 C 19.724 58.460,19.571 57.842,19.502 57.750 C 19.264 57.436,18.641 51.759,18.624 49.750 C 18.609 48.098,19.308 41.667,19.502 41.667 C 19.563 41.667,19.709 41.123,19.826 40.458 C 19.943 39.794,20.093 39.175,20.160 39.083 C 20.227 38.992,20.383 38.542,20.507 38.083 C 20.630 37.625,20.829 37.063,20.948 36.833 C 21.067 36.604,21.165 36.356,21.166 36.281 C 21.168 35.945,23.459 31.222,23.791 30.866 C 23.906 30.743,24.044 30.467,24.098 30.250 C 24.152 30.034,24.302 29.817,24.432 29.767 C 24.561 29.718,24.667 29.595,24.667 29.494 C 24.667 29.393,24.854 29.065,25.083 28.765 C 25.313 28.464,25.500 28.150,25.500 28.066 C 25.500 27.982,25.650 27.820,25.833 27.705 C 26.017 27.591,26.167 27.423,26.167 27.332 C 26.167 27.241,26.320 26.998,26.508 26.792 C 27.032 26.216,27.228 25.978,27.845 25.167 C 28.160 24.754,28.467 24.378,28.529 24.332 C 28.590 24.285,29.378 23.548,30.279 22.694 C 32.628 20.466,34.431 19.000,34.821 19.000 C 34.919 19.000,35.000 18.923,35.000 18.829 C 35.000 18.735,35.188 18.587,35.417 18.500 C 35.646 18.413,35.833 18.279,35.833 18.202 C 35.833 18.125,36.096 17.959,36.417 17.833 C 36.737 17.707,37.000 17.553,37.000 17.489 C 37.000 17.426,37.225 17.281,37.500 17.167 C 37.775 17.053,38.000 16.894,38.000 16.813 C 38.000 16.733,38.094 16.666,38.208 16.665 C 38.323 16.665,39.151 16.295,40.049 15.844 C 40.948 15.392,41.904 14.974,42.174 14.915 C 42.445 14.855,42.667 14.752,42.667 14.685 C 42.667 14.618,43.042 14.467,43.500 14.349 C 43.958 14.232,44.333 14.078,44.333 14.006 C 44.333 13.935,44.802 13.785,45.375 13.673 C 45.948 13.560,46.492 13.409,46.583 13.335 C 46.675 13.262,47.538 13.075,48.500 12.920 C 49.462 12.764,50.374 12.573,50.525 12.494 C 50.898 12.300,56.661 11.968,57.451 12.095 L 58.083 12.197 58.031 10.348 L 57.979 8.500 54.948 8.523 C 53.281 8.536,51.242 8.618,50.417 8.707 M124.333 18.159 C 124.196 18.236,123.566 18.377,122.933 18.472 C 122.300 18.567,121.738 18.714,121.683 18.797 C 121.628 18.880,121.382 18.998,121.137 19.058 C 120.891 19.118,120.591 19.261,120.470 19.375 C 120.349 19.490,120.058 19.682,119.824 19.802 C 119.273 20.086,118.468 20.842,117.882 21.627 C 117.626 21.970,117.323 22.349,117.208 22.470 C 117.094 22.591,117.000 22.788,117.000 22.908 C 117.000 23.028,116.900 23.209,116.777 23.311 C 116.654 23.413,116.459 23.816,116.343 24.206 C 116.227 24.597,116.063 25.001,115.979 25.104 C 115.358 25.868,115.477 30.047,116.159 31.450 C 116.347 31.835,116.500 32.229,116.500 32.325 C 116.500 32.421,116.557 32.500,116.626 32.500 C 116.695 32.500,116.846 32.711,116.960 32.970 C 117.214 33.543,118.581 34.941,119.208 35.269 C 119.460 35.401,119.667 35.573,119.667 35.651 C 119.667 35.729,119.892 35.886,120.167 36.000 C 120.442 36.114,120.667 36.264,120.667 36.333 C 120.667 36.403,120.892 36.553,121.167 36.667 C 121.442 36.781,121.667 36.934,121.667 37.007 C 121.667 37.081,121.948 37.233,122.292 37.345 C 122.635 37.457,122.954 37.602,123.000 37.668 C 123.134 37.861,125.041 38.804,125.542 38.925 C 125.794 38.986,126.000 39.091,126.000 39.158 C 126.000 39.225,126.300 39.379,126.667 39.500 C 127.033 39.621,127.333 39.771,127.333 39.833 C 127.333 39.896,127.633 40.046,128.000 40.167 C 128.367 40.288,128.667 40.438,128.667 40.500 C 128.667 40.562,128.857 40.700,129.090 40.806 C 129.322 40.912,129.603 41.076,129.715 41.170 C 129.826 41.265,130.289 41.583,130.745 41.878 C 131.836 42.583,133.492 44.143,134.098 45.036 C 134.364 45.429,134.624 45.788,134.676 45.833 C 134.727 45.879,134.873 46.179,135.000 46.500 C 135.127 46.821,135.288 47.123,135.358 47.172 C 135.427 47.220,135.580 47.764,135.697 48.380 C 135.814 48.996,135.967 49.500,136.038 49.500 C 136.216 49.500,136.201 52.626,136.022 52.736 C 135.942 52.786,135.829 53.184,135.769 53.621 C 135.674 54.322,135.062 55.751,134.327 56.994 C 133.991 57.561,131.982 59.585,131.625 59.716 C 131.465 59.775,131.333 59.886,131.333 59.964 C 131.333 60.041,131.071 60.207,130.750 60.333 C 130.429 60.459,130.167 60.613,130.167 60.676 C 130.167 60.739,129.810 60.886,129.375 61.004 C 128.940 61.122,128.503 61.280,128.405 61.355 C 127.815 61.806,122.681 61.785,122.528 61.332 C 122.497 61.241,122.353 61.167,122.208 61.167 C 121.950 61.167,119.833 60.204,119.667 60.011 C 119.621 59.958,119.321 59.716,119.000 59.473 C 118.021 58.732,117.276 57.953,116.713 57.081 C 116.417 56.624,116.109 56.171,116.028 56.074 C 115.947 55.977,115.784 55.602,115.666 55.241 C 115.548 54.879,115.400 54.546,115.337 54.500 C 115.274 54.454,115.134 53.970,115.027 53.424 C 114.807 52.309,114.623 52.024,114.299 52.292 C 114.180 52.390,113.796 52.524,113.445 52.589 C 113.094 52.655,112.767 52.812,112.719 52.938 C 112.671 53.064,112.527 53.167,112.399 53.167 C 112.077 53.167,112.090 54.766,112.418 55.394 C 112.555 55.657,112.667 55.965,112.667 56.079 C 112.667 56.293,113.629 58.185,113.814 58.333 C 113.871 58.379,114.026 58.628,114.160 58.887 C 114.471 59.490,116.985 62.000,117.278 62.000 C 117.400 62.000,117.500 62.077,117.500 62.171 C 117.500 62.265,117.688 62.413,117.917 62.500 C 118.146 62.587,118.333 62.720,118.333 62.796 C 118.333 62.871,118.615 63.034,118.958 63.157 C 119.302 63.280,119.621 63.430,119.667 63.491 C 120.479 64.571,127.476 65.122,129.403 64.259 C 129.686 64.132,130.211 63.937,130.570 63.826 C 131.165 63.640,132.296 63.063,132.500 62.841 C 132.546 62.791,132.784 62.637,133.029 62.500 C 133.682 62.133,134.654 61.331,135.238 60.677 C 135.520 60.362,135.919 59.941,136.125 59.741 C 136.331 59.542,136.500 59.291,136.500 59.184 C 136.500 59.077,136.600 58.951,136.722 58.904 C 136.844 58.858,137.045 58.560,137.169 58.243 C 137.294 57.926,137.457 57.667,137.531 57.667 C 137.606 57.667,137.667 57.594,137.667 57.505 C 137.667 57.416,137.847 56.947,138.069 56.463 C 138.290 55.979,138.524 55.283,138.590 54.917 C 138.656 54.550,138.794 54.145,138.897 54.016 C 139.155 53.692,139.152 48.635,138.893 48.317 C 138.788 48.189,138.614 47.652,138.506 47.125 C 138.398 46.598,138.249 46.167,138.176 46.167 C 138.102 46.167,137.997 45.941,137.941 45.665 C 137.886 45.389,137.701 44.958,137.530 44.707 C 137.359 44.456,137.004 43.913,136.743 43.500 C 136.022 42.366,133.389 39.830,132.417 39.333 C 132.147 39.196,131.811 38.971,131.670 38.833 C 131.528 38.696,131.040 38.396,130.586 38.167 C 130.131 37.938,129.664 37.662,129.548 37.555 C 129.432 37.448,129.111 37.311,128.835 37.250 C 128.559 37.190,128.333 37.077,128.333 37.000 C 128.333 36.923,127.940 36.731,127.458 36.572 C 126.977 36.414,126.546 36.231,126.500 36.166 C 126.454 36.101,126.135 35.957,125.792 35.845 C 125.448 35.733,125.167 35.590,125.167 35.528 C 125.167 35.466,124.923 35.309,124.625 35.179 C 124.327 35.049,124.046 34.900,124.000 34.847 C 123.954 34.794,123.692 34.624,123.417 34.469 C 122.181 33.774,119.996 32.047,119.819 31.625 C 119.713 31.373,119.562 31.167,119.484 31.167 C 119.406 31.167,119.219 30.741,119.067 30.220 C 118.127 26.985,119.785 22.722,122.292 21.929 C 122.498 21.864,122.667 21.749,122.667 21.673 C 122.667 21.082,127.710 21.072,128.167 21.661 C 128.212 21.721,128.488 21.865,128.780 21.983 C 129.071 22.101,129.350 22.303,129.399 22.432 C 129.449 22.561,129.590 22.667,129.714 22.667 C 129.837 22.667,130.191 23.004,130.500 23.417 C 130.809 23.829,131.115 24.167,131.180 24.167 C 131.244 24.167,131.343 24.349,131.399 24.572 C 131.637 25.521,132.389 25.739,133.456 25.167 C 133.799 24.983,134.183 24.833,134.311 24.833 C 134.876 24.833,134.320 23.277,133.250 21.863 C 133.083 21.643,131.972 20.518,131.500 20.092 C 130.861 19.515,128.602 18.495,127.739 18.394 C 127.236 18.335,126.784 18.222,126.735 18.143 C 126.623 17.961,124.665 17.974,124.333 18.159 M184.917 21.364 C 184.550 21.465,184.213 21.600,184.167 21.663 C 184.121 21.727,183.841 21.862,183.545 21.963 C 182.909 22.180,182.735 22.313,181.607 23.441 C 180.526 24.522,180.508 24.547,179.912 25.750 L 179.417 26.750 179.363 31.375 L 179.310 36.000 178.105 36.000 C 176.578 36.000,176.500 36.083,176.500 37.700 L 176.500 39.000 177.490 39.000 C 178.035 39.000,178.527 39.075,178.583 39.167 C 178.640 39.258,178.831 39.333,179.009 39.333 C 179.324 39.333,179.332 39.600,179.374 51.792 L 179.417 64.250 180.833 64.250 L 182.250 64.250 182.293 51.625 L 182.335 39.000 185.084 39.000 L 187.833 39.000 187.833 37.500 L 187.833 36.000 185.071 36.000 L 182.308 36.000 182.362 31.744 C 182.395 29.156,182.482 27.441,182.584 27.369 C 182.675 27.303,182.863 27.025,183.000 26.750 C 183.219 26.313,184.306 25.147,185.054 24.547 C 185.726 24.009,187.794 23.881,189.534 24.269 C 189.926 24.356,190.000 24.308,190.101 23.893 C 190.165 23.631,190.285 23.373,190.366 23.319 C 190.788 23.042,190.590 21.767,190.088 21.521 C 189.458 21.214,185.856 21.104,184.917 21.364 M194.667 30.250 L 194.667 36.000 192.033 36.000 C 188.909 36.000,189.000 35.949,189.000 37.700 L 189.000 39.000 191.832 39.000 L 194.665 39.000 194.707 51.625 L 194.750 64.250 196.167 64.250 L 197.583 64.250 197.626 51.625 L 197.669 39.000 200.418 39.000 L 203.167 39.000 203.167 37.500 L 203.167 36.000 200.417 36.000 L 197.667 36.000 197.667 30.250 L 197.667 24.500 196.167 24.500 L 194.667 24.500 194.667 30.250 M42.250 28.268 C 42.067 28.313,41.767 28.416,41.583 28.496 C 41.400 28.575,40.894 28.769,40.458 28.926 C 40.023 29.083,39.667 29.277,39.667 29.356 C 39.667 29.435,39.562 29.500,39.435 29.500 C 38.706 29.500,36.646 32.219,36.332 33.597 C 36.229 34.048,36.075 34.547,35.989 34.706 C 35.795 35.066,35.783 37.044,35.974 37.258 C 36.051 37.345,36.206 37.848,36.319 38.375 C 36.432 38.902,36.631 39.441,36.762 39.571 C 36.893 39.702,37.000 39.882,37.000 39.970 C 37.000 40.227,38.856 41.982,39.367 42.208 C 39.624 42.322,39.833 42.472,39.833 42.542 C 39.833 42.612,40.133 42.789,40.500 42.936 C 40.867 43.083,41.167 43.255,41.167 43.318 C 41.167 43.381,41.448 43.534,41.792 43.657 C 42.135 43.780,42.454 43.931,42.500 43.993 C 42.546 44.055,43.033 44.358,43.583 44.667 C 44.133 44.975,44.621 45.279,44.667 45.341 C 44.712 45.402,45.031 45.554,45.375 45.677 C 45.719 45.800,46.000 45.949,46.000 46.008 C 46.000 46.067,46.319 46.257,46.708 46.428 C 47.098 46.600,47.477 46.836,47.550 46.954 C 47.623 47.071,47.758 47.167,47.849 47.167 C 48.195 47.167,50.833 49.318,50.833 49.601 C 50.833 49.655,50.986 49.913,51.173 50.175 C 51.359 50.437,51.597 50.899,51.700 51.201 C 51.803 51.503,51.969 51.804,52.069 51.869 C 52.310 52.027,52.317 56.467,52.076 56.631 C 51.981 56.697,51.800 57.069,51.675 57.458 C 51.549 57.848,51.384 58.167,51.307 58.167 C 51.230 58.167,51.167 58.275,51.167 58.407 C 51.167 59.079,48.308 61.580,47.313 61.779 C 47.049 61.832,46.833 61.930,46.833 61.998 C 46.833 62.600,41.109 62.612,40.667 62.011 C 40.621 61.949,40.324 61.793,40.007 61.664 C 39.348 61.397,39.264 61.330,37.949 60.036 C 36.658 58.766,36.563 58.650,36.416 58.174 C 36.346 57.950,36.198 57.674,36.085 57.562 C 35.973 57.449,35.793 56.909,35.686 56.362 C 35.480 55.318,35.165 54.873,34.801 55.111 C 34.684 55.187,34.249 55.363,33.836 55.501 L 33.083 55.752 33.140 56.501 C 33.172 56.913,33.254 57.325,33.323 57.417 C 33.392 57.508,33.545 57.940,33.662 58.375 C 33.780 58.810,33.924 59.167,33.981 59.167 C 34.038 59.167,34.190 59.403,34.318 59.692 C 34.446 59.981,34.654 60.337,34.781 60.483 C 35.178 60.943,36.795 62.575,37.028 62.751 C 38.154 63.603,39.883 64.477,40.699 64.608 C 41.052 64.664,41.381 64.776,41.430 64.855 C 41.553 65.054,45.767 65.039,46.127 64.839 C 46.286 64.750,46.848 64.595,47.375 64.494 C 47.902 64.393,48.333 64.252,48.333 64.182 C 48.333 64.111,48.633 63.954,49.000 63.833 C 49.367 63.712,49.667 63.550,49.667 63.473 C 49.667 63.396,49.740 63.333,49.830 63.333 C 50.122 63.333,51.412 62.269,52.005 61.539 C 52.323 61.147,52.705 60.697,52.854 60.539 C 53.003 60.380,53.177 60.081,53.241 59.875 C 53.304 59.669,53.426 59.500,53.511 59.500 C 53.597 59.500,53.667 59.413,53.667 59.308 C 53.667 59.202,53.851 58.726,54.076 58.250 C 54.313 57.750,54.533 56.899,54.598 56.234 C 54.661 55.601,54.784 54.991,54.874 54.878 C 54.963 54.765,54.994 54.390,54.944 54.045 C 54.633 51.916,54.442 51.021,54.175 50.424 C 54.009 50.053,53.822 49.581,53.759 49.375 C 53.696 49.169,53.579 49.000,53.500 49.000 C 53.421 49.000,53.311 48.858,53.256 48.685 C 53.201 48.512,52.979 48.179,52.762 47.945 C 52.545 47.711,52.341 47.456,52.309 47.379 C 52.205 47.130,50.096 45.500,49.877 45.500 C 49.762 45.500,49.667 45.430,49.667 45.346 C 49.667 45.261,49.460 45.084,49.208 44.954 C 48.214 44.440,47.589 44.075,47.384 43.888 C 47.266 43.781,46.907 43.607,46.585 43.501 C 46.263 43.394,46.000 43.247,46.000 43.174 C 46.000 43.101,45.756 42.942,45.458 42.821 C 45.160 42.701,44.879 42.556,44.833 42.498 C 44.788 42.441,44.300 42.142,43.750 41.833 C 43.200 41.525,42.712 41.225,42.667 41.168 C 42.621 41.111,42.340 40.966,42.042 40.845 C 41.744 40.725,41.500 40.577,41.500 40.518 C 41.500 40.458,41.222 40.261,40.883 40.080 C 40.209 39.720,39.178 38.700,39.171 38.387 C 39.169 38.279,39.041 38.065,38.888 37.912 C 37.703 36.727,39.502 31.500,41.095 31.500 C 41.211 31.500,41.331 31.425,41.361 31.333 C 41.410 31.188,43.468 30.636,43.917 30.649 C 45.719 30.699,47.783 31.992,48.800 33.708 C 48.950 33.960,49.167 34.167,49.283 34.167 C 49.542 34.167,50.863 33.664,51.060 33.490 C 51.212 33.355,50.884 32.167,50.694 32.167 C 50.632 32.167,50.490 31.960,50.378 31.708 C 50.174 31.249,48.810 29.667,48.617 29.667 C 48.561 29.667,48.246 29.485,47.919 29.262 C 47.591 29.039,47.081 28.805,46.786 28.741 C 46.491 28.677,46.201 28.547,46.140 28.452 C 46.027 28.273,42.837 28.122,42.250 28.268 M154.875 33.869 C 154.302 33.957,153.833 34.088,153.833 34.160 C 153.833 34.232,153.552 34.337,153.208 34.392 C 152.543 34.501,149.814 35.829,149.394 36.249 C 149.256 36.387,149.087 36.500,149.020 36.500 C 148.952 36.500,148.717 36.669,148.497 36.875 C 148.278 37.081,147.853 37.447,147.552 37.688 C 146.756 38.326,144.696 40.987,144.576 41.533 C 144.520 41.790,144.407 42.000,144.327 42.000 C 144.246 42.000,144.090 42.300,143.980 42.667 C 143.870 43.033,143.725 43.333,143.657 43.333 C 143.589 43.333,143.441 43.727,143.328 44.208 C 143.215 44.690,143.060 45.163,142.984 45.260 C 142.460 45.927,142.452 52.965,142.975 53.327 C 143.046 53.376,143.198 53.848,143.314 54.375 C 143.429 54.902,143.588 55.333,143.665 55.333 C 143.743 55.333,143.855 55.555,143.915 55.826 C 143.974 56.096,144.158 56.490,144.322 56.701 C 144.486 56.911,144.671 57.243,144.732 57.439 C 144.793 57.634,144.972 57.953,145.130 58.148 C 145.288 58.343,145.567 58.699,145.750 58.938 C 146.762 60.259,149.486 62.667,149.969 62.667 C 150.078 62.667,150.167 62.736,150.167 62.820 C 150.167 62.905,150.446 63.066,150.787 63.179 C 151.128 63.292,151.506 63.482,151.626 63.602 C 151.746 63.722,152.104 63.869,152.422 63.929 C 152.740 63.988,153.000 64.097,153.000 64.170 C 153.000 64.243,153.544 64.396,154.208 64.510 C 154.873 64.624,155.488 64.781,155.575 64.859 C 155.784 65.045,161.000 65.042,161.000 64.856 C 161.000 64.777,161.420 64.663,161.933 64.603 C 162.447 64.543,163.192 64.345,163.591 64.163 C 163.989 63.982,164.426 63.833,164.562 63.833 C 164.698 63.833,164.911 63.732,165.034 63.608 C 165.158 63.485,165.538 63.292,165.880 63.179 C 166.221 63.066,166.500 62.917,166.500 62.847 C 166.500 62.777,166.690 62.633,166.923 62.527 C 167.437 62.293,167.484 62.256,169.350 60.572 C 169.987 59.996,170.792 59.024,171.167 58.375 C 171.304 58.137,171.548 57.805,171.708 57.638 C 171.869 57.470,172.000 57.221,172.000 57.083 C 172.000 56.946,172.075 56.833,172.167 56.833 C 172.258 56.833,172.333 56.761,172.333 56.672 C 172.333 56.583,172.524 56.094,172.756 55.586 C 172.989 55.077,173.264 54.231,173.367 53.706 C 173.471 53.180,173.637 52.696,173.736 52.631 C 174.010 52.450,173.984 46.300,173.708 46.208 C 173.594 46.170,173.499 45.939,173.498 45.694 C 173.495 44.920,173.063 43.584,172.367 42.194 C 171.712 40.885,171.568 40.660,170.958 39.988 C 170.798 39.811,170.667 39.608,170.667 39.536 C 170.667 39.172,167.596 36.333,167.202 36.333 C 167.111 36.333,166.995 36.228,166.946 36.099 C 166.896 35.970,166.626 35.814,166.345 35.752 C 166.063 35.691,165.833 35.587,165.833 35.523 C 165.833 35.369,164.058 34.544,163.417 34.400 C 163.142 34.338,162.839 34.227,162.744 34.153 C 162.168 33.704,157.133 33.522,154.875 33.869 M160.500 36.962 C 160.500 37.033,161.006 37.186,161.625 37.303 C 162.244 37.420,162.775 37.587,162.806 37.675 C 162.836 37.762,162.940 37.833,163.036 37.833 C 163.309 37.833,165.463 38.965,165.811 39.291 C 165.982 39.452,166.507 39.913,166.978 40.317 C 167.448 40.720,167.833 41.114,167.833 41.192 C 167.833 41.270,167.965 41.478,168.125 41.655 C 169.159 42.794,170.154 44.887,170.511 46.674 C 170.867 48.460,170.654 52.632,170.175 53.250 C 170.104 53.342,169.913 53.848,169.750 54.375 C 169.587 54.902,169.399 55.333,169.331 55.333 C 169.263 55.333,169.114 55.558,169.000 55.833 C 168.886 56.108,168.740 56.333,168.675 56.333 C 168.610 56.333,168.450 56.533,168.320 56.777 C 167.911 57.545,165.599 59.667,165.171 59.667 C 165.071 59.667,164.950 59.768,164.903 59.893 C 164.855 60.017,164.520 60.217,164.158 60.336 C 163.796 60.456,163.500 60.607,163.500 60.672 C 163.500 60.737,163.144 60.886,162.708 61.004 C 162.273 61.122,161.837 61.279,161.739 61.354 C 161.077 61.860,155.411 61.851,154.750 61.343 C 154.658 61.273,154.227 61.113,153.792 60.988 C 153.356 60.863,153.000 60.710,153.000 60.648 C 153.000 60.587,152.826 60.493,152.614 60.439 C 152.402 60.386,152.070 60.209,151.876 60.046 C 151.683 59.883,151.279 59.600,150.979 59.417 C 150.679 59.233,150.313 59.008,150.167 58.917 C 149.200 58.310,147.033 55.271,146.743 54.113 C 146.681 53.866,146.570 53.626,146.497 53.581 C 146.423 53.536,146.270 52.955,146.156 52.291 C 146.042 51.627,145.886 51.012,145.808 50.925 C 145.618 50.712,145.627 48.070,145.820 47.706 C 145.904 47.547,146.061 46.873,146.168 46.208 C 146.276 45.544,146.423 45.000,146.495 45.000 C 146.568 45.000,146.712 44.663,146.816 44.250 C 146.920 43.837,147.065 43.500,147.138 43.500 C 147.211 43.500,147.374 43.237,147.500 42.917 C 147.626 42.596,147.792 42.333,147.870 42.333 C 147.947 42.333,148.058 42.202,148.115 42.042 C 148.259 41.639,150.535 39.339,150.792 39.336 C 150.906 39.335,151.000 39.264,151.000 39.179 C 151.000 39.094,151.206 38.918,151.458 38.787 C 151.710 38.657,152.142 38.427,152.417 38.277 C 153.391 37.746,154.427 37.363,155.208 37.247 C 155.644 37.182,156.000 37.062,156.000 36.981 C 156.000 36.900,157.012 36.833,158.250 36.833 C 159.487 36.833,160.500 36.891,160.500 36.962 M173.778 74.278 C 173.717 74.339,173.667 77.343,173.667 80.954 L 173.667 87.519 174.375 87.468 L 175.083 87.417 175.127 80.928 C 175.161 75.847,175.125 74.410,174.960 74.305 C 174.704 74.143,173.931 74.125,173.778 74.278 M277.944 74.278 C 277.883 74.339,277.833 77.339,277.833 80.944 L 277.833 87.500 278.383 87.500 C 279.252 87.500,279.333 87.303,279.339 85.175 L 279.344 83.250 279.714 83.676 C 279.917 83.910,280.233 84.317,280.417 84.580 C 280.600 84.843,280.919 85.222,281.125 85.423 C 281.331 85.624,281.500 85.870,281.500 85.969 C 281.500 86.069,281.598 86.210,281.717 86.283 C 281.836 86.357,282.106 86.664,282.317 86.967 C 282.670 87.472,282.764 87.513,283.474 87.467 C 284.518 87.399,284.542 87.085,283.590 85.916 C 283.170 85.400,282.734 84.864,282.622 84.724 C 282.509 84.583,282.248 84.298,282.042 84.090 C 281.835 83.882,281.667 83.655,281.667 83.586 C 281.667 83.517,281.436 83.198,281.153 82.876 L 280.640 82.291 281.278 81.622 C 281.629 81.254,282.348 80.538,282.875 80.032 C 284.095 78.860,284.177 78.333,283.141 78.333 C 282.491 78.333,282.358 78.425,280.933 79.856 L 279.417 81.378 279.373 77.981 C 279.335 75.025,279.293 74.556,279.050 74.375 C 278.749 74.151,278.126 74.096,277.944 74.278 M339.623 74.278 C 339.348 74.353,339.332 74.773,339.373 80.888 L 339.417 87.417 340.127 87.468 L 340.837 87.519 340.794 80.885 L 340.750 74.250 340.333 74.224 C 340.104 74.210,339.785 74.234,339.623 74.278 M113.874 75.192 C 113.492 75.574,113.584 86.873,113.971 87.224 C 114.229 87.458,114.703 87.500,117.052 87.500 L 119.827 87.500 119.928 87.097 C 120.176 86.110,120.125 86.087,117.542 86.037 L 115.171 85.991 115.127 80.537 L 115.083 75.083 114.583 75.034 C 114.307 75.007,113.988 75.078,113.874 75.192 M186.444 75.278 C 186.383 75.339,186.333 78.114,186.333 81.444 L 186.333 87.500 187.083 87.500 L 187.833 87.500 187.833 84.750 L 187.833 82.000 190.010 82.000 L 192.186 82.000 192.135 81.292 L 192.083 80.583 189.958 80.537 L 187.833 80.490 187.833 78.495 L 187.833 76.500 190.167 76.500 L 192.500 76.500 192.500 75.833 L 192.500 75.167 189.528 75.167 C 187.893 75.167,186.506 75.217,186.444 75.278 M294.373 75.498 C 293.980 76.128,294.087 86.762,294.491 87.196 C 294.996 87.738,298.858 87.567,300.100 86.947 C 301.259 86.369,302.272 85.330,302.527 84.459 C 302.641 84.069,302.812 83.696,302.909 83.631 C 303.175 83.450,303.143 78.798,302.875 78.708 C 302.760 78.670,302.667 78.529,302.667 78.395 C 302.667 77.639,301.251 76.026,300.269 75.664 C 299.984 75.558,299.620 75.403,299.461 75.319 C 298.828 74.985,294.601 75.133,294.373 75.498 M299.332 77.018 C 300.213 77.444,300.761 78.022,301.005 78.784 C 301.116 79.132,301.273 79.488,301.353 79.575 C 301.544 79.781,301.544 82.584,301.354 82.961 C 301.273 83.120,301.118 83.534,301.008 83.880 C 300.599 85.168,299.023 86.000,296.989 86.000 L 295.917 86.000 295.963 81.233 L 296.010 76.466 297.344 76.584 C 298.080 76.649,298.971 76.844,299.332 77.018 M124.838 78.338 C 124.245 78.503,123.732 78.720,123.699 78.819 C 123.666 78.919,123.533 79.000,123.403 79.000 C 123.157 79.000,123.077 79.738,123.268 80.236 C 123.377 80.522,123.833 80.604,123.833 80.338 C 123.833 80.056,125.663 79.623,126.469 79.714 C 127.408 79.820,127.824 80.298,127.830 81.276 L 127.833 81.968 126.244 82.026 C 125.369 82.057,124.601 82.163,124.535 82.259 C 124.470 82.356,124.184 82.529,123.900 82.644 C 123.091 82.971,122.140 85.667,122.833 85.667 C 122.925 85.667,123.000 85.814,123.000 85.994 C 123.000 87.331,125.985 88.121,127.368 87.150 C 127.935 86.753,128.000 86.755,128.000 87.167 C 128.000 87.444,128.111 87.500,128.663 87.500 C 129.538 87.500,129.550 87.441,129.472 83.378 C 129.390 79.124,129.295 78.926,126.988 78.190 C 126.259 77.957,126.181 77.962,124.838 78.338 M136.671 78.354 C 136.261 78.536,135.877 78.762,135.819 78.856 C 135.761 78.951,135.672 78.872,135.622 78.681 C 135.549 78.400,135.400 78.333,134.849 78.333 L 134.167 78.333 134.167 82.926 L 134.167 87.519 134.875 87.468 L 135.583 87.417 135.667 84.217 C 135.746 81.168,135.768 81.002,136.125 80.669 C 136.331 80.477,136.500 80.260,136.500 80.187 C 136.500 79.894,137.352 79.685,138.159 79.780 L 139.000 79.880 139.000 79.213 C 139.000 78.175,137.949 77.788,136.671 78.354 M144.333 78.153 C 144.196 78.232,143.783 78.346,143.417 78.408 C 142.461 78.569,142.000 79.003,142.000 79.740 C 142.000 80.339,142.402 80.744,142.642 80.388 C 143.202 79.556,146.333 79.444,146.333 80.256 C 146.333 80.390,146.408 80.500,146.500 80.500 C 146.592 80.500,146.667 80.837,146.667 81.250 L 146.667 82.000 145.324 82.000 C 143.449 82.000,141.833 82.786,141.833 83.698 C 141.833 83.864,141.758 84.000,141.667 84.000 C 141.076 84.000,141.666 86.227,142.451 86.960 C 143.178 87.639,146.167 87.812,146.167 87.174 C 146.167 87.100,146.317 87.000,146.500 86.952 C 146.747 86.887,146.833 86.947,146.833 87.182 C 146.833 87.442,146.955 87.500,147.500 87.500 L 148.167 87.500 148.167 83.717 L 148.167 79.935 147.738 79.316 C 147.502 78.975,147.108 78.626,146.863 78.538 C 145.257 77.968,144.784 77.895,144.333 78.153 M164.633 78.345 C 162.773 78.975,162.112 80.029,162.026 82.502 C 161.944 84.890,162.752 87.000,163.749 87.000 C 163.872 87.000,164.000 87.084,164.034 87.186 C 164.217 87.736,167.198 87.702,168.468 87.136 C 169.458 86.695,169.496 85.564,168.519 85.610 C 168.208 85.625,167.902 85.722,167.838 85.826 C 167.774 85.930,167.194 86.059,166.549 86.113 C 164.820 86.258,163.908 85.590,163.601 83.953 L 163.486 83.341 166.368 83.296 L 169.250 83.250 169.250 81.833 C 169.250 79.789,168.311 78.333,166.992 78.333 C 166.732 78.333,166.473 78.258,166.417 78.167 C 166.267 77.925,165.712 77.980,164.633 78.345 M199.171 78.354 C 198.761 78.536,198.377 78.762,198.319 78.856 C 198.261 78.951,198.172 78.872,198.122 78.681 C 198.049 78.400,197.900 78.333,197.349 78.333 L 196.667 78.333 196.667 82.926 L 196.667 87.519 197.375 87.468 L 198.083 87.417 198.176 84.250 C 198.227 82.508,198.283 81.067,198.301 81.048 C 199.470 79.775,199.670 79.664,200.607 79.774 L 201.522 79.882 201.469 79.174 C 201.390 78.113,200.463 77.781,199.171 78.354 M206.833 78.153 C 206.696 78.232,206.283 78.346,205.917 78.408 C 204.961 78.569,204.500 79.003,204.500 79.740 C 204.500 80.339,204.902 80.744,205.142 80.388 C 205.354 80.072,206.687 79.667,207.511 79.667 C 208.613 79.667,209.167 80.199,209.167 81.258 L 209.167 81.968 207.577 82.026 C 206.703 82.057,205.934 82.163,205.869 82.259 C 205.803 82.356,205.518 82.529,205.234 82.644 C 203.814 83.218,203.653 85.729,204.955 86.960 C 205.674 87.639,208.667 87.812,208.667 87.174 C 208.667 87.100,208.817 87.000,209.000 86.952 C 209.247 86.887,209.333 86.947,209.333 87.182 C 209.333 87.871,210.631 87.609,210.765 86.894 C 211.354 83.756,210.565 78.971,209.390 78.550 C 207.774 77.970,207.286 77.894,206.833 78.153 M218.169 78.355 C 217.757 78.537,217.289 78.806,217.127 78.952 C 216.854 79.200,216.833 79.188,216.833 78.776 C 216.833 78.371,216.777 78.333,216.167 78.333 L 215.500 78.333 215.500 82.926 L 215.500 87.519 216.208 87.468 L 216.917 87.417 217.000 84.167 C 217.097 80.379,217.439 79.652,219.114 79.672 C 220.311 79.686,220.407 79.980,220.500 83.894 L 220.583 87.417 221.292 87.468 L 222.000 87.519 222.000 84.416 L 222.000 81.314 222.691 80.577 C 223.780 79.415,225.168 79.369,225.414 80.487 C 225.475 80.767,225.595 81.039,225.679 81.091 C 225.765 81.144,225.833 82.598,225.833 84.353 L 225.833 87.519 226.542 87.468 L 227.250 87.417 227.250 83.917 C 227.250 79.790,226.785 78.334,225.466 78.334 C 225.310 78.333,224.991 78.246,224.756 78.139 C 224.443 77.996,224.232 77.994,223.957 78.129 C 223.751 78.230,223.396 78.365,223.167 78.429 C 222.938 78.494,222.506 78.804,222.208 79.118 C 221.910 79.433,221.667 79.614,221.667 79.520 C 221.667 79.153,220.874 78.544,220.052 78.279 C 219.018 77.945,219.101 77.942,218.169 78.355 M234.583 78.166 C 234.400 78.245,234.058 78.350,233.822 78.400 C 233.587 78.450,233.219 78.643,233.005 78.829 C 232.791 79.015,232.570 79.167,232.515 79.167 C 232.460 79.167,232.309 79.410,232.179 79.708 C 232.049 80.006,231.881 80.292,231.805 80.343 C 231.210 80.744,231.246 84.372,231.858 85.596 C 232.816 87.515,236.191 88.308,238.094 87.061 C 239.134 86.380,238.497 85.178,237.417 85.782 C 235.680 86.752,233.237 85.818,233.044 84.110 L 232.957 83.333 235.691 83.333 C 239.275 83.333,239.388 83.225,238.627 80.532 C 238.164 78.893,235.930 77.586,234.583 78.166 M260.593 78.151 C 260.531 78.251,260.271 78.333,260.015 78.333 C 258.109 78.333,256.830 80.959,257.184 84.142 C 257.325 85.407,257.384 85.535,258.241 86.473 C 259.266 87.593,262.395 88.085,262.977 87.218 C 263.035 87.131,263.204 87.014,263.352 86.960 C 265.294 86.246,265.829 81.171,264.159 79.324 C 263.381 78.466,260.903 77.650,260.593 78.151 M271.872 78.340 C 271.481 78.513,271.116 78.771,271.062 78.911 C 270.909 79.310,270.667 79.211,270.667 78.750 C 270.667 78.367,270.606 78.333,269.914 78.333 L 269.161 78.333 269.206 82.875 L 269.250 87.417 269.958 87.468 L 270.667 87.519 270.667 84.530 C 270.667 82.076,270.711 81.504,270.917 81.333 C 271.054 81.219,271.169 81.041,271.171 80.938 C 271.185 80.363,272.181 79.763,273.133 79.756 L 274.083 79.750 274.083 79.110 C 274.083 78.133,273.104 77.792,271.872 78.340 M310.167 78.150 C 310.029 78.227,309.631 78.342,309.283 78.404 C 308.934 78.467,308.608 78.627,308.557 78.759 C 308.506 78.892,308.358 79.000,308.227 79.000 C 308.096 79.000,307.940 79.131,307.880 79.292 C 307.820 79.452,307.682 79.658,307.573 79.750 C 307.326 79.958,307.000 80.922,307.000 81.442 C 307.000 81.657,306.925 81.833,306.833 81.833 C 306.623 81.833,306.613 83.737,306.821 84.127 C 306.905 84.286,307.061 84.754,307.166 85.167 C 307.335 85.833,307.985 86.833,308.249 86.833 C 308.303 86.833,308.568 86.997,308.839 87.197 C 310.182 88.190,314.071 87.415,313.966 86.175 C 313.914 85.554,312.969 85.344,312.638 85.880 C 312.555 86.013,312.037 86.083,311.131 86.083 C 309.340 86.083,308.500 85.361,308.500 83.822 L 308.500 83.333 311.155 83.333 C 314.164 83.333,314.333 83.271,314.333 82.163 C 314.333 81.298,314.010 79.833,313.820 79.833 C 313.735 79.833,313.667 79.734,313.667 79.613 C 313.667 78.868,310.928 77.723,310.167 78.150 M330.345 78.352 C 327.206 79.432,326.743 85.391,329.664 87.118 C 331.338 88.108,335.000 87.517,335.000 86.257 C 335.000 85.508,334.076 85.243,333.652 85.870 C 333.598 85.950,333.027 86.059,332.382 86.113 C 330.642 86.259,329.691 85.560,329.449 83.958 L 329.354 83.333 332.181 83.333 L 335.008 83.333 335.177 82.890 C 335.330 82.486,335.292 81.698,335.058 80.451 C 334.743 78.774,332.291 77.682,330.345 78.352 M348.500 78.143 C 348.363 78.224,347.972 78.341,347.632 78.402 C 346.718 78.566,345.660 79.693,345.292 80.895 C 344.992 81.873,344.887 84.299,345.133 84.592 C 345.206 84.679,345.365 85.042,345.486 85.400 C 345.681 85.976,346.038 86.411,346.906 87.130 C 347.578 87.687,350.787 87.714,350.972 87.165 C 351.003 87.074,351.115 86.999,351.222 86.998 C 351.512 86.996,352.438 85.978,352.584 85.500 C 352.654 85.271,352.795 85.030,352.897 84.964 C 353.018 84.887,353.083 84.109,353.083 82.750 C 353.083 81.391,353.018 80.613,352.897 80.536 C 352.795 80.470,352.658 80.244,352.592 80.033 C 352.227 78.866,349.449 77.582,348.500 78.143 M360.762 78.148 C 360.711 78.229,360.417 78.343,360.107 78.401 C 359.797 78.459,359.364 78.663,359.146 78.853 L 358.750 79.198 358.696 78.757 C 358.647 78.349,358.590 78.319,357.946 78.366 L 357.250 78.417 357.206 84.397 C 357.159 90.830,357.160 90.833,358.025 90.833 C 358.698 90.833,358.866 90.290,358.802 88.311 C 358.768 87.267,358.809 86.732,358.917 86.796 C 359.008 86.851,359.271 87.024,359.500 87.182 C 360.542 87.899,362.436 87.686,363.344 86.750 C 363.852 86.227,364.188 85.721,364.278 85.344 C 364.333 85.109,364.456 84.819,364.551 84.699 C 364.645 84.580,364.722 83.703,364.722 82.750 C 364.722 81.797,364.645 80.920,364.551 80.801 C 364.456 80.681,364.333 80.389,364.276 80.152 C 364.001 78.996,361.218 77.409,360.762 78.148 M371.583 78.156 C 371.400 78.230,370.963 78.382,370.611 78.494 C 369.923 78.714,369.078 79.487,368.899 80.061 C 368.838 80.257,368.705 80.470,368.603 80.536 C 368.264 80.752,368.357 85.048,368.708 85.399 C 368.869 85.559,369.000 85.767,369.000 85.860 C 369.000 86.101,369.876 87.000,370.111 87.000 C 370.218 87.000,370.331 87.074,370.361 87.163 C 370.529 87.656,374.492 87.682,374.825 87.193 C 374.876 87.119,375.048 87.011,375.208 86.951 C 375.411 86.876,375.500 86.663,375.500 86.250 C 375.500 85.494,375.149 85.344,374.366 85.765 C 373.659 86.147,371.326 86.228,371.209 85.875 C 371.170 85.760,371.040 85.667,370.919 85.667 C 370.625 85.667,370.077 84.711,369.934 83.949 L 369.818 83.333 372.626 83.333 C 374.587 83.333,375.494 83.273,375.633 83.133 C 375.863 82.903,375.912 80.667,375.688 80.667 C 375.607 80.667,375.499 80.453,375.447 80.193 C 375.328 79.600,374.276 78.528,373.690 78.404 C 373.448 78.352,373.078 78.240,372.867 78.155 C 372.416 77.972,372.041 77.973,371.583 78.156 M382.667 78.279 C 382.346 78.417,381.952 78.648,381.792 78.791 C 381.524 79.031,381.500 79.023,381.500 78.692 C 381.500 78.378,381.407 78.333,380.750 78.333 L 380.000 78.333 380.000 82.917 L 380.000 87.500 380.750 87.500 L 381.500 87.500 381.500 84.498 C 381.500 81.398,381.535 81.207,382.250 80.418 C 382.775 79.840,383.192 79.692,384.034 79.787 C 385.058 79.902,385.502 78.698,384.545 78.401 C 384.383 78.350,384.120 78.239,383.961 78.155 C 383.585 77.954,383.373 77.974,382.667 78.279 M151.500 78.654 C 151.500 79.153,151.878 80.667,152.002 80.667 C 152.063 80.667,152.212 81.079,152.333 81.583 C 152.454 82.087,152.602 82.500,152.661 82.500 C 152.721 82.500,152.905 83.025,153.072 83.667 C 153.238 84.308,153.432 84.833,153.502 84.833 C 153.572 84.833,153.682 85.115,153.747 85.458 C 154.241 88.100,156.009 88.384,156.593 85.917 C 156.658 85.642,156.844 85.117,157.007 84.750 C 157.170 84.383,157.356 83.802,157.420 83.458 C 157.484 83.115,157.594 82.833,157.664 82.833 C 157.734 82.833,157.837 82.608,157.892 82.333 C 157.947 82.058,158.137 81.515,158.314 81.125 C 158.491 80.735,158.689 80.135,158.753 79.792 C 158.818 79.448,158.937 79.167,159.019 79.167 C 159.100 79.167,159.167 78.979,159.167 78.750 C 159.167 78.362,159.111 78.333,158.340 78.333 C 157.437 78.333,157.420 78.357,157.065 80.134 C 157.006 80.427,156.901 80.667,156.831 80.667 C 156.761 80.667,156.651 80.948,156.587 81.292 C 156.522 81.635,156.335 82.217,156.170 82.583 C 156.006 82.950,155.818 83.499,155.753 83.803 C 155.588 84.578,155.169 85.373,155.167 84.917 C 155.166 84.733,155.062 84.387,154.936 84.146 C 154.811 83.905,154.610 83.324,154.489 82.854 C 154.369 82.384,154.220 82.000,154.158 82.000 C 154.096 82.000,153.950 81.550,153.833 81.000 C 153.717 80.450,153.556 80.000,153.477 80.000 C 153.398 80.000,153.333 79.906,153.332 79.792 C 153.328 78.787,152.989 78.333,152.242 78.333 C 151.621 78.333,151.500 78.386,151.500 78.654 M242.069 79.033 C 242.131 79.418,242.243 79.812,242.319 79.908 C 242.394 80.005,242.551 80.496,242.667 81.000 C 242.782 81.504,242.932 81.992,243.000 82.083 C 243.068 82.175,243.218 82.662,243.333 83.167 C 243.449 83.671,243.599 84.158,243.667 84.250 C 243.734 84.342,243.884 84.829,244.000 85.333 C 244.116 85.837,244.265 86.325,244.332 86.417 C 244.399 86.508,244.503 86.790,244.564 87.042 C 244.690 87.569,246.333 87.776,246.333 87.264 C 246.333 87.134,246.393 87.003,246.466 86.972 C 246.539 86.942,246.731 86.354,246.892 85.667 C 247.053 84.979,247.313 83.876,247.469 83.215 C 247.833 81.676,248.081 81.398,248.234 82.356 C 248.297 82.747,248.410 83.146,248.486 83.242 C 248.562 83.338,248.754 84.012,248.914 84.740 C 249.073 85.468,249.266 86.181,249.342 86.323 C 249.418 86.466,249.523 86.790,249.576 87.042 C 249.809 88.144,251.542 87.612,251.746 86.376 C 251.810 85.987,251.926 85.629,252.004 85.581 C 252.082 85.533,252.273 84.914,252.430 84.205 C 252.586 83.496,252.766 82.879,252.829 82.833 C 252.892 82.787,253.042 82.281,253.161 81.708 C 253.281 81.135,253.433 80.667,253.500 80.667 C 253.614 80.667,254.000 79.036,254.000 78.556 C 254.000 78.404,253.765 78.333,253.258 78.333 L 252.517 78.333 252.320 79.333 C 252.212 79.883,252.072 80.333,252.009 80.333 C 251.946 80.333,251.797 80.822,251.679 81.418 C 251.560 82.015,251.407 82.538,251.339 82.580 C 251.270 82.622,251.118 83.128,251.000 83.703 C 250.708 85.130,250.566 85.206,250.331 84.059 C 250.221 83.523,250.076 83.008,250.009 82.917 C 249.943 82.825,249.793 82.300,249.676 81.750 C 249.559 81.200,249.403 80.675,249.330 80.583 C 249.258 80.492,249.106 79.948,248.994 79.375 L 248.790 78.333 248.102 78.333 C 247.266 78.333,247.104 78.547,246.822 80.019 C 246.710 80.604,246.563 81.158,246.494 81.250 C 246.426 81.342,246.282 81.867,246.176 82.417 C 246.070 82.967,245.918 83.567,245.840 83.750 C 245.761 83.933,245.639 84.233,245.569 84.417 C 245.447 84.736,245.439 84.735,245.376 84.375 C 245.340 84.169,245.252 84.000,245.182 84.000 C 245.111 84.000,244.954 83.475,244.833 82.833 C 244.712 82.192,244.563 81.667,244.502 81.667 C 244.440 81.667,244.259 81.056,244.099 80.310 C 243.709 78.498,243.592 78.333,242.689 78.333 L 241.957 78.333 242.069 79.033 M317.167 78.740 C 317.167 78.964,317.229 79.185,317.305 79.232 C 317.381 79.279,317.543 79.734,317.665 80.242 C 317.787 80.751,317.940 81.167,318.006 81.167 C 318.071 81.167,318.170 81.392,318.225 81.667 C 318.280 81.942,318.468 82.485,318.644 82.875 C 318.819 83.265,319.018 83.846,319.085 84.167 C 319.153 84.487,319.261 84.787,319.325 84.833 C 319.389 84.879,319.575 85.404,319.738 86.000 C 320.119 87.387,320.223 87.500,321.109 87.500 C 321.661 87.500,321.868 87.428,321.940 87.208 C 321.993 87.048,322.134 86.692,322.255 86.417 C 322.376 86.142,322.528 85.692,322.593 85.417 C 322.659 85.142,322.770 84.842,322.840 84.750 C 322.910 84.658,323.057 84.246,323.167 83.833 C 323.276 83.421,323.502 82.783,323.668 82.417 C 323.834 82.050,324.022 81.469,324.087 81.125 C 324.151 80.781,324.262 80.500,324.332 80.500 C 324.477 80.500,324.833 79.202,324.833 78.676 C 324.833 77.898,323.421 78.211,323.183 79.042 C 323.071 79.431,322.877 79.975,322.753 80.250 C 322.629 80.525,322.476 81.031,322.412 81.375 C 322.348 81.719,322.242 82.000,322.175 82.000 C 322.108 82.000,321.957 82.431,321.840 82.958 C 321.722 83.485,321.575 83.954,321.511 84.000 C 321.448 84.046,321.315 84.346,321.215 84.667 C 321.079 85.106,321.030 85.157,321.017 84.875 C 321.008 84.669,320.935 84.500,320.856 84.500 C 320.777 84.500,320.617 84.050,320.500 83.500 C 320.383 82.950,320.233 82.500,320.167 82.500 C 320.100 82.500,319.950 82.050,319.833 81.500 C 319.717 80.950,319.556 80.500,319.477 80.500 C 319.398 80.500,319.333 80.418,319.333 80.317 C 319.333 80.217,319.216 79.729,319.072 79.234 L 318.810 78.333 317.988 78.333 C 317.228 78.333,317.167 78.364,317.167 78.740 M166.997 79.941 C 167.280 80.109,167.535 80.458,167.648 80.836 C 168.008 82.039,168.075 82.000,165.671 82.000 L 163.508 82.000 163.617 81.459 C 163.676 81.162,163.824 80.819,163.946 80.697 C 164.067 80.576,164.167 80.409,164.167 80.327 C 164.167 79.749,166.202 79.472,166.997 79.941 M236.209 79.845 C 236.706 80.072,237.026 80.580,237.173 81.375 L 237.289 82.000 235.126 82.000 L 232.963 82.000 233.072 81.417 C 233.326 80.067,234.931 79.263,236.209 79.845 M262.219 79.859 C 263.269 80.412,263.417 80.775,263.417 82.798 C 263.417 83.951,263.348 84.724,263.238 84.798 C 263.139 84.863,263.010 85.050,262.950 85.212 C 262.890 85.375,262.708 85.557,262.545 85.617 C 262.383 85.677,262.198 85.804,262.134 85.899 C 261.945 86.184,260.229 86.086,259.916 85.773 C 259.766 85.623,259.590 85.500,259.526 85.500 C 258.819 85.500,258.410 81.577,259.044 80.877 C 259.203 80.701,259.333 80.469,259.333 80.362 C 259.333 79.836,261.470 79.463,262.219 79.859 M311.642 79.850 C 311.930 79.950,312.167 80.113,312.167 80.212 C 312.167 80.310,312.269 80.509,312.394 80.654 C 312.519 80.798,312.667 81.160,312.723 81.458 L 312.825 82.000 310.644 82.000 L 308.463 82.000 308.578 81.375 C 308.833 79.993,310.159 79.333,311.642 79.850 M333.113 80.235 C 333.354 80.495,333.572 80.970,333.623 81.345 L 333.711 82.000 331.535 82.000 L 329.360 82.000 329.533 81.376 C 330.003 79.671,332.000 79.034,333.113 80.235 M350.272 79.864 C 350.628 79.993,350.890 80.239,351.025 80.572 C 351.138 80.853,351.304 81.133,351.393 81.194 C 351.691 81.396,351.593 84.264,351.278 84.579 C 351.125 84.732,351.000 84.962,351.000 85.089 C 351.000 85.217,350.831 85.410,350.625 85.519 C 350.419 85.628,350.198 85.797,350.134 85.895 C 349.810 86.395,348.127 86.067,347.485 85.378 C 346.607 84.437,346.368 80.961,347.164 80.695 C 347.257 80.664,347.333 80.529,347.333 80.395 C 347.333 79.808,349.191 79.473,350.272 79.864 M362.249 80.042 C 363.286 80.936,363.278 84.541,362.236 85.582 C 361.396 86.423,360.608 86.348,359.509 85.323 L 358.769 84.633 358.797 82.828 C 358.823 81.134,358.850 80.998,359.250 80.598 C 360.240 79.609,361.481 79.379,362.249 80.042 M373.334 79.917 C 373.661 80.086,373.874 80.370,373.991 80.792 C 374.339 82.045,374.413 82.000,372.029 82.000 L 369.891 82.000 369.964 81.505 C 370.004 81.233,370.141 80.924,370.268 80.818 C 370.396 80.712,370.500 80.525,370.500 80.402 C 370.500 79.770,372.417 79.443,373.334 79.917 M127.833 84.140 C 127.833 84.855,127.765 85.009,127.229 85.496 C 126.040 86.578,124.496 86.256,124.502 84.927 C 124.508 83.649,124.885 83.380,126.708 83.351 L 127.833 83.333 127.833 84.140 M146.667 84.155 C 146.667 85.942,143.856 87.001,143.332 85.411 C 142.872 84.019,143.567 83.370,145.542 83.346 L 146.667 83.333 146.667 84.155 M209.134 84.201 C 209.027 86.038,206.422 86.949,205.862 85.344 C 205.404 84.031,206.117 83.381,208.050 83.351 L 209.184 83.333 209.134 84.201 " stroke="none" fill="#fcfcfc" fill-rule="evenodd"></path><path id="path2" d="M58.000 10.240 C 58.000 11.220,58.073 12.025,58.167 12.083 C 58.274 12.150,58.333 11.530,58.333 10.343 C 58.333 9.226,58.268 8.500,58.167 8.500 C 58.066 8.500,58.000 9.191,58.000 10.240 M92.890 60.539 C 92.997 60.606,93.908 60.651,94.917 60.639 C 96.987 60.614,96.709 60.534,94.307 60.464 C 93.422 60.438,92.784 60.472,92.890 60.539 " stroke="none" fill="#ececec" fill-rule="evenodd"></path><path id="path3" d="M58.333 10.333 C 58.333 11.852,58.376 12.167,58.583 12.167 C 58.790 12.167,58.833 11.852,58.833 10.333 C 58.833 8.815,58.790 8.500,58.583 8.500 C 58.376 8.500,58.333 8.815,58.333 10.333 M92.777 60.031 C 92.672 60.433,92.979 60.500,94.911 60.500 C 96.471 60.500,96.636 60.470,96.712 60.176 C 96.792 59.871,96.683 59.849,94.823 59.801 C 93.086 59.756,92.841 59.784,92.777 60.031 " stroke="none" fill="#797c7c" fill-rule="evenodd"></path><path id="path4" d="" stroke="none" fill="#100ccf8" fill-rule="evenodd"></path></g></svg>