<?xml version="1.0" encoding="utf-8"?>
<!-- Generator: Adobe Illustrator 16.0.0, SVG Export Plug-In . SVG Version: 6.00 Build 0)  -->
<!DOCTYPE svg PUBLIC "-//W3C//DTD SVG 1.1//EN" "http://www.w3.org/Graphics/SVG/1.1/DTD/svg11.dtd">
<svg version="1.1" id="Layer_1" xmlns="http://www.w3.org/2000/svg" xmlns:xlink="http://www.w3.org/1999/xlink" x="0px" y="0px"
	 width="173px" height="21px" viewBox="0 0 173 21" enable-background="new 0 0 173 21" xml:space="preserve">
<path fill="#1575CC" d="M173,20.498c-0.176,0.008-0.287,0.018-0.396,0.02c-1.752,0-3.502-0.008-5.25,0.006
	c-0.287,0.002-0.447-0.086-0.604-0.336c-1.508-2.414-3.032-4.817-4.552-7.224c-0.313-0.496-1.061-0.498-1.368-0.004
	c-1.493,2.406-2.987,4.812-4.474,7.222c-0.145,0.235-0.293,0.348-0.59,0.346c-1.869-0.02-3.738-0.01-5.693-0.01
	c0.109-0.178,0.184-0.31,0.267-0.437c2.083-3.202,4.161-6.406,6.259-9.598c0.207-0.316,0.191-0.515-0.02-0.82
	c-2.028-2.931-4.037-5.876-6.051-8.816c-0.066-0.096-0.125-0.196-0.231-0.365c1.953,0,3.822-0.008,5.69,0.015
	c0.154,0.002,0.354,0.179,0.455,0.33c1.494,2.226,2.974,4.462,4.457,6.695c0.33,0.497,0.943,0.488,1.278-0.018
	c1.478-2.237,2.952-4.476,4.439-6.706c0.093-0.139,0.28-0.301,0.424-0.302c1.868-0.021,3.735-0.014,5.713-0.014
	c-2.194,3.201-4.345,6.339-6.503,9.487C168.49,13.463,170.727,16.952,173,20.498z M142.227,0.509h5.174v19.989h-5.174V0.509z
	 M131.932,8.266c-0.041-0.013-0.08-0.026-0.121-0.038c-0.101,0.178-0.211,0.351-0.295,0.538c-1.656,3.636-3.32,7.272-4.947,10.923
	c-0.252,0.565-0.463,0.857-1.129,0.855l-2.815-0.007c-0.44,0.017-0.69-0.199-0.866-0.599c-1.635-3.701-3.292-7.395-4.945-11.087
	c-0.096-0.214-0.207-0.418-0.312-0.627c-0.042,0.013-0.087,0.026-0.129,0.038V20.49h-5.043V0.462h5.957
	c0.519,0,0.762,0.089,0.983,0.581c1.813,4.033,3.66,8.049,5.5,12.068c0.104,0.228,0.221,0.447,0.389,0.787
	c0.176-0.316,0.322-0.557,0.445-0.808c1.992-4.028,3.989-8.053,5.963-12.089c0.217-0.441,0.461-0.54,0.963-0.54h5.591v20.036h-5.188
	V8.266z M88.704,0.515h18.05v4.77H93.952v2.641h11.506v4.832H93.941v2.837h13.293v4.898h-18.53V0.515z M67.893,0.518h5.188v15.175
	h12.99v4.797H67.893V0.518z M57.658,15.236c-0.116,0.193-0.182,0.447-0.185,0.672c-0.015,1.523-0.008,3.047-0.008,4.601h-2.424
	h-2.425c0-1.554,0.007-3.077-0.008-4.601c-0.003-0.225-0.069-0.479-0.185-0.672c-2.561-4.228-5.133-8.448-7.703-12.671
	c-0.401-0.659-0.797-1.323-1.223-2.029c0.133-0.015,0.201-0.028,0.269-0.028c1.809-0.002,3.619,0.007,5.427-0.01
	c0.29-0.003,0.377,0.158,0.487,0.361c1.693,3.105,3.388,6.208,5.084,9.312c0.073,0.134,0.163,0.258,0.277,0.434
	c0.113-0.176,0.203-0.3,0.277-0.434c1.696-3.104,3.391-6.207,5.083-9.312c0.11-0.203,0.197-0.364,0.486-0.361
	c1.81,0.017,3.619,0.008,5.428,0.01c0.068,0,0.137,0.013,0.269,0.028c-0.426,0.706-0.822,1.37-1.223,2.029
	C62.792,6.788,60.22,11.009,57.658,15.236z M41.739,5.263l-6.3-0.029c-0.559-0.002-0.744,0.111-0.741,0.728
	c0.028,4.604,0.006,9.209,0.028,13.813c0.003,0.566-0.107,0.746-0.71,0.744h-3.705c-0.641,0-0.86-0.11-0.855-0.83
	c0.04-4.479,0.021-8.958,0.021-13.437c0-1.005,0-1.008-0.952-1.005l-6.078,0.015c-0.577,0.002-0.693-0.165-0.672-0.71
	c0.042-1.156,0.041-2.315,0-3.471c-0.019-0.526,0.118-0.6,0.645-0.595h19.348c0.524-0.005,0.659,0.067,0.64,0.594
	c-0.042,1.156-0.042,2.316,0,3.471C42.427,5.091,42.321,5.276,41.739,5.263z M8.281,7.528c1.939,0.236,3.884,0.424,5.822,0.668
	c1.204,0.152,2.38,0.447,3.487,0.98c2.187,1.055,3.222,2.82,3.173,5.274c-0.054,2.708-1.547,4.36-3.841,5.395
	c-1.626,0.733-3.36,1.024-5.129,1.118c-1.87,0.098-3.73,0.031-5.568-0.363c-2.296-0.492-4.34-1.529-6.226-3.007
	c0.824-1.383,1.628-2.733,2.407-4.042c1.021,0.561,1.977,1.169,2.998,1.626c2.852,1.281,5.804,1.587,8.83,0.718
	c0.333-0.096,0.654-0.285,0.94-0.486c0.481-0.342,0.597-0.858,0.475-1.408c-0.108-0.488-0.518-0.62-0.948-0.674
	c-1.425-0.176-2.851-0.34-4.274-0.525c-1.86-0.242-3.749-0.308-5.552-0.906c-1.448-0.479-2.742-1.218-3.416-2.68
	c-1.3-2.821-0.683-6.452,2.935-8.107c1.789-0.819,3.675-1.094,5.616-1.104c2.218-0.009,4.396,0.231,6.496,1.013
	c1.371,0.511,2.626,1.229,3.836,2.171c-0.833,1.292-1.662,2.58-2.477,3.845c-0.784-0.431-1.513-0.893-2.29-1.246
	c-2.175-0.99-4.478-1.18-6.82-0.981c-0.612,0.051-1.224,0.2-1.812,0.382C6.667,5.273,6.394,5.5,6.21,5.735
	C5.804,6.254,5.982,6.963,6.595,7.174C7.135,7.359,7.712,7.459,8.281,7.528z"/>
</svg>
