<svg xmlns="http://www.w3.org/2000/svg" viewBox="0 0 331 76"><g fill="#FFFFFF" fill-rule="evenodd"><path d="M84.51 35.14V25.5h25.35v9.64h-4.39v-5.67h-6.05v21.29h4.13v3.96H90.82v-3.96h4.13v-21.3H88.9v5.68H84.5zm36.89-5.67V25.5h12.65v3.97h-4.1v21.29h4.1v3.96H121.4v-3.96h4.09v-21.3h-4.1zM157.3 43.4v-3.84h10.7v4.38c0 6.43-.43 8.19-1.72 9.48-.96.96-2.21 1.3-4.55 1.3h-9.4c-2.5 0-3.46-.3-4.34-1.18-1.46-1.46-2-3.59-2-13.44s.54-11.98 2-13.44c.88-.88 1.84-1.17 4.35-1.17h9.18c2.38 0 3.72.33 4.47 1.09 1.33 1.33 1.67 2.92 1.75 8.1h-4.55c-.08-3.47-.2-4.3-.54-4.64-.25-.25-.59-.37-1.84-.37h-7.51c-1.3 0-1.59.08-1.88.37-.42.42-.59 1.63-.59 10.06s.17 9.65.59 10.06c.3.3.58.38 1.88.38h7.72c1.17 0 1.59-.08 1.88-.38.33-.33.54-1.63.54-5.3v-1.46h-6.14zm38.97-13.94V25.5h12.32v3.97h-3.93v21.29h3.93v3.96h-12.32v-3.96h3.92v-9.27h-11.85v9.27h3.92v3.96h-12.31v-3.96h3.92v-21.3h-3.92V25.5h12.3l.01 3.97h-3.92v8.18h11.85v-8.18h-3.92zm23.75 5.67V25.5h25.35v9.64h-4.39v-5.67h-6.05v21.29h4.13v3.96h-12.73v-3.96h4.13v-21.3h-6.05v5.68h-4.39zm55.6 15.62v-5.47H280v9.43h-23.22v-3.96h3.93v-21.3h-3.93V25.5h22.88v8.8h-4.38v-4.83h-10.1v8.18h7.84v3.84h-7.85v9.27h10.44zm33.72-25.26h11.98v3.97h-3.84v25.25h-5.34c-1.21 0-1.46-.25-1.96-1.38l-9.77-22.45h-.63v19.87h3.93v3.96h-12.07v-3.96h3.93v-21.3h-3.93V25.5h9.69c1.2 0 1.46.25 1.96 1.38l9.35 21.45h.63V29.47h-3.93V25.5zM56.98 23.2a4.8 4.8 0 0 1 2.16 3.75v23.38a4.8 4.8 0 0 1-2.16 3.74l-20.25 11.7a4.8 4.8 0 0 1-4.32 0l-20.25-11.7A4.8 4.8 0 0 1 10 50.33V26.95a4.8 4.8 0 0 1 2.16-3.75l20.25-11.68a4.79 4.79 0 0 1 4.32 0L56.98 23.2zM50.2 39.62v-1.96c0-.58-.46-1.04-1.04-1.04h-6.5a6.07 6.07 0 0 1-6.07-6.07v-6.5c0-.57-.46-1.04-1.04-1.04H33.6c-.58 0-1.04.47-1.04 1.04v6.5a6.07 6.07 0 0 1-6.07 6.07h-6.5c-.57 0-1.04.46-1.04 1.04v1.96c0 .57.47 1.04 1.04 1.04h6.5a6.07 6.07 0 0 1 6.07 6.07v6.5c0 .57.46 1.04 1.04 1.04h1.96c.58 0 1.04-.47 1.04-1.04v-6.5a6.07 6.07 0 0 1 6.07-6.07h6.5c.58 0 1.04-.47 1.04-1.04z"/></g></svg>