<?xml version="1.0" encoding="utf-8"?>
<!-- Generator: Adobe Illustrator 16.0.0, SVG Export Plug-In . SVG Version: 6.00 Build 0)  -->
<!DOCTYPE svg PUBLIC "-//W3C//DTD SVG 1.1//EN" "http://www.w3.org/Graphics/SVG/1.1/DTD/svg11.dtd">
<svg version="1.1" id="Layer_1" xmlns="http://www.w3.org/2000/svg" xmlns:xlink="http://www.w3.org/1999/xlink" x="0px" y="0px"
	 width="521.906px" height="310.653px" viewBox="0 0 521.906 310.653" enable-background="new 0 0 521.906 310.653"
	 xml:space="preserve">
<g>
	<g>
		<path fill="#FFFFFF" d="M124.184,259.392c5.516-3.034,7.447-9.999,4.413-15.445c-3.034-5.517-9.998-7.447-15.445-4.413
			c-4.344,2.413-9.033,4.274-13.86,5.517c-4.688,1.24-9.653,1.861-14.755,1.861c-16.204,0-30.96-6.551-41.579-17.238
			c-10.619-10.619-17.238-25.375-17.238-41.578c0-16.204,6.55-30.96,17.238-41.579c10.619-10.619,25.306-17.238,41.579-17.238
			c5.24,0,10.48,0.689,15.445,2.069c5.102,1.379,9.929,3.378,14.411,5.999c5.447,3.172,12.412,1.379,15.583-4.068
			s1.379-12.411-4.068-15.583c-6.344-3.724-13.032-6.551-19.927-8.412c-2.137-0.552-4.206-1.034-6.344-1.448
			c-0.069-10.688,3.034-20.824,8.619-29.443c7.033-10.825,17.928-19.168,31.235-22.754c12.963-3.448,26.271-1.93,37.579,3.655
			c11.17,5.447,20.479,14.756,25.789,26.753c1.172,3.378,3.999,6.137,7.723,7.171c6.067,1.655,12.342-1.861,14.066-7.929
			l-11.033-3.034l10.964,3.034c0.483-1.655,1.034-3.585,1.792-5.861c0.689-2.068,1.379-3.93,2-5.516
			c8.343-20.893,24.409-36.338,43.509-44.543c19.169-8.205,41.44-9.102,62.333-0.689c17.031,6.827,30.753,18.962,39.648,33.856
			c8.825,14.825,12.894,32.477,10.825,50.473c-0.552,3.379,0.482,6.964,3.033,9.653c4.345,4.551,11.584,4.758,16.136,0.414
			l-7.861-8.274l7.861,8.274c0.965-0.896,1.999-1.655,3.24-2.345s2.62-1.241,4.068-1.586c5.103-1.379,10.274-0.551,14.479,1.862
			c4.207,2.414,7.517,6.481,8.896,11.584c0.552,2,0.758,4.137,0.621,6.137c-0.139,1.793-0.483,3.586-1.104,5.31
			c-1.034,2.138-1.448,4.62-0.965,7.102c1.171,6.205,7.17,10.273,13.308,9.103l0,0c11.445-2.139,22.754,0.275,31.993,6.066
			c9.033,5.724,16.066,14.688,19.17,25.72c0.068,0.138,0.068,0.345,0.137,0.482l0,0c3.104,11.585,1.379,23.307-3.999,33.028
			c-0.207,0.276-0.345,0.553-0.482,0.828l0,0c-5.654,9.723-14.963,17.376-26.616,20.616c-0.138,0.069-0.344,0.069-0.482,0.139l0,0
			c-2.758,0.758-5.585,1.24-8.412,1.379c-2.827,0.206-5.653,0.138-8.55-0.207c-6.275-0.759-11.929,3.724-12.688,9.998
			c-0.758,6.274,3.724,11.929,9.998,12.688c4.206,0.482,8.551,0.62,12.825,0.275c4.068-0.275,8.067-0.965,11.998-1.931
			c0.482-0.068,0.896-0.207,1.379-0.345c17.651-4.896,31.718-16.48,40.199-31.235l-9.86-5.723l9.86,5.723
			c0.207-0.345,0.345-0.689,0.552-1.034c8.067-14.55,10.825-32.133,6.344-49.439c-0.069-0.482-0.207-0.896-0.345-1.379
			c-4.689-16.686-15.308-30.27-29.029-38.889c-9.653-6.068-20.824-9.723-32.546-10.274c-0.068-3.378-0.552-6.757-1.379-10.067
			c-2.965-11.17-10.205-20.065-19.514-25.374c-8.55-4.965-18.893-6.896-29.167-4.827c-1.172-16.273-6.137-31.856-14.272-45.509
			c-11.378-19.169-28.96-34.684-50.749-43.44c-26.685-10.688-55.231-9.584-79.709,0.896c-21.927,9.377-40.682,26.133-52.06,48.681
			c-6.757-7.654-14.963-13.859-23.995-18.272c-16.135-7.86-35.028-10.136-53.438-5.171c-18.962,5.103-34.476,16.894-44.474,32.338
			c-7.723,11.929-12.136,26.064-12.274,40.82c-19.444,1.793-36.958,10.48-49.991,23.582c-14.755,14.756-23.926,35.166-23.926,57.714
			c0,22.547,9.171,42.957,23.926,57.713c14.756,14.756,35.166,23.927,57.714,23.927c6.826,0,13.721-0.897,20.479-2.621
			C111.703,265.321,118.116,262.77,124.184,259.392L124.184,259.392z M84.536,118.728v9.722c1.93,0.828,4.068,1.172,6.274,0.759
			c6.206-0.965,10.412-6.826,9.446-13.032L84.536,118.728L84.536,118.728z M84.536,128.45v-9.722l-6.758,1.034
			C78.399,123.762,81.088,126.933,84.536,128.45L84.536,128.45z"/>
		<path fill="#FFFFFF" d="M132.32,253.323c-0.965,3.517-3.31,6.62-6.757,8.55c-3.172,1.725-6.344,3.31-9.653,4.62
			c-3.31,1.31-6.688,2.414-10.205,3.31c-3.516,0.896-7.033,1.586-10.619,2.069c-3.585,0.482-7.102,0.689-10.619,0.689
			c-11.446,0-22.34-2.275-32.27-6.413c-10.343-4.275-19.651-10.55-27.443-18.341c-7.792-7.792-14.066-17.101-18.341-27.443
			C2.275,210.366,0,199.472,0,188.095c0-11.447,2.275-22.341,6.413-32.271c4.275-10.342,10.55-19.651,18.341-27.443
			c6.826-6.826,14.894-12.549,23.789-16.755c8.619-4.068,17.997-6.688,27.926-7.654l0,0c3.172-0.414,6.62-0.551,10.619-0.414
			c3.931,0.138,8.206,0.62,13.032,1.448h0.069c1.103,0.207,2.275,0.414,3.31,0.689c1.172,0.276,2.275,0.552,3.31,0.828
			c3.517,0.965,7.033,2.207,10.55,3.654c3.448,1.448,6.826,3.172,10.067,5.103c3.379,2,5.654,5.171,6.55,8.688
			c0.896,3.517,0.483,7.378-1.517,10.757s-5.171,5.654-8.688,6.55c-3.517,0.896-7.378,0.482-10.757-1.517
			c-2.069-1.241-4.275-2.344-6.62-3.31c-2.275-0.965-4.62-1.792-7.102-2.413c-2.413-0.689-4.896-1.172-7.309-1.448
			c-2.413-0.345-4.896-0.483-7.446-0.483c-7.585,0-14.825,1.517-21.375,4.207c-6.826,2.827-12.963,6.964-18.135,12.135
			c-5.171,5.172-9.309,11.308-12.135,18.135c-2.758,6.551-4.206,13.79-4.206,21.375s1.517,14.825,4.206,21.375
			c2.827,6.827,6.964,12.964,12.135,18.136c5.171,5.171,11.309,9.309,18.135,12.135c6.55,2.759,13.791,4.206,21.375,4.206
			c2.413,0,4.827-0.137,7.171-0.413c2.413-0.276,4.688-0.759,6.895-1.311c2.275-0.621,4.551-1.311,6.757-2.206
			c2.207-0.896,4.344-1.931,6.413-3.034c3.448-1.931,7.309-2.276,10.826-1.241c3.517,0.965,6.619,3.31,8.55,6.758
			C133.009,245.945,133.354,249.807,132.32,253.323L132.32,253.323z"/>
		<path fill="#FFFFFF" d="M151.282,258.426c-2.965-2.896-4.344-6.412-4.344-10.55V136.173c0-2.552,0.689-4.965,2-7.171
			s3.103-3.999,5.378-5.31c2.276-1.31,4.758-2,7.517-2c2.62,0,5.033,0.758,7.24,2.138c2.207,1.379,3.93,3.103,5.24,5.378
			c1.241,2.206,1.862,4.62,1.862,7.24v111.359c0,4.206-1.31,7.86-4.137,10.687c-2.896,2.896-6.481,4.138-10.412,4.138
			C157.625,262.632,154.178,261.253,151.282,258.426L151.282,258.426z M221.406,262.908c-7.17,0-13.721-1.655-19.651-4.965
			c-5.93-3.31-10.55-7.792-13.997-13.446c-3.448-5.653-5.171-11.859-5.171-18.548c0-6.757,1.724-12.963,5.103-18.755
			c3.378-5.792,8.067-10.412,13.997-13.791s12.55-5.033,19.79-5.033c5.171,0,9.929,0.828,14.342,2.482
			c4.413,1.654,8.343,3.999,11.86,7.033c2.137,1.861,3.999,3.861,5.585,5.998c1.586,2.207,2.965,4.482,3.999,6.758
			c1.034,2.345,1.793,4.827,2.345,7.309c0.483,2.552,0.758,5.034,0.758,7.585c0,4.206-0.69,8.412-2.137,12.412
			c-1.448,4.068-3.586,7.792-6.482,11.239c-2.896,3.378-6.343,6.274-10.343,8.55C235.335,261.253,228.716,262.908,221.406,262.908
			L221.406,262.908z M211.202,225.812c0,3.654,0.965,6.619,2.965,8.896c2,2.344,4.413,3.447,7.309,3.447
			c0.207,0,0.896-0.069,2-0.276c4.62-0.966,7.309-4.068,7.999-9.309c0.207-1.379,0.275-2.345,0.275-2.896
			c0-2.552-0.62-4.689-1.724-6.413c-2.068-3.516-4.896-5.24-8.55-5.24c-3.517,0-6.412,1.725-8.55,5.24
			C211.753,221.191,211.202,223.329,211.202,225.812L211.202,225.812z M296.496,262.494c-10.066-1.172-17.583-4.481-22.41-9.93
			c-4.895-5.446-7.309-13.238-7.309-23.306v-25.581c0-2.758,0.689-5.24,2-7.447c1.31-2.206,3.103-3.999,5.378-5.309
			c2.275-1.311,4.758-1.932,7.447-1.932c3.999,0,7.446,1.448,10.273,4.345c2.827,2.896,4.275,6.412,4.275,10.618v25.237
			c0,2.482,0.552,4.343,1.724,5.517c0.966,1.171,2.207,1.93,3.792,2.344c0.139,0.069,0.345,0.069,0.483,0.069
			c3.033-0.069,5.171-0.828,6.48-2.345c1.104-1.104,1.655-2.966,1.655-5.517v-25.236c0-2.689,0.689-5.171,2-7.516
			c1.31-2.276,3.104-4.068,5.378-5.447c2.207-1.311,4.689-2,7.379-2c2.758,0,5.24,0.689,7.446,1.931
			c2.207,1.311,3.999,3.103,5.31,5.309c1.31,2.208,1.931,4.689,1.931,7.448v25.581c0,6.758-1.034,12.479-3.173,17.101
			c-2.068,4.619-5.378,8.273-9.722,10.963c-4.413,2.689-9.998,4.413-16.824,5.172c-2.62,0.275-4.827,0.413-6.688,0.413
			C301.392,262.908,299.116,262.77,296.496,262.494L296.496,262.494z M392.271,191.197L392.271,191.197
			c1.103,0.414,2.275-0.345,2.275-1.518v-17.928c0-3.999,1.379-7.446,4.206-10.273s6.274-4.274,10.343-4.274
			c2.62,0.068,5.033,0.758,7.239,2.068c2.207,1.379,3.999,3.171,5.241,5.447c1.31,2.274,1.931,4.688,1.931,7.309v75.641
			c0,2.827-0.621,5.379-1.862,7.516c-1.24,2.207-3.034,3.931-5.171,5.172c-2.068,1.172-4.344,1.793-6.896,1.861
			c-0.345,0-0.621-0.068-0.896-0.206l-11.653-6.413l0,0c-4.137,4.62-9.584,6.896-16.41,6.896c-1.724,0-3.861-0.207-6.344-0.621
			c-6.896-1.31-12.825-4.619-17.79-9.929s-8.205-11.791-9.653-19.445c-0.413-2.551-0.62-5.032-0.62-7.309
			c0-2.965,0.275-5.723,0.896-8.274c1.241-5.309,3.31-9.929,6.137-13.928c2.896-4,6.344-7.24,10.549-9.653
			c4.965-2.966,10.274-4.413,15.929-4.413C383.721,188.922,387.927,189.68,392.271,191.197L392.271,191.197z M375.24,225.467
			c0,3.517,0.965,6.343,2.965,8.55c2,2.206,4.413,3.31,7.239,3.31c2.552-0.069,4.62-0.965,6.345-2.619
			c1.654-1.655,2.758-4,3.309-7.034c0-0.069,0-0.206,0-0.345v-4.068c0-0.138,0-0.275-0.068-0.345
			c-1.034-4.965-3.586-7.86-7.723-8.895c-1.034-0.207-1.793-0.275-2.275-0.275c-2.413,0-4.551,0.826-6.275,2.551
			c-1.724,1.724-2.896,4.068-3.378,7.033C375.24,223.743,375.24,224.501,375.24,225.467L375.24,225.467z"/>
		<path fill="#FFFFFF" d="M243.334,119.486l-17.238,52.06h-7.585l-17.169-52.06h10.55l10.481,33.925l10.481-33.925H243.334
			L243.334,119.486z M257.745,126.933h-9.722v-7.722h9.722V126.933L257.745,126.933z M257.676,171.546h-9.515v-38.131h9.515V171.546
			L257.676,171.546z M277.12,126.933h-9.723v-7.722h9.723V126.933L277.12,126.933z M277.051,171.546h-9.515v-38.131h9.515V171.546
			L277.051,171.546z M304.012,171.546h-5.171c-3.586,0-6.413-1.173-8.412-3.448c-1.725-1.999-2.62-4.481-2.62-7.446v-18.894h-4
			v-7.24h4v-11.239h9.515v11.239h6.758v7.24h-6.758v18.272c0,2.276,1.104,3.448,3.31,3.448h3.448L304.012,171.546L304.012,171.546z
			 M342.557,152.446c0,3.655-0.275,6.55-0.896,8.688c-0.621,2.413-1.793,4.413-3.448,6.137c-2.965,3.103-6.895,4.689-11.859,4.689
			c-4.896,0-8.826-1.587-11.791-4.689c-1.655-1.724-2.827-3.724-3.447-6.137c-0.552-2.138-0.896-5.033-0.896-8.688
			c0-6.826,1.448-11.791,4.413-14.825c2.896-3.103,6.826-4.62,11.722-4.62s8.825,1.517,11.791,4.62
			C341.108,140.724,342.557,145.62,342.557,152.446L342.557,152.446z M333.041,152.446c0-4.689-0.759-7.723-2.207-9.24
			c-1.103-1.104-2.62-1.655-4.481-1.655c-1.793,0-3.241,0.551-4.413,1.655c-1.448,1.448-2.206,4.551-2.206,9.24
			c0,4.758,0.758,7.792,2.206,9.308c1.104,1.104,2.551,1.655,4.413,1.655c1.861,0,3.31-0.552,4.481-1.655
			C332.352,160.307,333.041,157.204,333.041,152.446L333.041,152.446z M378.756,136.586l-7.17,7.24
			c-1.518-1.517-3.173-2.275-5.034-2.275c-1.586,0-2.965,0.551-4.138,1.655c-1.31,1.31-1.999,3.103-1.999,5.31v23.03h-9.516v-38.131
			h9.309v3.654c2.275-2.758,5.517-4.068,9.584-4.068C373.378,133.001,376.412,134.242,378.756,136.586L378.756,136.586z"/>
		<text transform="matrix(1 0 0 1 146.8906 301.4902)" fill="#FFFFFF" font-family="'ArialMT'" font-size="28.2203">T</text>
		<text transform="matrix(1 0 0 1 161.0034 301.4902)" fill="#FFFFFF" font-family="'ArialMT'" font-size="28.2203">echnologies PVT</text>
		<text transform="matrix(1 0 0 1 371.2227 301.4902)" fill="#FFFFFF" font-family="'ArialMT'" font-size="28.2203">. L</text>
		<text transform="matrix(1 0 0 1 400.502 301.4902)" fill="#FFFFFF" font-family="'ArialMT'" font-size="28.2203">TD.</text>
	</g>
	<g>
		<path fill="#FFFFFF" d="M437.572,185.543h-1.724v-13.446h-4.757v-1.516h11.239v1.516h-4.759V185.543L437.572,185.543z"/>
		<path fill="#FFFFFF" d="M451.226,185.543l-5.103-13.308h-0.068c0.068,1.034,0.137,2.275,0.137,3.723v9.517h-1.586v-14.963h2.62
			l4.759,12.342h0.068l4.758-12.342h2.62v14.963h-1.724v-9.653c0-1.104,0.069-2.345,0.138-3.586h-0.068l-5.103,13.239h-1.448
			V185.543L451.226,185.543z"/>
	</g>
</g>
</svg>
