<?xml version="1.0" encoding="utf-8"?>
<!-- Generator: Adobe Illustrator 23.0.2, SVG Export Plug-In . SVG Version: 6.00 Build 0)  -->
<svg version="1.1" id="Layer_1" xmlns="http://www.w3.org/2000/svg" xmlns:xlink="http://www.w3.org/1999/xlink" x="0px" y="0px"
	 viewBox="0 0 1800 540" style="enable-background:new 0 0 1800 540;" xml:space="preserve">
<style type="text/css">
	.st0{display:none;fill:#006CAE;}
	.st1{display:none;}
	.st2{display:inline;fill:#343433;}
	.st3{display:none;fill-rule:evenodd;clip-rule:evenodd;fill:#CDCCCB;}
	.st4{fill:#FFFFFF;}
	.st5{enable-background:new    ;}
</style>
<rect class="st0" width="1800" height="540"/>
<g>
	<g class="st1">
		<path class="st2" d="M284.9,408.2c11.6,5.1,26.1,0,33.3-9.4l168.1-215.6l5.7-45.7l-41.8,12.4L306.7,364.6
			c-7.6,11.3-16.8,17.1-32.4,12.1l-152.8-60.4l5.5,16.3L284.9,408.2z"/>
		<path class="st2" d="M294.9,461.3c11.2,6,25,4.8,33.9-4.8L496,276.8l9.8-38.9l-35.2,6.6L324.2,429.9c-7.2,9.4-22.1,12.2-32.6,7.7
			l-156.5-80.3l4.3,15.5L294.9,461.3z"/>
		<path class="st2" d="M441.1,131l-137.5-17.2c0,0-4.5-0.7-7.8,1s-6.4,5.6-6.4,5.6L155.5,288.8l-37.4,11.5L120,263l153.6-155.1
			c0,0,5.3-7.5,16.3-11.7s21.7-2.2,21.7-2.2L450,119.8L441.1,131z"/>
	</g>
	<g>
		<path class="st3" d="M301,131.8c0,0,0.7-0.9,1.8-2c1.1-1.1,2.6-2.3,4-3s3.3-0.9,4.7-0.9c1.2,0,2.1,0.1,2.1,0.1l133,15.3l10.5-12.6
			l-3.8-9.6c-0.1,0-130.3-11.5-134.3-11.5c-4.2,0-9.8,0.5-15.6,2.7c-10.5,3.9-16,10.7-16.7,11.7L125.5,292.2l2.9,10.5l39.8-10
			L301,131.8z M508.3,232.4L336.5,430.8c-4.5,5.7-12.5,8.8-20.3,8.8c-3.5,0-7-0.6-10.1-1.9l-164-90.8l9.2,30.9l148.9,83.8
			c0,0,9.9,3.7,14.9,3.7c0,0,12.1,2.8,27.1-14.1l164-168.2l6.7-32.7L508.3,232.4z M292.1,409.2c3.3,1.4,6.9,2.1,10.4,2.1
			c9.4,0,18.8-4.6,24.3-11.5l170.3-213.4l3.9-36.2l-6.3-14.1l-175.5,232c-5.5,8-11.5,12.6-20.3,12.6c-2.9,0-6.2-0.5-9.9-1.7
			l-159.9-70.6l10,29.7L292.1,409.2z"/>
		<path class="st4" d="M290.2,395.6c11.4,4.9,25.8,0.1,32.9-9l166-206.6l5.6-43.8l-41.3,11.9L311.7,353.8
			c-7.5,10.9-16.6,16.4-32,11.6l-150.9-57.9l5.4,15.6L290.2,395.6z"/>
		<path class="st4" d="M300,446.5c11.1,5.8,24.7,4.6,33.5-4.6l165.1-172.2l9.7-37.3l-34.7,6.4L329,416.4c-7.1,9-21.8,11.7-32.2,7.3
			l-154.6-76.9l4.2,14.9L300,446.5z"/>
		<path class="st4" d="M444.4,129.9l-135.8-16.5c0,0-4.5-0.7-7.7,0.9c-3.3,1.6-6.3,5.4-6.3,5.4L162.4,281.2l-36.9,11l1.9-35.7
			L279,107.8c0,0,5.3-7.2,16.1-11.2c10.8-4,21.4-2.1,21.4-2.1l136.7,24.8L444.4,129.9z"/>
	</g>
</g>
<g class="st5">
	<path class="st4" d="M976.2,181l-86.9,189.8h-25.3L796,215.1h-2.3l-70.4,155.7h-26.8L616.9,181h35.6l64.3,160.3h3.1L789.5,181h23.7
		l70.4,158.8h1.9L950.2,181H976.2z"/>
	<path class="st4" d="M1115.1,300.8H985c-0.3,1.5-0.4,2.8-0.4,3.8c0,0.8,0,1.5,0,2.3c0,13.5,5.9,25.8,17.8,36.7
		c11.9,11,26.8,16.5,45,16.5c11.5,0,22.2-1.5,32.1-4.6c9.9-3.1,19.1-7.7,27.5-13.8l-2.3,14.5c-8.4,4.6-18,8.2-28.7,10.7
		c-10.7,2.6-21.6,3.8-32.5,3.8c-25,0-45.8-6-62.4-18c-18.1-12.2-27.2-28.9-27.2-50.1c0-21.2,8.7-38,26-50.5
		c17.3-12.5,39.4-18.7,66.2-18.7c20.7,0,37.6,6,50.9,18c12.5,11.2,18.7,24.9,18.7,40.9c0,1.5-0.1,3.1-0.4,4.6
		C1115.2,298.5,1115.1,299.8,1115.1,300.8z M1085.3,292.8c0-12-3.4-22.7-10.3-32.1c-7.9-10.5-18.6-15.7-32.1-15.7
		c-3.1,0-5.1,0-6.1,0c-14.3,0-26.2,5.1-35.8,15.3c-9.6,10.2-14.3,21-14.3,32.5H1085.3z"/>
	<path class="st4" d="M1292.3,302.7c0,19.1-8.3,35.9-24.9,50.3c-16.6,14.4-36.3,21.6-59.3,21.6c-4.6,0-7.9,0-9.9,0
		c-4.6,0-8.5-0.3-11.9-1c-3.3-0.6-6.6-1.9-9.9-3.6l-23.3-14.2l-21.4,15.7h-7.7V164.2h29.1v101.4c6.6-8.9,15.7-15.7,27.4-20.3
		c11.6-4.6,23.9-6.9,36.9-6.9c21.2,0,39,5.7,53.4,17.2C1285.1,267.1,1292.3,282.8,1292.3,302.7z M1260.1,303.9
		c0-13.8-4.6-26-13.8-36.7c-9.9-12-22.5-18-37.5-18c-13.5,0-26.5,4.6-39,13.8c-11.5,8.4-17.2,16.3-17.2,23.7v33.7
		c0,12.5,4.9,23.4,14.7,32.7c9.8,9.3,22.6,14,38.5,14c17.6,0,31.4-7.1,41.3-21.4C1255.8,333.3,1260.1,319.4,1260.1,303.9z"/>
	<path class="st4" d="M1472.9,224.7c0,17.1-7.1,31-21.4,41.7c-15.3,11.5-36.3,17.2-63.1,17.2h-44v87.2h-32.9V179.5h90.3
		c18.1,0,34.2,4,48.2,11.9C1465.2,200.1,1472.9,211.1,1472.9,224.7z M1440,230c0-9.9-4-18.5-11.9-25.6c-8.7-8.2-19.8-12.2-33.3-12.2
		h-51.3V274h39.4c15.8,0,29.3-4.3,40.4-13C1434.4,252.3,1440,242,1440,230z"/>
	<path class="st4" d="M1629.4,368.2c-7.7,2.8-15.4,4.2-23.3,4.2c-6.9,0-12.8-1.3-17.8-3.8c-5-2.5-8.2-6.8-9.8-12.6
		c-7.1,5.6-15.9,10.1-26.4,13.6c-10.5,3.4-21,5.2-31.8,5.2c-12.2,0-23.6-3.3-34.1-9.8c-10.5-6.5-15.7-14.3-15.7-23.5
		c0-7.7,3.5-15.1,10.5-22.4c7-7.3,14.3-11.4,22-12.4l68.1-11.5l7.3-4.2c0.3-1.3,0.4-2.5,0.4-3.8c0-1,0-1.7,0-1.9
		c0-9.7-3.8-18.1-11.3-25.3c-7.5-7.1-16.8-10.7-27.7-10.7c-14.3,0-27.2,3.2-38.6,9.6c-3.8,2-8.2,5.2-13,9.6
		c-1.5-2.8-2.3-5.4-2.3-7.7c0-2.8,1.3-5.5,3.8-8c7.9-4.8,17.1-8.5,27.5-10.9c10.5-2.4,21.2-3.6,32.1-3.6c15.3,0,28.7,3.3,40.2,9.9
		c11.5,6.6,17.2,15.7,17.2,27.2v71.2c0,7.4,1.9,12.2,5.7,14.5c2.8,1.8,8.4,2.7,16.8,2.7V368.2z M1580,324.5c0-3.3-0.1-6.3-0.2-9
		c-0.1-2.7-0.6-6.6-1.3-11.7l-46.3,7.7c-9.4,1.5-17,4.8-22.6,9.8c-5.6,5-8.4,10.7-8.4,17c0,6.6,3.4,12.7,10.1,18.2
		c6.8,5.5,14.3,8.2,22.8,8.2c13.8,0,24.9-3.5,33.3-10.5C1575.8,347.2,1580,337.3,1580,324.5z"/>
	<path class="st4" d="M1679.1,370.8h-30.6V163.1h30.6V370.8z"/>
</g>
</svg>
