<?xml version="1.0" encoding="utf-8"?>
<!-- Generator: Adobe Illustrator 23.0.4, SVG Export Plug-In . SVG Version: 6.00 Build 0)  -->
<svg version="1.1" xmlns="http://www.w3.org/2000/svg" xmlns:xlink="http://www.w3.org/1999/xlink" x="0px" y="0px"
	 viewBox="0 0 549.6 176.6" style="enable-background:new 0 0 549.6 176.6;" xml:space="preserve">
<style type="text/css">
	.st0{display:none;}
	.st1{display:inline;}
	.st2{fill:#E6E7E8;}
	.st3{fill:none;stroke:#D1D3D4;stroke-width:0.507;stroke-miterlimit:10;}
	.st4{display:inline;opacity:0.1;}
	.st5{fill:#FFFFFF;}
</style>
<g id="Layer_1" class="st0">
	<g class="st1">
		<path class="st2" d="M348.8,191.8l-3.6,9.2H344l-3.6-9.2v9.2h-2.7v-12.7h3.8l3.1,7.9l3.1-7.9h3.8V201h-2.7V191.8z"/>
		<path class="st2" d="M354.2,189c0-0.8,0.7-1.4,1.4-1.4c0.8,0,1.4,0.6,1.4,1.4c0,0.8-0.6,1.4-1.4,1.4
			C354.9,190.4,354.2,189.8,354.2,189z M354.5,191.8h2.4v9.2h-2.4V191.8z"/>
		<path class="st2" d="M366,195.4c0-1.3-0.7-1.7-1.7-1.7c-1,0-1.7,0.5-2.1,1.1v6.2h-2.4v-9.2h2.4v1.2c0.6-0.7,1.7-1.4,3.2-1.4
			c2,0,3,1.1,3,2.9v6.5H366V195.4z"/>
		<path class="st2" d="M371,189c0-0.8,0.7-1.4,1.4-1.4c0.8,0,1.4,0.6,1.4,1.4c0,0.8-0.6,1.4-1.4,1.4C371.7,190.4,371,189.8,371,189z
			 M371.3,191.8h2.4v9.2h-2.4V191.8z"/>
		<path class="st2" d="M388,195.2c0-0.9-0.4-1.5-1.4-1.5c-0.9,0-1.6,0.6-1.9,1.1v6.2h-2.4v-5.8c0-0.9-0.4-1.5-1.4-1.5
			c-0.8,0-1.5,0.6-1.9,1.1v6.2h-2.4v-9.2h2.4v1.2c0.4-0.6,1.6-1.4,3-1.4c1.4,0,2.2,0.6,2.6,1.7c0.5-0.8,1.8-1.7,3.2-1.7
			c1.7,0,2.7,0.9,2.7,2.8v6.7H388V195.2z"/>
		<path class="st2" d="M399.5,199.8c-0.6,0.7-1.7,1.4-3.2,1.4c-2,0-3-1.1-3-2.9v-6.5h2.4v5.6c0,1.3,0.7,1.7,1.7,1.7
			c0.9,0,1.7-0.5,2.1-1v-6.2h2.4v9.2h-2.4V199.8z"/>
		<path class="st2" d="M416.2,195.2c0-0.9-0.4-1.5-1.4-1.5c-0.9,0-1.6,0.6-1.9,1.1v6.2h-2.4v-5.8c0-0.9-0.4-1.5-1.4-1.5
			c-0.8,0-1.5,0.6-1.9,1.1v6.2h-2.4v-9.2h2.4v1.2c0.4-0.6,1.6-1.4,3-1.4c1.4,0,2.2,0.6,2.6,1.7c0.5-0.8,1.8-1.7,3.2-1.7
			c1.7,0,2.7,0.9,2.7,2.8v6.7h-2.4V195.2z"/>
		<path class="st2" d="M434.4,192.3l-2.2,8.7h-2.9l-3.6-12.7h3l2.2,9.2l2.4-9.2h2.1l2.4,9.2l2.2-9.2h3.1l-3.6,12.7h-2.9L434.4,192.3
			z"/>
		<path class="st2" d="M451.1,195.4c0-1.3-0.7-1.7-1.7-1.7c-0.9,0-1.7,0.5-2.1,1.1v6.2h-2.4v-12.7h2.4v4.7c0.6-0.7,1.7-1.4,3.2-1.4
			c2,0,3,1.1,3,2.9v6.5h-2.4V195.4z"/>
		<path class="st2" d="M456.2,189c0-0.8,0.7-1.4,1.5-1.4c0.8,0,1.4,0.6,1.4,1.4c0,0.8-0.6,1.4-1.4,1.4
			C456.8,190.4,456.2,189.8,456.2,189z M456.4,191.8h2.4v9.2h-2.4V191.8z"/>
		<path class="st2" d="M462.2,198.7v-4.8h-1.5v-2.1h1.5v-2.5h2.4v2.5h1.9v2.1h-1.9v4.2c0,0.6,0.3,1,0.8,1c0.4,0,0.7-0.1,0.8-0.3
			l0.5,1.8c-0.4,0.3-1,0.6-2,0.6C463.1,201.2,462.2,200.3,462.2,198.7z"/>
		<path class="st2" d="M472.8,191.6c2.7,0,4.6,2.1,4.6,5.1v0.5h-6.8c0.2,1.2,1.1,2.1,2.7,2.1c0.9,0,1.9-0.3,2.5-0.9l1.1,1.6
			c-0.9,0.9-2.4,1.3-3.8,1.3c-2.8,0-4.9-1.9-4.9-4.8C468,193.7,470,191.6,472.8,191.6z M470.5,195.5h4.5c-0.1-0.9-0.7-2-2.3-2
			C471.3,193.5,470.6,194.6,470.5,195.5z"/>
		<path class="st2" d="M485.6,197.1c0.9,0.9,2.3,1.7,4,1.7c1.5,0,2.2-0.7,2.2-1.4c0-1-1.1-1.3-2.6-1.6c-2.1-0.5-4.8-1-4.8-3.9
			c0-2.1,1.8-3.8,4.8-3.8c2,0,3.7,0.6,5,1.8l-1.5,2c-1-1-2.4-1.4-3.6-1.4c-1.2,0-1.9,0.5-1.9,1.3c0,0.9,1.1,1.1,2.5,1.5
			c2.1,0.5,4.8,1.1,4.8,3.9c0,2.3-1.7,4.1-5.1,4.1c-2.4,0-4.2-0.8-5.4-2L485.6,197.1z"/>
		<path class="st2" d="M496.9,204.5v-12.7h2.4v1.2c0.7-0.9,1.7-1.4,2.8-1.4c2.4,0,4.1,1.8,4.1,4.8s-1.7,4.8-4.1,4.8
			c-1.1,0-2.1-0.5-2.8-1.4v4.7H496.9z M501.4,193.7c-0.8,0-1.7,0.5-2.1,1v3.3c0.4,0.6,1.3,1,2.1,1c1.4,0,2.3-1.1,2.3-2.7
			C503.7,194.8,502.8,193.7,501.4,193.7z"/>
		<path class="st2" d="M514.1,200c-0.6,0.7-1.7,1.2-2.9,1.2c-1.5,0-3.2-1-3.2-3.1c0-2.2,1.7-2.9,3.2-2.9c1.2,0,2.3,0.4,2.9,1.1v-1.3
			c0-0.9-0.8-1.5-2-1.5c-1,0-1.9,0.4-2.7,1.1l-0.9-1.6c1.1-1,2.6-1.4,4-1.4c2.1,0,4,0.8,4,3.5v6h-2.4V200z M514.1,197.6
			c-0.4-0.5-1.2-0.8-1.9-0.8c-1,0-1.7,0.5-1.7,1.4c0,0.9,0.8,1.4,1.7,1.4c0.8,0,1.5-0.3,1.9-0.8V197.6z"/>
		<path class="st2" d="M523.6,191.6c1.9,0,3,0.8,3.6,1.7l-1.6,1.5c-0.4-0.6-1.1-1-1.9-1c-1.5,0-2.5,1.1-2.5,2.7s1,2.7,2.5,2.7
			c0.8,0,1.5-0.4,1.9-1l1.6,1.5c-0.6,0.9-1.8,1.7-3.6,1.7c-2.8,0-4.9-2-4.9-4.8C518.8,193.6,520.8,191.6,523.6,191.6z"/>
		<path class="st2" d="M533.5,191.6c2.7,0,4.6,2.1,4.6,5.1v0.5h-6.8c0.2,1.2,1.1,2.1,2.7,2.1c0.9,0,1.9-0.3,2.5-0.9l1.1,1.6
			c-0.9,0.9-2.4,1.3-3.8,1.3c-2.8,0-4.9-1.9-4.9-4.8C528.7,193.7,530.7,191.6,533.5,191.6z M531.2,195.5h4.5c-0.1-0.9-0.7-2-2.3-2
			C532,193.5,531.3,194.6,531.2,195.5z"/>
	</g>
	<g class="st1">
		<line class="st3" x1="-87.5" y1="0" x2="634.5" y2="0"/>
		<line class="st3" x1="-87.5" y1="176.6" x2="634.5" y2="176.6"/>
		<line class="st3" x1="549.6" y1="-63.6" x2="549.6" y2="240.2"/>
		<line class="st3" x1="0" y1="-63.6" x2="0" y2="240.2"/>
	</g>
	<path class="st4" d="M-5.4,69.4c-4.3-1.6-9.1,0.5-10.7,4.8l-9.9,26.4L-36,74.3c-1.2-3.2-4.3-5.4-7.8-5.4c-3.5,0-6.6,2.1-7.8,5.4
		l-9.9,26.4l-9.9-26.4c-1.6-4.3-6.4-6.5-10.7-4.8c-4.3,1.6-6.5,6.4-4.8,10.7l17.7,47c1.2,3.2,4.3,5.4,7.8,5.4c3.5,0,6.6-2.1,7.8-5.4
		l9.9-26.4l9.9,26.4c1.2,3.2,4.3,5.4,7.8,5.4c3.5,0,6.6-2.1,7.8-5.4l17.7-47C1.1,75.8-1.1,71-5.4,69.4"/>
	<path class="st4" d="M246.9-63.1c-4.3-1.6-9.1,0.5-10.7,4.8l-9.9,26.4l-9.9-26.4c-1.2-3.2-4.3-5.4-7.8-5.4c-3.5,0-6.6,2.1-7.8,5.4
		l-9.9,26.4l-9.9-26.4c-1.6-4.3-6.4-6.5-10.7-4.8c-4.3,1.6-6.5,6.4-4.8,10.7l17.7,47c1.2,3.2,4.3,5.4,7.8,5.4c3.5,0,6.6-2.1,7.8-5.4
		l9.9-26.4l9.9,26.4c1.2,3.2,4.3,5.4,7.8,5.4c3.5,0,6.6-2.1,7.8-5.4l17.7-47C253.3-56.7,251.2-61.4,246.9-63.1"/>
	<path class="st4" d="M246.9,177.1c-4.3-1.6-9.1,0.5-10.7,4.8l-9.9,26.4l-9.9-26.4c-1.2-3.2-4.3-5.4-7.8-5.4c-3.5,0-6.6,2.1-7.8,5.4
		l-9.9,26.4l-9.9-26.4c-1.6-4.3-6.4-6.5-10.7-4.8c-4.3,1.6-6.5,6.4-4.8,10.7l17.7,47c1.2,3.2,4.3,5.4,7.8,5.4c3.5,0,6.6-2.1,7.8-5.4
		l9.9-26.4l9.9,26.4c1.2,3.2,4.3,5.4,7.8,5.4c3.5,0,6.6-2.1,7.8-5.4l17.7-47C253.3,183.5,251.2,178.7,246.9,177.1"/>
	<path class="st4" d="M631.8,79.9c-4.3-1.6-9.1,0.5-10.7,4.8l-9.9,26.4l-9.9-26.4c-1.2-3.2-4.3-5.4-7.8-5.4s-6.6,2.1-7.8,5.4
		l-9.9,26.4l-9.9-26.4c-1.6-4.3-6.4-6.5-10.7-4.8c-4.3,1.6-6.5,6.4-4.8,10.7l17.7,47c1.2,3.2,4.3,5.4,7.8,5.4s6.6-2.1,7.8-5.4
		l9.9-26.4l9.9,26.4c1.2,3.2,4.3,5.4,7.8,5.4s6.6-2.1,7.8-5.4l17.7-47C638.2,86.3,636,81.6,631.8,79.9"/>
</g>
<g id="Layer_2">
	<g>
		<g>
			<g>
				<path class="st5" d="M536.2,124.8h-2.6v-1h6.4v1h-2.6v7.7h-1.1V124.8z"/>
				<path class="st5" d="M548.3,128.7c-0.1-1.2-0.1-2.7-0.1-3.7h0c-0.3,1-0.7,2.1-1.1,3.3l-1.5,4.2h-0.8l-1.4-4.1
					c-0.4-1.2-0.8-2.3-1-3.4h0c0,1.1-0.1,2.5-0.2,3.8l-0.2,3.7h-1.1l0.6-8.7h1.4l1.5,4.2c0.4,1.1,0.7,2,0.9,2.9h0
					c0.2-0.9,0.5-1.8,0.9-2.9l1.5-4.2h1.4l0.5,8.7h-1.1L548.3,128.7z"/>
			</g>
		</g>
		<g>
			<defs>
				<path id="SVGID_1_" d="M131.8,86.8l-0.4-6.1c0,0,0-0.1-0.1-0.1c-5.8-3.3-8.5-10.5-6.1-17.1c2.7-7.3,10.7-11,17.9-8.3
					c7.1,2.7,10.7,10.8,8,18c-1.3,3.5-3.8,6.1-6.8,7.6l0,0l-0.4,0.2c0,0,0,0-0.1,0L132,86.9c0,0,0,0-0.1,0
					C131.9,86.9,131.8,86.9,131.8,86.8 M52.9,129L25.7,71.6c-2.9-6.2-0.3-13.7,5.9-16.6s13.7-0.3,16.6,5.9l27.2,57.4
					c2.9,6.2,0.3,13.7-5.9,16.6c-1.7,0.8-3.5,1.2-5.3,1.2C59.5,136.1,55,133.5,52.9,129 M100.3,129L73.1,71.6
					C70.2,65.3,72.8,57.9,79,55c6.2-2.9,13.7-0.3,16.6,5.9l27.2,57.4c2.9,6.2,0.3,13.7-5.9,16.6c-1.7,0.8-3.5,1.2-5.3,1.2
					C106.9,136.1,102.5,133.5,100.3,129 M88,0C51.4,0.1,17.2,23.2,4.7,59.8c-15.7,46.1,8.9,96.3,55.1,112
					c46.1,15.7,96.3-8.9,112-55.1c15.7-46.1-8.9-96.3-55.1-112C107.4,1.6,97.9,0,88.5,0H88z"/>
			</defs>
			<use xlink:href="#SVGID_1_"  style="overflow:visible;fill:#0090D6;"/>
			<clipPath id="SVGID_2_">
				<use xlink:href="#SVGID_1_"  style="overflow:visible;"/>
			</clipPath>
		</g>
		<g>
			<path class="st5" d="M359.9,112.1V49.4c-0.1-4.4-3.6-8.1-7.9-8.1s-7.8,3.7-7.9,8.1c0,1,0,47.3,0,68.1c0,9.7,4.7,13.7,11.7,13.9
				c3,0.1,5,0,8.4,0c0.1,0,0.1-0.1,0.1-0.1v-13.5c0-0.1-0.1-0.1-0.1-0.1C361.1,117.7,360,115.1,359.9,112.1"/>
			<path class="st5" d="M405.2,118c-8.4,0-15.3-8-15.3-17.8s6.8-17.8,15.3-17.8c8.4,0,15.3,8,15.3,17.8S413.7,118,405.2,118
				 M421,72.7c-7.7-5.6-21-6.1-28.5,0.5c-0.3,0.3-0.7,0.4-1.5,0.7v-2.8c0-6.2,0-15.6,0-21.7c0,0,0,0,0,0c0-4.5-3.6-8.2-8-8.2
				c-4.4,0-8,3.7-8,8.2c0.1,25.1,0,53.5,0,78.6v3.7h9c3.2,0,5.6-2.5,6.4-5.7c0,0,0,0,0,0c1,0.6,2,1.3,2.9,1.9
				c0.2,0.1,0.4,0.2,0.6,0.4c10.1,6.6,24.2,4.2,32.2-5.6c6.7-8.2,8.8-17.8,7.2-28.4C432.1,85.4,428.3,78,421,72.7"/>
			<path class="st5" d="M485.3,94.2h-28.5c-0.1,0-0.1-0.1-0.1-0.1c1.3-6.7,7.2-11.7,14.3-11.7c8,0,13,5.1,14.3,11.7
				C485.4,94.2,485.3,94.2,485.3,94.2 M471,67.8c-16.2,0-29.3,13-29.3,29.1v7.6c0,16.1,13.1,29.1,29.3,29.1c2.8,0,7.9-0.6,12.8-2.2
				c1.9-0.7,3.6-1.6,5.2-2.6c0.6-0.4,1.1-0.6,1.6-1.1l-5.6-11.4c0-0.1-0.1-0.1-0.1,0c-3,2.1-6.9,3.3-11.1,3.3
				c-3.3,0-6.4-0.8-9.1-2.1c-1.1-0.5-2.1-1.1-3-1.9c-3.3-2.6-5.3-6.2-5.3-10.2c0-0.1,0-0.2,0-0.2c0-0.1,0-0.2,0-0.4h17.5h11.7h13.3
				c0.1,0,0.1,0,0.1-0.1c0.1-2.4,0.1-7.9,0.1-7.9C499.2,80.8,485.9,67.8,471,67.8"/>
			<path class="st5" d="M543.5,84.6c0,0,6.1-12.7,6.1-12.7c-2.7-1.2-7.2-1.7-10.7-1.8c-0.1,0-0.1,0-0.2,0c-0.3,0-0.6,0-0.9,0l0,0
				c-3.3,0-7.2,0.7-9.5,1.7c-3,1.3-20.4,7.7-20.4,34.6c0,15.8,0,14.7,0,25.3h9.9c3.1,0,5.7-2.5,5.8-5.6c0.2-7.3,0.5-19.7,0.5-23.1
				C523.8,83.6,538.9,83.8,543.5,84.6"/>
			<path class="st5" d="M321.6,40.7c-5.5,0-10,4.6-10,10.3c0,5.7,4.5,10.3,10,10.3s10-4.6,10-10.3C331.6,45.3,327.1,40.7,321.6,40.7
				"/>
			<path class="st5" d="M321.8,67.8h-0.5c-4.5,0-8.2,3.7-8.2,8.2v47.7c0,4.5,3.7,8.2,8.2,8.2h0.5c4.5,0,8.2-3.7,8.2-8.2V76
				C330.1,71.4,326.4,67.8,321.8,67.8"/>
			<path class="st5" d="M299.7,69.4c-4.3-1.6-9.1,0.5-10.7,4.8l-9.9,26.4l-9.9-26.4c-1.2-3.2-4.3-5.4-7.8-5.4s-6.6,2.1-7.8,5.4
				l-9.9,26.4l-9.9-26.4c-1.6-4.3-6.4-6.5-10.7-4.8c-4.3,1.6-6.5,6.4-4.8,10.7l17.7,47c1.2,3.2,4.3,5.4,7.8,5.4
				c3.5,0,6.6-2.1,7.8-5.4l9.9-26.4l9.9,26.4c1.2,3.2,4.3,5.4,7.8,5.4c3.5,0,6.6-2.1,7.8-5.4l17.7-47C306.2,75.8,304,71,299.7,69.4"
				/>
		</g>
	</g>
</g>
</svg>
